<svg version="1.1" width="53.1963" height="53.154" xmlns="http://www.w3.org/2000/svg" xmlns:xlink="http://www.w3.org/1999/xlink" id="svg9263" overflow="hidden"><defs id="defs9267"><clipPath id="clipPath5959"><path d=" M 153.734 637.154 C 152.569 638.975 148.896 644.081 148.672 644.392 C 148.313 644.925 147.776 645.28 147.149 645.369 C 146.477 645.502 145.76 645.325 145.177 644.925 C 144.013 644.126 143.654 642.571 144.416 641.461 L 145.267 639.818 L 140.922 641.55 L 136.218 651.186 L 138.861 649.854 C 140.294 648.966 142.131 649.41 143.027 650.831 C 143.475 651.497 143.609 652.341 143.43 653.096 C 143.251 653.895 142.759 654.561 142.086 655.005 C 141.683 655.271 134.739 659.89 132.275 661.399 C 129.184 663.264 125.241 663.398 121.747 661.755 C 118.969 660.467 116.864 658.202 115.789 655.405 C 114.713 652.607 114.803 649.543 115.968 646.79 L 115.968 646.79 L 121.523 634.978 C 122.061 633.868 123.136 633.247 124.301 633.247 C 124.749 633.247 125.152 633.335 125.6 633.513 C 126.182 633.779 126.63 634.179 126.899 634.667 L 127.616 633.158 C 127.974 632.403 128.557 631.87 129.363 631.604 C 129.722 631.471 130.035 631.426 130.393 631.426 C 130.797 631.426 131.155 631.515 131.558 631.648 L 132.096 631.471 C 131.782 631.204 131.513 630.893 131.334 630.493 C 131.021 629.828 131.021 629.161 131.289 628.495 C 131.558 627.874 132.006 627.429 132.634 627.207 L 141.997 623.566 L 141.997 623.566 C 142.982 623.211 144.013 623.033 144.998 623.033 C 148.717 623.033 152.346 625.254 154.003 628.85 C 155.347 631.692 155.213 634.8 153.734 637.154 Z M 129.811 632.891 C 129.408 633.024 129.049 633.335 128.87 633.735 L 127.123 637.42 C 127.123 637.465 127.078 637.509 127.078 637.509 L 123.36 645.325 C 123.181 645.68 122.777 645.813 122.464 645.635 C 122.105 645.458 121.971 645.058 122.15 644.747 L 125.869 636.932 C 126.272 636.088 125.913 635.111 125.062 634.711 C 124.211 634.312 123.225 634.667 122.822 635.511 L 117.222 647.323 C 115.027 652.385 117.267 658.158 122.285 660.511 C 125.376 661.932 128.825 661.843 131.558 660.2 C 134.022 658.735 141.28 653.895 141.325 653.85 L 141.325 653.85 C 141.728 653.628 141.952 653.229 142.086 652.785 C 142.176 652.341 142.086 651.897 141.862 651.497 C 141.638 651.097 141.235 650.875 140.787 650.742 C 140.339 650.653 139.891 650.742 139.488 650.964 C 139.488 650.964 139.443 650.964 139.443 651.008 L 134.56 653.495 C 134.336 653.628 134.067 653.584 133.843 653.451 C 131.379 651.719 127.392 652.03 125.331 654.072 C 125.062 654.339 124.614 654.339 124.345 654.072 C 124.077 653.806 124.077 653.362 124.345 653.096 C 126.765 650.698 131.155 650.254 134.201 652.03 L 138.905 642.261 L 137.337 643.016 C 136.576 643.326 135.769 643.193 135.052 642.794 L 132.947 647.234 C 132.768 647.589 132.364 647.722 132.051 647.545 C 131.692 647.367 131.558 646.968 131.737 646.657 L 134.067 641.772 C 134.022 641.728 134.022 641.683 133.977 641.594 C 133.798 641.195 133.708 640.795 133.753 640.351 L 133.081 640.618 C 132.364 640.884 131.603 640.84 130.931 640.484 L 129.452 643.593 C 129.273 643.948 128.87 644.081 128.556 643.904 C 128.198 643.726 128.064 643.326 128.243 643.016 L 129.9 639.508 C 129.856 639.419 129.811 639.33 129.766 639.197 C 129.452 638.531 129.452 637.865 129.721 637.198 C 129.945 636.71 130.303 636.31 130.752 636.044 C 130.438 635.777 130.169 635.467 129.99 635.067 C 129.676 634.401 129.676 633.735 129.945 633.068 C 129.99 632.98 130.035 632.891 130.08 632.802 C 129.945 632.847 129.901 632.891 129.811 632.891 Z M 152.793 629.428 C 150.957 625.475 146.432 623.433 142.489 624.809 L 133.126 628.451 C 132.857 628.539 132.678 628.761 132.544 629.028 C 132.409 629.294 132.454 629.649 132.589 629.96 C 132.858 630.582 133.619 630.893 134.201 630.671 L 140.429 628.229 C 140.787 628.095 141.19 628.273 141.325 628.628 C 141.459 628.984 141.28 629.383 140.921 629.516 L 134.694 631.914 L 134.605 631.959 C 134.605 631.959 131.558 633.158 131.468 633.202 C 131.289 633.291 131.2 633.469 131.11 633.646 C 130.976 633.913 131.02 634.268 131.155 634.579 C 131.289 634.934 131.603 635.156 131.916 635.289 C 132.185 635.378 138.995 632.847 138.995 632.847 C 139.353 632.714 139.756 632.891 139.891 633.247 C 140.025 633.602 139.846 634.001 139.488 634.135 L 131.468 637.243 C 131.199 637.332 131.02 637.554 130.886 637.82 C 130.752 638.087 130.796 638.442 130.931 638.753 C 131.065 639.019 131.244 639.197 131.468 639.375 C 131.782 639.552 132.185 639.641 132.544 639.508 L 141.862 635.867 C 142.22 635.733 142.624 635.911 142.758 636.266 C 142.892 636.622 142.713 637.021 142.355 637.154 L 135.814 639.729 L 135.814 639.729 C 135.501 639.863 135.277 640.085 135.187 640.351 C 135.053 640.618 135.097 640.929 135.187 641.195 C 135.277 641.417 135.456 641.594 135.635 641.728 C 135.994 641.994 136.442 642.083 136.8 641.905 L 146.432 637.909 C 146.701 637.82 147.014 637.865 147.194 638.086 C 147.373 638.308 147.418 638.619 147.283 638.841 C 147.283 638.841 145.491 642.172 145.491 642.216 C 145.133 642.749 145.312 643.46 145.895 643.859 C 146.163 644.037 146.522 644.126 146.835 644.081 C 147.104 644.037 147.328 643.859 147.507 643.637 L 147.507 643.637 C 147.552 643.593 151.36 638.264 152.525 636.443 C 153.824 634.49 153.913 631.87 152.793 629.428 Z" id="path5957" clip-rule="evenodd"/></clipPath><clipPath id="clipPath5965"><path d=" M 0 0 L 1280 0 L 1280 1394 L 0 1394 Z" id="path5963"/></clipPath></defs><g id="g5953" transform="matrix(1.33333,0,0,-1.33333,-153.38,883.865)"><g id="g5955" clip-path="url(#clipPath5959)"><g id="g5961" clip-path="url(#clipPath5965)"><path d=" M 110.035 618.033 L 159.932 618.033 L 159.932 667.899 L 110.035 667.899 Z" id="path5967" stroke="none" fill="#65BB9F" fill-rule="nonzero" fill-opacity="1"/></g></g></g></svg>