<svg version="1.1" width="22.6461" height="29.3333" xmlns="http://www.w3.org/2000/svg" xmlns:xlink="http://www.w3.org/1999/xlink" id="svg1807" overflow="hidden"><defs id="defs1811"><clipPath id="clipPath230"><path d=" M 404.212 924.945 C 404.212 923.771 403.307 922.815 402.194 922.815 L 390.79 922.815 C 389.678 922.815 388.772 923.771 388.772 924.945 L 388.772 932.907 C 388.772 934.081 389.678 935.037 390.79 935.037 L 402.194 935.037 C 403.307 935.037 404.212 934.081 404.212 932.907 Z M 402.668 935.806 L 402.668 938.093 C 402.668 941.35 399.898 944 396.492 944 C 393.087 944 390.316 941.35 390.316 938.093 C 390.316 937.867 390.489 937.685 390.702 937.685 C 390.916 937.685 391.088 937.867 391.088 938.093 C 391.088 940.901 393.512 943.185 396.492 943.185 C 399.472 943.185 401.897 940.901 401.897 938.093 L 401.897 935.852 L 390.79 935.852 C 389.252 935.852 388 934.531 388 932.907 L 388 924.945 C 388 923.321 389.252 922 390.79 922 L 402.194 922 C 403.733 922 404.985 923.321 404.985 924.945 L 404.985 932.907 C 404.985 934.359 403.981 935.567 402.668 935.806 Z" id="path228" clip-rule="evenodd"/></clipPath><clipPath id="clipPath236"><path d=" M 0 0 L 1280 0 L 1280 1505 L 0 1505 Z" id="path234"/></clipPath><clipPath id="clipPath246"><path d=" M 397.264 927.518 C 397.264 927.069 396.918 926.704 396.492 926.704 C 396.066 926.704 395.72 927.069 395.72 927.518 L 395.72 929.963 C 395.72 930.412 396.066 930.778 396.492 930.778 C 396.918 930.778 397.264 930.412 397.264 929.963 Z M 396.492 931.593 C 395.641 931.593 394.948 930.862 394.948 929.963 L 394.948 927.518 C 394.948 926.62 395.641 925.889 396.492 925.889 C 397.344 925.889 398.036 926.62 398.036 927.518 L 398.036 929.963 C 398.036 930.862 397.344 931.593 396.492 931.593 Z" id="path244" clip-rule="evenodd"/></clipPath><clipPath id="clipPath252"><path d=" M 0 0 L 1280 0 L 1280 1505 L 0 1505 Z" id="path250"/></clipPath></defs><g id="g1805" transform="matrix(1.33333,0,0,-1.33333,-579.333,1261.67)"><g id="g224" transform="matrix(1,0,0,1,46.5,2.25)"><g id="g226" clip-path="url(#clipPath230)"><g id="g232" clip-path="url(#clipPath236)"><path d=" M 383 917 L 409.985 917 L 409.985 949 L 383 949 Z" id="path238" stroke="none" fill="#044651" fill-rule="nonzero" fill-opacity="1"/></g></g></g><g id="g240" transform="matrix(1,0,0,1,46.5,2.25)"><g id="g242" clip-path="url(#clipPath246)"><g id="g248" clip-path="url(#clipPath252)"><path d=" M 389.948 920.889 L 403.036 920.889 L 403.036 936.593 L 389.948 936.593 Z" id="path254" stroke="none" fill="#044651" fill-rule="nonzero" fill-opacity="1"/></g></g></g></g></svg>