<svg version="1.1" width="38.6447" height="43.5551" xmlns="http://www.w3.org/2000/svg" xmlns:xlink="http://www.w3.org/1999/xlink" id="svg9205" overflow="hidden"><defs id="defs9209"><clipPath id="clipPath5805"><path d=" M 130.492 705.318 C 129.897 705.318 129.413 704.846 129.413 704.267 L 129.413 700.224 C 129.413 699.645 129.897 699.173 130.492 699.173 C 131.087 699.173 131.571 699.645 131.571 700.224 L 131.571 704.267 C 131.571 704.846 131.087 705.318 130.492 705.318 M 130.492 697.232 C 128.797 697.232 127.419 698.574 127.419 700.224 L 127.419 704.267 C 127.419 705.917 128.797 707.259 130.492 707.259 C 132.186 707.259 133.565 705.917 133.565 704.267 L 133.565 700.224 C 133.565 698.574 132.186 697.232 130.492 697.232" id="path5803" clip-rule="evenodd"/></clipPath><clipPath id="clipPath5811"><path d=" M 0 0 L 1280 0 L 1280 1394 L 0 1394 Z" id="path5809"/></clipPath><clipPath id="clipPath5763"><path d=" M 140.829 722.823 L 120.156 722.823 L 120.156 713.281 L 140.829 713.281 Z" id="path5761" clip-rule="evenodd"/></clipPath><clipPath id="clipPath5769"><path d=" M 0 0 L 1280 0 L 1280 1394 L 0 1394 Z" id="path5767"/></clipPath><clipPath id="clipPath5775"><path d=" M 120 713 L 141 713 L 141 723 L 120 723 Z" id="path5773"/></clipPath><clipPath id="clipPath5779"><path d=" M 122.143 713.281 L 120.156 713.445 C 120.623 718.792 125.067 722.824 130.492 722.824 C 135.943 722.824 140.484 718.695 140.829 713.425 L 138.84 713.301 C 138.561 717.552 134.894 720.883 130.492 720.883 C 126.111 720.883 122.521 717.614 122.143 713.281" id="path5777" clip-rule="evenodd"/></clipPath><clipPath id="clipPath5783"><path d=" M 120 713 L 141 713 L 141 723 L 120 723 Z" id="path5781"/></clipPath><clipPath id="clipPath5721"><path d=" M 130.492 690.157 L 144.984 690.157 L 144.984 714.334 L 116 714.334 L 116 690.157 Z" id="path5719" clip-rule="evenodd"/></clipPath><clipPath id="clipPath5727"><path d=" M 0 0 L 1280 0 L 1280 1394 L 0 1394 Z" id="path5725"/></clipPath><clipPath id="clipPath5733"><path d=" M 116 690 L 145 690 L 145 715 L 116 715 Z" id="path5731"/></clipPath><clipPath id="clipPath5737"><path d=" M 121.149 712.393 C 119.409 712.393 117.994 711.014 117.994 709.32 L 117.994 695.171 C 117.994 693.477 119.409 692.098 121.149 692.098 L 139.835 692.098 C 141.574 692.098 142.99 693.477 142.99 695.171 L 142.99 709.32 C 142.99 711.014 141.574 712.393 139.835 712.393 Z M 139.835 690.157 L 121.149 690.157 C 118.31 690.157 116 692.406 116 695.171 L 116 709.32 C 116 712.085 118.31 714.334 121.149 714.334 L 139.835 714.334 C 142.674 714.334 144.984 712.085 144.984 709.32 L 144.984 695.171 C 144.984 692.406 142.674 690.157 139.835 690.157 Z" id="path5735" clip-rule="evenodd"/></clipPath><clipPath id="clipPath5741"><path d=" M 116 690 L 145 690 L 145 715 L 116 715 Z" id="path5739"/></clipPath></defs><g id="g5715" transform="matrix(1.33333,0,0,-1.33333,-154.667,963.765)"><g id="g5717" clip-path="url(#clipPath5721)"><g id="g5723" clip-path="url(#clipPath5727)"><g id="g5729"></g><g id="g5755"><g id="g5753" clip-path="url(#clipPath5733)"><g id="g5743"></g><g id="g5751"><g id="g5749" clip-path="url(#clipPath5737)"><g id="g5747" clip-path="url(#clipPath5741)"><path d=" M 111 685.157 L 149.984 685.157 L 149.984 719.334 L 111 719.334 Z" id="path5745" stroke="none" fill="#65BB9F" fill-rule="nonzero" fill-opacity="1"/></g></g></g></g></g></g></g></g><g id="g5757" transform="matrix(1.33333,0,0,-1.33333,-154.667,963.765)"><g id="g5759" clip-path="url(#clipPath5763)"><g id="g5765" clip-path="url(#clipPath5769)"><g id="g5771"></g><g id="g5797"><g id="g5795" clip-path="url(#clipPath5775)"><g id="g5785"></g><g id="g5793"><g id="g5791" clip-path="url(#clipPath5779)"><g id="g5789" clip-path="url(#clipPath5783)"><path d=" M 115.156 708.281 L 145.83 708.281 L 145.83 727.824 L 115.156 727.824 Z" id="path5787" stroke="none" fill="#65BB9F" fill-rule="nonzero" fill-opacity="1"/></g></g></g></g></g></g></g></g><g id="g5799" transform="matrix(1.33333,0,0,-1.33333,-154.667,963.765)"><g id="g5801" clip-path="url(#clipPath5805)"><g id="g5807" clip-path="url(#clipPath5811)"><path d=" M 122.419 692.232 L 138.565 692.232 L 138.565 712.259 L 122.419 712.259 Z" id="path5813" stroke="none" fill="#65BB9F" fill-rule="nonzero" fill-opacity="1"/></g></g></g></svg>