<?xml version="1.0" encoding="UTF-8" standalone="no"?>
<!-- Created with Inkscape (http://www.inkscape.org/) -->

<svg
   xmlns:dc="http://purl.org/dc/elements/1.1/"
   xmlns:cc="http://creativecommons.org/ns#"
   xmlns:rdf="http://www.w3.org/1999/02/22-rdf-syntax-ns#"
   xmlns:svg="http://www.w3.org/2000/svg"
   xmlns="http://www.w3.org/2000/svg"
   xmlns:sodipodi="http://sodipodi.sourceforge.net/DTD/sodipodi-0.dtd"
   xmlns:inkscape="http://www.inkscape.org/namespaces/inkscape"
   width="10.928773mm"
   height="11.967986mm"
   viewBox="0 0 10.928773 11.967986"
   version="1.1"
   id="svg4557"
   inkscape:version="0.92.3 (unknown)"
   sodipodi:docname="code_promo.svg">
  <defs
     id="defs4551">
    <clipPath
       clipPathUnits="userSpaceOnUse"
       id="clipPath1554">
      <path
         d="m 133.4896,1193.075 h 15.4896 V 1227 H 133.4896 118 v -33.925 z"
         id="path1552"
         inkscape:connector-curvature="0"
         style="clip-rule:evenodd" />
    </clipPath>
    <clipPath
       clipPathUnits="userSpaceOnUse"
       id="clipPath1560">
      <path
         d="M 0,0 H 1280 V 1775 H 0 Z"
         id="path1558"
         inkscape:connector-curvature="0" />
    </clipPath>
    <clipPath
       clipPathUnits="userSpaceOnUse"
       id="clipPath1566">
      <path
         d="m 118,1193 h 31 v 34 h -31 z"
         id="path1564"
         inkscape:connector-curvature="0" />
    </clipPath>
    <clipPath
       clipPathUnits="userSpaceOnUse"
       id="clipPath1570">
      <path
         d="m 131.4339,1220.302 c 0.2391,0.241 0.5737,0.385 0.8605,0.385 0.3347,0 0.6215,-0.144 0.8605,-0.385 0.239,-0.241 0.3825,-0.53 0.3825,-0.868 0,-0.337 -0.1435,-0.674 -0.3825,-0.867 -0.239,-0.241 -0.5258,-0.386 -0.8605,-0.386 -0.3347,0 -0.6693,0.145 -0.8605,0.386 -0.4781,0.434 -0.4781,1.253 0,1.735 z m 0.9084,-3.759 c 0.7649,0 1.4819,0.289 2.0079,0.819 0.5258,0.53 0.8127,1.253 0.8127,2.024 0,0.771 -0.2869,1.494 -0.8127,2.024 -1.0996,1.108 -2.9163,1.108 -4.0159,0 -1.0996,-1.108 -1.0996,-2.94 0,-4.048 0.5258,-0.53 1.243,-0.819 2.008,-0.819 z m 8.5574,-3.614 c 0,-0.338 -0.1433,-0.675 -0.3823,-0.868 -0.2391,-0.241 -0.526,-0.385 -0.8606,-0.385 -0.3346,0 -0.6693,0.144 -0.8606,0.385 -0.478,0.482 -0.478,1.301 0,1.783 0.239,0.241 0.5737,0.386 0.8606,0.386 0.3346,0 0.6215,-0.145 0.8606,-0.386 0.239,-0.241 0.3823,-0.578 0.3823,-0.915 z m -3.2508,2.024 c -1.0996,-1.109 -1.0996,-2.94 0,-4.048 0.5259,-0.53 1.2429,-0.819 2.0079,-0.819 0.7649,0 1.482,0.289 2.0079,0.819 0.5259,0.53 0.8127,1.253 0.8127,2.024 0,0.771 -0.2869,1.494 -0.8127,2.024 -1.1473,1.108 -2.9163,1.108 -4.0158,0 z m 3.0596,7.18 1.1474,-1.157 -10.8523,-10.939 -1.1474,1.157 z m 5.7369,-25.396 c 0,-1.156 -0.9084,-2.072 -2.0557,-2.072 -1.1474,0 -2.0557,0.916 -2.0557,2.072 0,1.157 0.9083,2.072 2.0557,2.072 1.1473,0 2.0557,-0.915 2.0557,-2.072 z m -14.9637,0 c 0,-1.156 -0.9084,-2.072 -2.0558,-2.072 -1.1473,0 -2.0557,0.916 -2.0557,2.072 0,1.157 0.9084,2.072 2.0557,2.072 1.1474,0 2.0558,-0.915 2.0558,-2.072 z m -4.8286,7.951 h 18.6449 c 2.0558,0 3.6812,1.687 3.6812,3.711 v 7.903 h -1.5777 v -7.903 c 0,-1.157 -0.9561,-2.12 -2.1035,-2.12 h -18.6449 c -1.1473,0 -2.1036,0.963 -2.1036,2.12 v 4.674 5.205 0.674 5.446 l -5.928,2.602 -0.6215,-1.494 4.972,-2.168 v -4.386 -0.674 -5.205 -4.674 -5.879 c 0,-1.976 1.5298,-3.566 3.442,-3.711 -0.4302,-0.578 -0.6692,-1.301 -0.6692,-2.072 0,-2.024 1.6254,-3.662 3.6334,-3.662 2.0079,0 3.6334,1.638 3.6334,3.662 0,0.771 -0.2391,1.494 -0.6216,2.072 h 8.94 c -0.3824,-0.578 -0.6215,-1.301 -0.6215,-2.072 0,-2.024 1.6255,-3.662 3.6334,-3.662 2.008,0 3.6334,1.638 3.6334,3.662 0,2.024 -1.6254,3.662 -3.6334,3.662 h -17.7366 c -1.1474,0 -2.1035,0.964 -2.1035,2.121 v 2.843 c 0.6694,-0.434 1.3864,-0.675 2.1513,-0.675 z"
         id="path1568"
         inkscape:connector-curvature="0"
         style="clip-rule:evenodd" />
    </clipPath>
    <clipPath
       clipPathUnits="userSpaceOnUse"
       id="clipPath1574">
      <path
         d="m 118,1193 h 31 v 34 h -31 z"
         id="path1572"
         inkscape:connector-curvature="0" />
    </clipPath>
  </defs>
  <sodipodi:namedview
     id="base"
     pagecolor="#ffffff"
     bordercolor="#666666"
     borderopacity="1.0"
     inkscape:pageopacity="0.0"
     inkscape:pageshadow="2"
     inkscape:zoom="0.35"
     inkscape:cx="20.6528"
     inkscape:cy="22.61665"
     inkscape:document-units="mm"
     inkscape:current-layer="layer1"
     showgrid="false"
     inkscape:window-width="1301"
     inkscape:window-height="744"
     inkscape:window-x="65"
     inkscape:window-y="24"
     inkscape:window-maximized="1" />
  <metadata
     id="metadata4554">
    <rdf:RDF>
      <cc:Work
         rdf:about="">
        <dc:format>image/svg+xml</dc:format>
        <dc:type
           rdf:resource="http://purl.org/dc/dcmitype/StillImage" />
        <dc:title></dc:title>
      </cc:Work>
    </rdf:RDF>
  </metadata>
  <g
     inkscape:label="Calque 1"
     inkscape:groupmode="layer"
     id="layer1"
     transform="translate(-72.776685,-142.84934)">
    <g
       transform="matrix(0.35277777,0,0,-0.35277777,31.148908,575.70766)"
       id="g1548">
      <g
         id="g1550"
         clip-path="url(#clipPath1554)">
        <g
           id="g1556"
           clip-path="url(#clipPath1560)">
          <g
             id="g1562" />
          <g
             id="g1588">
            <g
               clip-path="url(#clipPath1566)"
               id="g1586">
              <g
                 id="g1576" />
              <g
                 id="g1584">
                <g
                   clip-path="url(#clipPath1570)"
                   id="g1582">
                  <g
                     clip-path="url(#clipPath1574)"
                     id="g1580">
                    <path
                       d="m 113,1188.075 h 40.9792 v 43.9254 H 113 Z"
                       style="fill:#65bb9f;fill-opacity:1;fill-rule:nonzero;stroke:none"
                       id="path1578"
                       inkscape:connector-curvature="0" />
                  </g>
                </g>
              </g>
            </g>
          </g>
        </g>
      </g>
    </g>
  </g>
</svg>
