<?xml version="1.0" encoding="UTF-8" standalone="no"?>
<!-- Created with Inkscape (http://www.inkscape.org/) -->

<svg
   xmlns:dc="http://purl.org/dc/elements/1.1/"
   xmlns:cc="http://creativecommons.org/ns#"
   xmlns:rdf="http://www.w3.org/1999/02/22-rdf-syntax-ns#"
   xmlns:svg="http://www.w3.org/2000/svg"
   xmlns="http://www.w3.org/2000/svg"
   xmlns:sodipodi="http://sodipodi.sourceforge.net/DTD/sodipodi-0.dtd"
   xmlns:inkscape="http://www.inkscape.org/namespaces/inkscape"
   width="13.392099mm"
   height="13.378921mm"
   viewBox="0 0 13.392099 13.378921"
   version="1.1"
   id="svg4929"
   inkscape:version="0.92.3 (unknown)"
   sodipodi:docname="conge.svg">
  <defs
     id="defs4923">
    <clipPath
       clipPathUnits="userSpaceOnUse"
       id="clipPath2130">
      <path
         d="m 143.3867,1035.29 c -0.54,-0.56 0.3323,-1.409 0.8723,-0.87 l 0.6231,0.622 c 0.5604,0.558 -0.291,1.449 -0.8724,0.849 z m 7.3311,7.312 c -0.54,-0.56 0.3324,-1.409 0.8721,-0.87 l 0.6233,0.601 c 0.5605,0.579 -0.291,1.45 -0.8723,0.87 z m 0.5393,-8.203 c 0.5404,-0.539 1.4123,0.331 0.8723,0.87 l -0.623,0.622 c -0.5605,0.559 -1.454,-0.291 -0.8515,-0.87 z m -7.3308,7.312 c 0.5608,-0.538 1.4124,0.332 0.8728,0.87 l -0.623,0.601 c -0.5605,0.58 -1.4537,-0.269 -0.8515,-0.849 z m 9.4491,-3.459 c 0.7685,0 0.7685,1.222 0,1.222 h -0.8723 c -0.8103,0 -0.8307,-1.222 0,-1.222 z m -10.3623,0 c 0.7684,0 0.7684,1.222 0,1.222 h -0.8719 c -0.8102,0 -0.8307,-1.222 0,-1.222 z m 5.4201,6.173 c 0,0.766 -1.2255,0.766 -1.2255,0 v -0.869 c 0,-0.809 1.2255,-0.829 1.2255,0 z m -2.4715,-5.614 c 0.0211,2.362 3.6132,2.362 3.5924,0 -0.0208,-2.444 -3.6124,-2.32 -3.5924,0 z m 1.8068,3.273 c -1.7857,0 -3.2814,-1.491 -3.2814,-3.273 0,-1.76 1.4954,-3.252 3.2814,-3.252 1.8481,0 3.2604,1.492 3.2604,3.252 -2e-4,1.823 -1.4123,3.273 -3.2604,3.273 z m 0.6647,-7.996 c 0,0.767 -1.2255,0.767 -1.2255,0 v -0.87 c 0,-0.808 1.2255,-0.828 1.2255,0 z"
         id="path2128"
         inkscape:connector-curvature="0"
         style="clip-rule:evenodd" />
    </clipPath>
    <clipPath
       clipPathUnits="userSpaceOnUse"
       id="clipPath2136">
      <path
         d="M 0,0 H 1280 V 1775 H 0 Z"
         id="path2134"
         inkscape:connector-curvature="0" />
    </clipPath>
    <clipPath
       clipPathUnits="userSpaceOnUse"
       id="clipPath2114">
      <path
         d="m 127.9666,1039.988 h -2.4314 l -4.4515,4.292 c -0.9938,0.958 -1.9087,-0.359 -1.2568,-1.296 l 2.2542,-3.001 -4.2968,-0.01 -0.5918,0.603 c -1.173,1.213 -1.2114,-0.079 -1.1885,-1.044 v -0.928 c 0,-0.988 1.0515,-1.003 1.5803,-1.018 h 4.4664 l -2.2238,-2.96 c -0.6514,-0.938 0.263,-2.255 1.2568,-1.296 l 4.4106,4.253 h 2.6616 c 3.2701,0 1.513,2.41 -0.1893,2.41"
         id="path2112"
         inkscape:connector-curvature="0"
         style="clip-rule:evenodd" />
    </clipPath>
    <clipPath
       clipPathUnits="userSpaceOnUse"
       id="clipPath2120">
      <path
         d="M 0,0 H 1280 V 1775 H 0 Z"
         id="path2118"
         inkscape:connector-curvature="0" />
    </clipPath>
    <clipPath
       clipPathUnits="userSpaceOnUse"
       id="clipPath2098">
      <path
         d="m 152.0188,1014.17 c -0.6022,0.153 -1.1707,0.242 -1.7131,0.283 -0.2116,0.016 -0.4206,0.025 -0.625,0.027 -1.4616,0.02 -2.7485,-0.284 -4.0057,-0.583 -1.5386,-0.364 -2.9927,-0.709 -4.7474,-0.441 -0.6366,0.097 -1.2637,0.271 -1.9279,0.454 -0.9866,0.274 -2.0076,0.556 -3.1318,0.599 -1.1675,0.045 -2.3136,-0.053 -3.6105,-0.307 -0.6787,-0.133 -1.331,-0.332 -1.9627,-0.525 -0.6655,-0.203 -1.3038,-0.392 -1.9352,-0.503 -0.2477,-0.042 -0.4942,-0.075 -0.7412,-0.089 -0.4397,-0.023 -0.8707,0.016 -1.3001,0.089 -0.6518,0.109 -1.3002,0.304 -1.9704,0.506 -0.4017,0.12 -0.807,0.24 -1.2216,0.346 -0.9745,0.252 -1.917,0.378 -2.8247,0.406 -0.1202,0 -0.2417,0.01 -0.3604,0.01 -1.4184,0 -2.7397,-0.272 -3.9163,-0.822 v -2.145 c 0.1627,0.01 0.3259,0.042 0.4762,0.127 1.1931,0.677 2.5914,0.945 4.1677,0.818 0.6138,-0.051 1.2521,-0.155 1.9196,-0.327 0.3884,-0.1 0.7684,-0.214 1.1452,-0.326 1.1339,-0.339 2.3028,-0.688 3.629,-0.688 0.1195,0 0.2397,0 0.3616,0.01 1.1421,0.056 2.1873,0.375 3.1988,0.681 0.6065,0.185 1.1794,0.358 1.7511,0.471 1.1265,0.225 2.1155,0.309 3.1101,0.268 0.8768,-0.035 1.7355,-0.272 2.6447,-0.523 0.6935,-0.192 1.4116,-0.392 2.1753,-0.507 2.1696,-0.331 3.9,0.077 5.5708,0.475 1.054,0.25 2.0718,0.49 3.1658,0.518 0.6785,0.018 1.3872,-0.043 2.1525,-0.238 0.5123,-0.129 1.5599,-0.551 2.2506,-0.828 l 0.2176,-0.089 v 2.169 c -0.6846,0.272 -1.4407,0.56 -1.9426,0.685"
         id="path2096"
         inkscape:connector-curvature="0"
         style="clip-rule:evenodd" />
    </clipPath>
    <clipPath
       clipPathUnits="userSpaceOnUse"
       id="clipPath2104">
      <path
         d="M 0,0 H 1280 V 1775 H 0 Z"
         id="path2102"
         inkscape:connector-curvature="0" />
    </clipPath>
    <clipPath
       clipPathUnits="userSpaceOnUse"
       id="clipPath2082">
      <path
         d="m 135.9927,1023.607 h -0.2599 l 0.0414,6.103 v 0.02 c 0.7933,-0.13 1.2844,-0.658 1.8375,-1.504 0.168,-0.258 0.5421,-0.337 0.8,-0.169 0.1297,0.084 0.2188,0.214 0.2505,0.365 0.0316,0.151 0.003,0.305 -0.0815,0.434 -0.4048,0.619 -0.8714,1.232 -1.5422,1.626 0.8419,0.134 1.7234,-0.177 2.2847,-0.82 0.2009,-0.23 0.583,-0.259 0.817,-0.056 0.2398,0.208 0.2651,0.574 0.0561,0.814 -0.6935,0.794 -1.6989,1.249 -2.7589,1.249 -0.2782,0 -0.5517,-0.031 -0.8178,-0.092 0.4518,0.401 1.0363,0.628 1.656,0.628 0.3192,0 0.5786,0.259 0.5786,0.577 0,0.319 -0.2594,0.577 -0.5786,0.577 -0.9252,0 -1.8019,-0.346 -2.4734,-0.962 v 0.819 c 0,0.318 -0.2594,0.577 -0.5785,0.577 -0.3187,0 -0.5786,-0.259 -0.5786,-0.577 v -0.872 c -0.6774,0.65 -1.5742,1.015 -2.5296,1.015 -0.3187,0 -0.5781,-0.259 -0.5781,-0.577 0,-0.318 0.2594,-0.577 0.5781,-0.577 0.5801,0 1.1402,-0.206 1.5836,-0.569 -0.1644,0.023 -0.3308,0.034 -0.498,0.034 -1.0599,0 -2.0653,-0.456 -2.7593,-1.25 -0.2089,-0.24 -0.1836,-0.605 0.0565,-0.814 0.2322,-0.202 0.6154,-0.175 0.8162,0.056 0.5264,0.602 1.3286,0.917 2.1256,0.841 -0.6907,-0.392 -1.1687,-1.015 -1.5816,-1.647 -0.1744,-0.266 -0.0989,-0.625 0.1688,-0.8 0.2606,-0.167 0.6315,-0.088 0.8002,0.169 0.5429,0.831 1.0231,1.353 1.79,1.496 v -0.013 l 0.0413,-6.101 h -0.6683 c -7.4526,-0.257 -13.3806,-3.345 -13.6882,-7.176 0.9081,-0.027 1.8502,-0.153 2.8248,-0.406 0.4137,-0.107 0.819,-0.226 1.2207,-0.346 0.6703,-0.202 1.3186,-0.396 1.9704,-0.506 0.4293,-0.073 0.8603,-0.111 1.3001,-0.089 0.247,0.013 0.4935,0.046 0.7413,0.089 0.6313,0.109 1.2696,0.3 1.9351,0.504 0.6317,0.191 1.284,0.391 1.9627,0.525 1.2961,0.254 2.4435,0.351 3.6101,0.306 1.1257,-0.043 2.1464,-0.325 3.1323,-0.599 0.6634,-0.183 1.2912,-0.356 1.9279,-0.454 1.7551,-0.267 3.2091,0.077 4.7476,0.442 1.2569,0.298 2.5438,0.602 4.0054,0.583 -0.3551,3.809 -6.2671,6.872 -13.688,7.127"
         id="path2080"
         inkscape:connector-curvature="0"
         style="clip-rule:evenodd" />
    </clipPath>
    <clipPath
       clipPathUnits="userSpaceOnUse"
       id="clipPath2088">
      <path
         d="M 0,0 H 1280 V 1775 H 0 Z"
         id="path2086"
         inkscape:connector-curvature="0" />
    </clipPath>
    <clipPath
       clipPathUnits="userSpaceOnUse"
       id="clipPath2040">
      <path
         d="m 134.993,1007.075 h 18.9689 v 3.439 h -37.9378 v -3.439 z"
         id="path2038"
         inkscape:connector-curvature="0"
         style="clip-rule:evenodd" />
    </clipPath>
    <clipPath
       clipPathUnits="userSpaceOnUse"
       id="clipPath2046">
      <path
         d="M 0,0 H 1280 V 1775 H 0 Z"
         id="path2044"
         inkscape:connector-curvature="0" />
    </clipPath>
    <clipPath
       clipPathUnits="userSpaceOnUse"
       id="clipPath2052">
      <path
         d="m 116,1007 h 38 v 4 h -38 z"
         id="path2050"
         inkscape:connector-curvature="0" />
    </clipPath>
    <clipPath
       clipPathUnits="userSpaceOnUse"
       id="clipPath2056">
      <path
         d="m 145.6746,1009.894 c -1.5386,-0.365 -2.9926,-0.71 -4.7481,-0.442 -0.6367,0.096 -1.2629,0.271 -1.9279,0.453 -0.9866,0.274 -2.0079,0.556 -3.1318,0.599 -1.1674,0.045 -2.3137,-0.052 -3.6105,-0.306 -0.6788,-0.133 -1.3311,-0.333 -1.9628,-0.524 -0.9269,-0.282 -1.8012,-0.548 -2.6765,-0.592 -1.1075,-0.058 -2.1588,0.258 -3.2705,0.592 -0.4016,0.121 -0.8069,0.241 -1.2215,0.349 -2.6419,0.683 -5.0805,0.538 -7.1009,-0.406 v -2.146 c 0.1626,0.01 0.3258,0.042 0.4762,0.128 1.6572,0.941 3.7054,1.106 6.0872,0.491 0.3884,-0.1 0.7684,-0.214 1.1453,-0.325 1.1337,-0.341 2.3028,-0.69 3.6289,-0.69 0.1195,0 0.2397,0 0.3616,0.01 1.1422,0.056 2.1873,0.375 3.1988,0.682 0.6065,0.184 1.1794,0.357 1.7511,0.471 1.1265,0.222 2.1155,0.308 3.1102,0.267 0.8767,-0.034 1.7354,-0.272 2.6442,-0.523 0.694,-0.192 1.4121,-0.391 2.1757,-0.507 2.1697,-0.331 3.8999,0.078 5.5708,0.475 1.7071,0.406 3.3186,0.788 5.3194,0.281 0.5125,-0.129 1.56,-0.551 2.2508,-0.828 l 0.2177,-0.089 v 2.17 c -0.6816,0.271 -1.4385,0.558 -1.9404,0.684 -2.514,0.637 -4.4627,0.174 -6.347,-0.272"
         id="path2054"
         inkscape:connector-curvature="0"
         style="clip-rule:evenodd" />
    </clipPath>
    <clipPath
       clipPathUnits="userSpaceOnUse"
       id="clipPath2060">
      <path
         d="m 116,1007 h 38 v 4 h -38 z"
         id="path2058"
         inkscape:connector-curvature="0" />
    </clipPath>
  </defs>
  <sodipodi:namedview
     id="base"
     pagecolor="#ffffff"
     bordercolor="#666666"
     borderopacity="1.0"
     inkscape:pageopacity="0.0"
     inkscape:pageshadow="2"
     inkscape:zoom="0.35"
     inkscape:cx="25.307906"
     inkscape:cy="25.283013"
     inkscape:document-units="mm"
     inkscape:current-layer="layer1"
     showgrid="false"
     inkscape:window-width="1301"
     inkscape:window-height="744"
     inkscape:window-x="65"
     inkscape:window-y="24"
     inkscape:window-maximized="1" />
  <metadata
     id="metadata4926">
    <rdf:RDF>
      <cc:Work
         rdf:about="">
        <dc:format>image/svg+xml</dc:format>
        <dc:type
           rdf:resource="http://purl.org/dc/dcmitype/StillImage" />
        <dc:title></dc:title>
      </cc:Work>
    </rdf:RDF>
  </metadata>
  <g
     inkscape:label="Calque 1"
     inkscape:groupmode="layer"
     id="layer1"
     transform="translate(-71.545021,-142.14388)">
    <g
       transform="matrix(0.35277777,0,0,-0.35277777,30.622785,510.79647)"
       id="g2034">
      <g
         id="g2036"
         clip-path="url(#clipPath2040)">
        <g
           id="g2042"
           clip-path="url(#clipPath2046)">
          <g
             id="g2048" />
          <g
             id="g2074">
            <g
               clip-path="url(#clipPath2052)"
               id="g2072">
              <g
                 id="g2062" />
              <g
                 id="g2070">
                <g
                   clip-path="url(#clipPath2056)"
                   id="g2068">
                  <g
                     clip-path="url(#clipPath2060)"
                     id="g2066">
                    <path
                       d="m 111.0241,1002.075 h 47.93795 v 13.4393 H 111.0241 Z"
                       style="fill:#65bb9f;fill-opacity:1;fill-rule:nonzero;stroke:none"
                       id="path2064"
                       inkscape:connector-curvature="0" />
                  </g>
                </g>
              </g>
            </g>
          </g>
        </g>
      </g>
    </g>
    <g
       transform="matrix(0.35277777,0,0,-0.35277777,30.622785,510.79647)"
       id="g2076">
      <g
         id="g2078"
         clip-path="url(#clipPath2082)">
        <g
           id="g2084"
           clip-path="url(#clipPath2088)">
          <path
             d="m 115.3023,1010.078 h 39.37843 v 28.7153 H 115.3023 Z"
             style="fill:#65bb9f;fill-opacity:1;fill-rule:nonzero;stroke:none"
             id="path2090"
             inkscape:connector-curvature="0" />
        </g>
      </g>
    </g>
    <g
       transform="matrix(0.35277777,0,0,-0.35277777,30.622785,510.79647)"
       id="g2092">
      <g
         id="g2094"
         clip-path="url(#clipPath2098)">
        <g
           id="g2100"
           clip-path="url(#clipPath2104)">
          <path
             d="m 111.0248,1006.079 h 47.9366 v 13.4403 h -47.9366 z"
             style="fill:#65bb9f;fill-opacity:1;fill-rule:nonzero;stroke:none"
             id="path2106"
             inkscape:connector-curvature="0" />
        </g>
      </g>
    </g>
    <g
       transform="matrix(0.35277777,0,0,-0.35277777,30.622785,510.79647)"
       id="g2108">
      <g
         id="g2110"
         clip-path="url(#clipPath2114)">
        <g
           id="g2116"
           clip-path="url(#clipPath2120)">
          <path
             d="m 111,1027.994 h 23.99314 v 21.6165 H 111 Z"
             style="fill:#65bb9f;fill-opacity:1;fill-rule:nonzero;stroke:none"
             id="path2122"
             inkscape:connector-curvature="0" />
        </g>
      </g>
    </g>
    <g
       transform="matrix(0.35277777,0,0,-0.35277777,30.622785,510.79647)"
       id="g2124">
      <g
         id="g2126"
         clip-path="url(#clipPath2130)">
        <g
           id="g2132"
           clip-path="url(#clipPath2136)">
          <path
             d="m 136.5258,1027.604 h 22.42596 v 22.3955 H 136.5258 Z"
             style="fill:#65bb9f;fill-opacity:1;fill-rule:nonzero;stroke:none"
             id="path2138"
             inkscape:connector-curvature="0" />
        </g>
      </g>
    </g>
  </g>
</svg>
