<svg version="1.1" width="39.342" height="40.4393" xmlns="http://www.w3.org/2000/svg" xmlns:xlink="http://www.w3.org/1999/xlink" id="svg9279" overflow="hidden"><defs id="defs9283"><clipPath id="clipPath5917"><path d=" M 130.478 567.522 L 145.507 567.522 L 145.507 597.851 L 130.478 597.851 Z" id="path5915" clip-rule="evenodd"/></clipPath><clipPath id="clipPath5923"><path d=" M 0 0 L 1280 0 L 1280 1394 L 0 1394 Z" id="path5921"/></clipPath><clipPath id="clipPath5929"><path d=" M 130 567 L 146 567 L 146 598 L 130 598 Z" id="path5927"/></clipPath><clipPath id="clipPath5933"><path d=" M 145.507 571.641 L 145.507 593.733 C 145.507 596.007 143.623 597.851 141.3 597.851 L 134.685 597.851 C 132.361 597.851 130.478 596.007 130.478 593.733 L 130.478 588.678 C 130.478 588.057 130.992 587.554 131.625 587.554 C 132.259 587.554 132.773 588.057 132.773 588.678 L 132.773 593.733 C 132.773 594.767 133.629 595.605 134.685 595.605 L 141.3 595.605 C 142.356 595.605 143.212 594.767 143.212 593.733 L 143.212 571.641 C 143.212 570.607 142.356 569.769 141.3 569.769 L 134.685 569.769 C 133.629 569.769 132.773 570.607 132.773 571.641 L 132.773 576.696 C 132.773 577.316 132.259 577.819 131.625 577.819 C 130.992 577.819 130.478 577.316 130.478 576.696 L 130.478 571.641 C 130.478 569.366 132.361 567.522 134.685 567.522 L 141.3 567.522 C 143.623 567.522 145.507 569.366 145.507 571.641" id="path5931" clip-rule="evenodd"/></clipPath><clipPath id="clipPath5937"><path d=" M 130 567 L 146 567 L 146 598 L 130 598 Z" id="path5935"/></clipPath><clipPath id="clipPath5901"><path d=" M 116.214 581.9 L 123.327 574.973 C 123.392 574.888 123.47 574.813 123.557 574.749 C 124.064 574.376 124.783 574.477 125.163 574.973 C 125.543 575.47 125.44 576.174 124.933 576.546 L 119.809 581.563 L 139.006 581.563 C 139.639 581.563 140.153 582.066 140.153 582.687 C 140.153 583.307 139.639 583.81 139.006 583.81 L 119.809 583.81 L 124.933 588.865 C 125.239 589.264 125.239 589.813 124.933 590.213 C 124.553 590.709 123.834 590.81 123.327 590.438 L 116.253 583.51 L 116.1 583.323 L 116.1 583.248 L 116.023 583.136 L 116.023 582.911 C 115.992 582.763 115.992 582.61 116.023 582.462 L 116.023 582.237 L 116.1 582.125 L 116.1 582.05 Z" id="path5899" clip-rule="evenodd"/></clipPath><clipPath id="clipPath5907"><path d=" M 0 0 L 1280 0 L 1280 1394 L 0 1394 Z" id="path5905"/></clipPath></defs><g id="g5895" transform="matrix(1.33333,0,0,-1.33333,-154.667,797.135)"><g id="g5897" clip-path="url(#clipPath5901)"><g id="g5903" clip-path="url(#clipPath5907)"><path d=" M 111 569.524 L 145.153 569.524 L 145.153 595.662 L 111 595.662 Z" id="path5909" stroke="none" fill="#65BB9F" fill-rule="nonzero" fill-opacity="1"/></g></g></g><g id="g5911" transform="matrix(1.33333,0,0,-1.33333,-154.667,797.135)"><g id="g5913" clip-path="url(#clipPath5917)"><g id="g5919" clip-path="url(#clipPath5923)"><g id="g5925"></g><g id="g5951"><g id="g5949" clip-path="url(#clipPath5929)"><g id="g5939"></g><g id="g5947"><g id="g5945" clip-path="url(#clipPath5933)"><g id="g5943" clip-path="url(#clipPath5937)"><path d=" M 125.478 562.522 L 150.507 562.522 L 150.507 602.851 L 125.478 602.851 Z" id="path5941" stroke="none" fill="#65BB9F" fill-rule="nonzero" fill-opacity="1"/></g></g></g></g></g></g></g></g></svg>