<?xml version="1.0" encoding="UTF-8" standalone="no"?>
<!-- Created with Inkscape (http://www.inkscape.org/) -->

<svg
   xmlns:dc="http://purl.org/dc/elements/1.1/"
   xmlns:cc="http://creativecommons.org/ns#"
   xmlns:rdf="http://www.w3.org/1999/02/22-rdf-syntax-ns#"
   xmlns:svg="http://www.w3.org/2000/svg"
   xmlns="http://www.w3.org/2000/svg"
   xmlns:sodipodi="http://sodipodi.sourceforge.net/DTD/sodipodi-0.dtd"
   xmlns:inkscape="http://www.inkscape.org/namespaces/inkscape"
   width="11.933872mm"
   height="10.167408mm"
   viewBox="0 0 11.933872 10.167408"
   version="1.1"
   id="svg2858"
   inkscape:version="0.92.3 (unknown)"
   sodipodi:docname="file-img.svg">
  <defs
     id="defs2852">
    <clipPath
       clipPathUnits="userSpaceOnUse"
       id="clipPath1310">
      <path
         d="m 687.9143,1789.179 h 16.9142 V 1818 h -16.9142 -16.9141 v -28.821 z"
         id="path1308"
         inkscape:connector-curvature="0"
         style="clip-rule:evenodd" />
    </clipPath>
    <clipPath
       clipPathUnits="userSpaceOnUse"
       id="clipPath1316">
      <path
         d="M 0,0 H 1280 V 2387 H 0 Z"
         id="path1314"
         inkscape:connector-curvature="0" />
    </clipPath>
    <clipPath
       clipPathUnits="userSpaceOnUse"
       id="clipPath1322">
      <path
         d="m 671,1789 h 34 v 29 h -34 z"
         id="path1320"
         inkscape:connector-curvature="0" />
    </clipPath>
    <clipPath
       clipPathUnits="userSpaceOnUse"
       id="clipPath1326">
      <path
         d="m 703.3768,1798.749 h -2.6135 v 15.176 H 680.546 v 2.62 h 22.8308 z m -4.0653,-4.075 h -2.5769 v 15.211 h -20.2173 v 2.583 h 22.7942 z m -26.8595,-4.04 v 4.149 l 6.8599,5.022 6.8604,-6.004 9.1104,5.349 v -8.516 z m 22.8307,17.795 v -7.605 l -8.9293,-5.241 -6.9324,6.078 -6.969,-5.095 v 11.863 z m 9.5459,9.571 h -25.7344 v -4.075 h -4.0293 v -4.04 h -4.0647 v -20.706 h 25.7344 v 4.076 h 4.0287 v 4.039 h 4.0653 z m -18.5838,-13.209 c 0.882,0 1.597,-0.718 1.597,-1.602 0,-0.884 -0.715,-1.601 -1.597,-1.601 -0.8824,0 -1.5975,0.717 -1.5975,1.601 0,0.884 0.7151,1.602 1.5975,1.602 z m 0,-4.659 c 1.6838,0 3.0489,1.369 3.0489,3.057 0,1.688 -1.3651,3.057 -3.0489,3.057 -1.6842,0 -3.0493,-1.369 -3.0493,-3.057 0,-1.688 1.3651,-3.057 3.0493,-3.057 z"
         id="path1324"
         inkscape:connector-curvature="0"
         style="clip-rule:evenodd" />
    </clipPath>
    <clipPath
       clipPathUnits="userSpaceOnUse"
       id="clipPath1330">
      <path
         d="m 671,1789 h 34 v 29 h -34 z"
         id="path1328"
         inkscape:connector-curvature="0" />
    </clipPath>
  </defs>
  <sodipodi:namedview
     id="base"
     pagecolor="#ffffff"
     bordercolor="#666666"
     borderopacity="1.0"
     inkscape:pageopacity="0.0"
     inkscape:pageshadow="2"
     inkscape:zoom="0.35"
     inkscape:cx="22.552204"
     inkscape:cy="19.214018"
     inkscape:document-units="mm"
     inkscape:current-layer="layer1"
     showgrid="false"
     inkscape:window-width="1301"
     inkscape:window-height="744"
     inkscape:window-x="65"
     inkscape:window-y="24"
     inkscape:window-maximized="1" />
  <metadata
     id="metadata2855">
    <rdf:RDF>
      <cc:Work
         rdf:about="">
        <dc:format>image/svg+xml</dc:format>
        <dc:type
           rdf:resource="http://purl.org/dc/dcmitype/StillImage" />
        <dc:title></dc:title>
      </cc:Work>
    </rdf:RDF>
  </metadata>
  <g
     inkscape:label="Calque 1"
     inkscape:groupmode="layer"
     id="layer1"
     transform="translate(-72.274134,-143.74963)">
    <g
       transform="matrix(0.35277777,0,0,-0.35277777,-164.43982,785.09962)"
       id="g1304">
      <g
         id="g1306"
         clip-path="url(#clipPath1310)">
        <g
           id="g1312"
           clip-path="url(#clipPath1316)">
          <g
             id="g1318" />
          <g
             id="g1344">
            <g
               clip-path="url(#clipPath1322)"
               id="g1342">
              <g
                 id="g1332" />
              <g
                 id="g1340">
                <g
                   clip-path="url(#clipPath1326)"
                   id="g1338">
                  <g
                     clip-path="url(#clipPath1330)"
                     id="g1336">
                    <path
                       d="m 666.0002,1784.179 h 43.82848 v 38.8209 H 666.0002 Z"
                       style="fill:#65bb9f;fill-opacity:1;fill-rule:nonzero;stroke:none"
                       id="path1334"
                       inkscape:connector-curvature="0" />
                  </g>
                </g>
              </g>
            </g>
          </g>
        </g>
      </g>
    </g>
  </g>
</svg>
