<svg version="1.1" width="38.6349" height="41.2992" xmlns="http://www.w3.org/2000/svg" xmlns:xlink="http://www.w3.org/1999/xlink" id="svg9176" overflow="hidden"><defs id="defs9180"><clipPath id="clipPath5679"><path d=" M 144.976 784 L 116 784 L 116 753.026 L 144.976 753.026 Z" id="path5677" clip-rule="evenodd"/></clipPath><clipPath id="clipPath5685"><path d=" M 0 0 L 1280 0 L 1280 1394 L 0 1394 Z" id="path5683"/></clipPath><clipPath id="clipPath5691"><path d=" M 116 753 L 145 753 L 145 784 L 116 784 Z" id="path5689"/></clipPath><clipPath id="clipPath5695"><path d=" M 135.247 772.766 C 134.417 772.766 133.745 772.067 133.745 771.204 C 133.745 770.341 134.417 769.641 135.247 769.641 C 136.077 769.641 136.75 770.341 136.75 771.204 C 136.749 772.068 136.077 772.766 135.247 772.766 M 130.699 772.766 C 129.869 772.766 129.196 772.067 129.196 771.204 C 129.196 770.341 129.869 769.641 130.699 769.641 C 131.529 769.641 132.202 770.341 132.202 771.204 C 132.202 772.068 131.529 772.766 130.699 772.766 M 126.151 772.766 C 125.321 772.766 124.648 772.067 124.648 771.204 C 124.648 770.341 125.321 769.641 126.151 769.641 C 126.981 769.641 127.654 770.341 127.654 771.204 C 127.654 772.068 126.981 772.766 126.151 772.766 M 130.49 782.006 C 123.558 782.006 117.919 777.115 117.919 771.103 C 117.919 765.752 122.332 761.231 128.41 760.351 C 128.884 760.283 129.237 759.861 129.237 759.363 L 129.237 757.078 L 131.194 759.863 C 131.356 760.094 131.606 760.241 131.881 760.267 C 138.253 760.877 143.06 765.535 143.06 771.102 C 143.059 777.115 137.421 782.006 130.49 782.006 M 128.278 753.026 C 128.179 753.026 128.078 753.041 127.98 753.075 C 127.586 753.209 127.318 753.591 127.318 754.023 L 127.318 758.518 C 120.712 759.82 116 764.999 116 771.103 C 116 778.215 122.499 784 130.488 784 C 138.476 784 144.976 778.215 144.976 771.103 C 144.976 764.629 139.638 759.206 132.49 758.33 L 129.051 753.434 C 128.869 753.172 128.578 753.026 128.278 753.026" id="path5693" clip-rule="evenodd"/></clipPath><clipPath id="clipPath5699"><path d=" M 116 753 L 145 753 L 145 784 L 116 784 Z" id="path5697"/></clipPath></defs><g id="g5673" transform="matrix(1.33333,0,0,-1.33333,-154.667,1045.33)"><g id="g5675" clip-path="url(#clipPath5679)"><g id="g5681" clip-path="url(#clipPath5685)"><g id="g5687"></g><g id="g5713"><g id="g5711" clip-path="url(#clipPath5691)"><g id="g5701"></g><g id="g5709"><g id="g5707" clip-path="url(#clipPath5695)"><g id="g5705" clip-path="url(#clipPath5699)"><path d=" M 111 748.026 L 149.976 748.026 L 149.976 789 L 111 789 Z" id="path5703" stroke="none" fill="#65BB9F" fill-rule="nonzero" fill-opacity="1"/></g></g></g></g></g></g></g></g></svg>