<svg version="1.1" width="53.1693" height="51.8208" xmlns="http://www.w3.org/2000/svg" xmlns:xlink="http://www.w3.org/1999/xlink" id="svg9022" overflow="hidden"><defs id="defs9026"><clipPath id="clipPath5517"><path d=" M 155.878 936.134 L 116 936.134 L 116 975 L 155.878 975 Z" id="path5515" clip-rule="evenodd"/></clipPath><clipPath id="clipPath5523"><path d=" M 0 0 L 1280 0 L 1280 1394 L 0 1394 Z" id="path5521"/></clipPath><clipPath id="clipPath5529"><path d=" M 115 936 L 156 936 L 156 975 L 115 975 Z" id="path5527"/></clipPath><clipPath id="clipPath5533"><path d=" M 152.047 942.828 L 152.047 942.825 C 151.97 942.822 151.894 942.805 151.823 942.774 L 147.753 941.072 C 147.434 940.939 147.283 940.571 147.416 940.251 C 147.548 939.93 147.913 939.779 148.232 939.912 L 152.303 941.621 C 152.621 941.751 152.774 942.117 152.644 942.438 C 152.546 942.681 152.307 942.836 152.047 942.828 L 152.047 942.828 Z M 150.379 944.711 C 150.302 944.707 150.226 944.689 150.155 944.657 L 147.748 943.616 C 147.432 943.48 147.285 943.111 147.42 942.793 C 147.556 942.474 147.922 942.327 148.238 942.463 L 148.239 942.463 L 150.646 943.506 C 150.964 943.64 151.113 944.007 150.981 944.327 C 150.88 944.569 150.64 944.722 150.379 944.711 Z M 135.317 952.526 L 135.317 941.357 L 126.912 937.719 L 126.912 948.891 Z M 154.617 952.528 L 154.617 941.356 L 146.211 937.718 L 146.211 948.89 Z M 136.562 952.528 L 138.619 951.637 L 138.619 946.375 C 138.62 946.029 138.9 945.75 139.243 945.75 C 139.34 945.751 139.435 945.774 139.521 945.817 L 140.679 946.403 L 141.992 944.41 C 142.151 944.103 142.528 943.984 142.832 944.145 C 142.989 944.228 143.104 944.374 143.147 944.547 C 143.151 944.559 143.154 944.571 143.157 944.583 C 143.158 944.588 143.159 944.595 143.159 944.601 C 143.162 944.622 143.165 944.643 143.166 944.664 L 143.166 944.669 C 143.167 944.691 143.167 944.712 143.166 944.733 L 143.166 949.669 L 144.965 948.89 L 144.965 937.718 L 136.561 941.357 L 136.561 952.529 Z M 117.261 952.528 L 119.318 951.637 L 119.318 946.375 C 119.319 946.029 119.599 945.75 119.942 945.75 C 120.039 945.751 120.134 945.774 120.22 945.817 L 121.38 946.403 L 122.725 944.358 C 122.914 944.069 123.3 943.988 123.587 944.178 C 123.763 944.295 123.869 944.494 123.868 944.706 L 123.868 949.669 L 125.667 948.89 L 125.667 937.718 L 117.261 941.356 Z M 152.169 954.13 L 153.667 953.481 L 145.591 949.984 L 144.093 950.633 Z M 132.868 954.13 L 134.366 953.481 L 126.29 949.984 L 124.795 950.633 Z M 148.665 955.645 L 150.595 954.81 L 142.298 951.221 C 142.057 951.117 141.906 950.872 141.921 950.609 C 141.921 950.591 141.921 950.573 141.921 950.555 L 141.921 946.784 L 141.411 947.558 C 141.236 947.822 140.894 947.913 140.613 947.771 L 139.864 947.391 L 139.864 951.838 Z M 129.364 955.645 L 131.292 954.81 L 122.997 951.221 C 122.752 951.114 122.601 950.862 122.623 950.594 C 122.622 950.581 122.622 950.568 122.623 950.555 L 122.623 946.782 L 122.112 947.558 C 121.938 947.822 121.596 947.913 121.315 947.771 L 120.563 947.391 L 120.563 951.838 Z M 145.601 956.972 L 147.086 956.328 L 139.008 952.832 L 137.522 953.476 Z M 126.287 956.977 L 127.785 956.328 L 119.707 952.832 L 118.212 953.481 Z M 144.978 969.238 L 144.978 958.076 L 136.571 954.438 L 136.571 965.6 Z M 126.922 969.238 L 128.98 968.35 L 128.98 963.088 C 128.979 962.742 129.258 962.461 129.601 962.461 C 129.699 962.461 129.795 962.484 129.882 962.527 L 131.039 963.115 L 132.347 961.129 C 132.501 960.82 132.875 960.693 133.182 960.848 C 133.362 960.938 133.488 961.11 133.52 961.311 C 133.52 961.314 133.521 961.317 133.521 961.321 C 133.525 961.339 133.525 961.356 133.527 961.374 L 133.527 961.384 C 133.527 961.405 133.527 961.425 133.527 961.446 L 133.527 966.381 L 135.326 965.601 L 135.326 954.431 L 126.922 958.067 L 126.922 969.239 Z M 142.529 970.84 L 144.025 970.193 L 135.949 966.697 L 134.451 967.343 Z M 139.023 972.358 L 140.953 971.523 L 132.659 967.931 C 132.357 967.815 132.194 967.487 132.282 967.174 L 132.282 963.497 L 131.771 964.271 C 131.597 964.534 131.255 964.626 130.973 964.484 L 130.225 964.104 L 130.225 968.548 Z M 135.949 973.687 L 137.447 973.038 L 129.369 969.544 L 127.875 970.191 Z M 135.93 975 C 135.926 974.999 135.921 974.998 135.917 974.997 C 135.885 974.996 135.854 974.991 135.822 974.985 C 135.813 974.984 135.803 974.982 135.793 974.98 C 135.788 974.978 135.783 974.977 135.779 974.975 C 135.764 974.971 135.749 974.966 135.735 974.96 C 135.73 974.958 135.725 974.957 135.72 974.955 C 135.712 974.951 135.704 974.947 135.696 974.943 C 135.685 974.938 135.675 974.933 135.664 974.928 L 126.19 970.83 C 125.913 970.78 125.704 970.549 125.68 970.267 C 125.679 970.262 125.678 970.257 125.678 970.252 L 125.678 970.247 C 125.674 970.207 125.674 970.167 125.678 970.127 L 125.678 958.076 L 116.532 954.117 C 116.364 954.087 116.215 953.989 116.121 953.845 C 116.117 953.84 116.114 953.835 116.111 953.831 C 116.11 953.83 116.109 953.828 116.109 953.828 C 116.108 953.828 116.107 953.826 116.107 953.826 C 116.011 953.683 115.978 953.505 116.017 953.337 L 116.017 940.955 L 116.017 940.948 L 116.017 940.941 C 116.017 940.925 116.018 940.91 116.019 940.894 C 116.037 940.659 116.186 940.453 116.403 940.363 L 125.924 936.245 C 126.031 936.171 126.158 936.132 126.288 936.135 C 126.418 936.132 126.546 936.169 126.653 936.243 L 135.94 940.26 L 145.225 936.245 C 145.332 936.171 145.459 936.132 145.589 936.135 C 145.719 936.132 145.846 936.169 145.954 936.243 L 155.477 940.363 C 155.725 940.465 155.881 940.716 155.863 940.985 L 155.863 953.34 C 155.903 953.517 155.865 953.703 155.759 953.849 C 155.665 953.99 155.518 954.086 155.353 954.116 L 146.224 958.067 L 146.224 970.14 C 146.227 970.182 146.226 970.224 146.222 970.265 C 146.198 970.548 145.988 970.779 145.711 970.828 L 136.23 974.934 C 136.166 974.966 136.097 974.987 136.025 974.995 C 136.014 974.997 136.003 974.997 135.992 974.997 C 135.971 975 135.951 975 135.931 975 L 135.931 975 Z" id="path5531" clip-rule="evenodd"/></clipPath><clipPath id="clipPath5537"><path d=" M 116 936 L 156 936 L 156 975 L 116 975 Z" id="path5535"/></clipPath></defs><g id="g5511" transform="matrix(1.33333,0,0,-1.33333,-154.668,1300)"><g id="g5513" clip-path="url(#clipPath5517)"><g id="g5519" clip-path="url(#clipPath5523)"><g id="g5525"></g><g id="g5551"><g id="g5549" clip-path="url(#clipPath5529)"><g id="g5539"></g><g id="g5547"><g id="g5545" clip-path="url(#clipPath5533)"><g id="g5543" clip-path="url(#clipPath5537)"><path d=" M 111 931.134 L 160.878 931.134 L 160.878 980 L 111 980 Z" id="path5541" stroke="none" fill="#65BB9F" fill-rule="nonzero" fill-opacity="1"/></g></g></g></g></g></g></g></g></svg>