<?xml version="1.0" encoding="UTF-8" standalone="no"?>
<!-- Created with Inkscape (http://www.inkscape.org/) -->

<svg
   xmlns:dc="http://purl.org/dc/elements/1.1/"
   xmlns:cc="http://creativecommons.org/ns#"
   xmlns:rdf="http://www.w3.org/1999/02/22-rdf-syntax-ns#"
   xmlns:svg="http://www.w3.org/2000/svg"
   xmlns="http://www.w3.org/2000/svg"
   xmlns:sodipodi="http://sodipodi.sourceforge.net/DTD/sodipodi-0.dtd"
   xmlns:inkscape="http://www.inkscape.org/namespaces/inkscape"
   width="7.3993726mm"
   height="7.3869901mm"
   viewBox="0 0 7.3993726 7.3869901"
   version="1.1"
   id="svg4129"
   inkscape:version="0.92.3 (unknown)"
   sodipodi:docname="information.svg">
  <defs
     id="defs4123">
    <clipPath
       clipPathUnits="userSpaceOnUse"
       id="clipPath2216">
      <path
         d="m 576.3702,784.8346 c -0.3563,0 -0.6454,-0.2887 -0.6454,-0.6443 v -5.4765 c 0,-0.3557 0.2891,-0.6443 0.6454,-0.6443 0.3562,0 0.6453,0.2886 0.6453,0.6443 v 5.4765 c 0,0.3559 -0.2891,0.6443 -0.6453,0.6443"
         id="path2214"
         inkscape:connector-curvature="0"
         style="clip-rule:evenodd" />
    </clipPath>
    <clipPath
       clipPathUnits="userSpaceOnUse"
       id="clipPath2222">
      <path
         d="M 0,0 H 1280 V 2905 H 0 Z"
         id="path2220"
         inkscape:connector-curvature="0" />
    </clipPath>
    <clipPath
       clipPathUnits="userSpaceOnUse"
       id="clipPath2200">
      <path
         d="m 576.6545,788.7473 c 0.5961,0 1.0793,-0.4824 1.0793,-1.0775 0,-0.5952 -0.4832,-1.0776 -1.0793,-1.0776 -0.5962,0 -1.0794,0.4824 -1.0794,1.0776 0,0.5951 0.4832,1.0775 1.0794,1.0775"
         id="path2198"
         inkscape:connector-curvature="0"
         style="clip-rule:evenodd" />
    </clipPath>
    <clipPath
       clipPathUnits="userSpaceOnUse"
       id="clipPath2206">
      <path
         d="M 0,0 H 1280 V 2905 H 0 Z"
         id="path2204"
         inkscape:connector-curvature="0" />
    </clipPath>
    <clipPath
       clipPathUnits="userSpaceOnUse"
       id="clipPath2158">
      <path
         d="M 586.9746,793.9648 V 773.0253 H 566 v 20.9395 z"
         id="path2156"
         inkscape:connector-curvature="0"
         style="clip-rule:evenodd" />
    </clipPath>
    <clipPath
       clipPathUnits="userSpaceOnUse"
       id="clipPath2164">
      <path
         d="M 0,0 H 1280 V 2905 H 0 Z"
         id="path2162"
         inkscape:connector-curvature="0" />
    </clipPath>
    <clipPath
       clipPathUnits="userSpaceOnUse"
       id="clipPath2170">
      <path
         d="m 566,773 h 21 v 21 h -21 z"
         id="path2168"
         inkscape:connector-curvature="0" />
    </clipPath>
    <clipPath
       clipPathUnits="userSpaceOnUse"
       id="clipPath2174">
      <path
         d="m 576.4873,774.3139 c -5.071,0 -9.1966,4.1187 -9.1966,9.1812 0,5.0625 4.1256,9.1812 9.1966,9.1812 5.071,0 9.1966,-4.1187 9.1966,-9.1812 0,-5.0625 -4.1256,-9.1812 -9.1966,-9.1812 m 0,19.6509 c -5.7825,0 -10.4873,-4.6966 -10.4873,-10.4697 0,-5.7732 4.7048,-10.4698 10.4873,-10.4698 5.7825,0 10.4873,4.6966 10.4873,10.4698 0,5.7731 -4.7048,10.4697 -10.4873,10.4697"
         id="path2172"
         inkscape:connector-curvature="0"
         style="clip-rule:evenodd" />
    </clipPath>
    <clipPath
       clipPathUnits="userSpaceOnUse"
       id="clipPath2178">
      <path
         d="m 566,773 h 21 v 21 h -21 z"
         id="path2176"
         inkscape:connector-curvature="0" />
    </clipPath>
  </defs>
  <sodipodi:namedview
     id="base"
     pagecolor="#ffffff"
     bordercolor="#666666"
     borderopacity="1.0"
     inkscape:pageopacity="0.0"
     inkscape:pageshadow="2"
     inkscape:zoom="0.35"
     inkscape:cx="738.26878"
     inkscape:cy="-183.18317"
     inkscape:document-units="mm"
     inkscape:current-layer="layer1"
     showgrid="false"
     inkscape:window-width="1301"
     inkscape:window-height="744"
     inkscape:window-x="65"
     inkscape:window-y="24"
     inkscape:window-maximized="1" />
  <metadata
     id="metadata4126">
    <rdf:RDF>
      <cc:Work
         rdf:about="">
        <dc:format>image/svg+xml</dc:format>
        <dc:type
           rdf:resource="http://purl.org/dc/dcmitype/StillImage" />
        <dc:title></dc:title>
      </cc:Work>
    </rdf:RDF>
  </metadata>
  <g
     inkscape:label="Calque 1"
     inkscape:groupmode="layer"
     id="layer1"
     transform="translate(117.09254,-92.979128)">
    <g
       transform="matrix(0.35277777,0,0,-0.35277777,-316.76476,373.07226)"
       id="g2152">
      <g
         id="g2154"
         clip-path="url(#clipPath2158)">
        <g
           id="g2160"
           clip-path="url(#clipPath2164)">
          <g
             id="g2166" />
          <g
             id="g2192">
            <g
               clip-path="url(#clipPath2170)"
               id="g2190">
              <g
                 id="g2180" />
              <g
                 id="g2188">
                <g
                   clip-path="url(#clipPath2174)"
                   id="g2186">
                  <g
                     clip-path="url(#clipPath2178)"
                     id="g2184">
                    <path
                       d="m 561,768.0253 h 30.97463 v 30.9395 H 561 Z"
                       style="fill:#ffffff;fill-opacity:1;fill-rule:nonzero;stroke:none"
                       id="path2182"
                       inkscape:connector-curvature="0" />
                  </g>
                </g>
              </g>
            </g>
          </g>
        </g>
      </g>
    </g>
    <g
       transform="matrix(0.35277777,0,0,-0.35277777,-316.76476,373.07226)"
       id="g2194">
      <g
         id="g2196"
         clip-path="url(#clipPath2200)">
        <g
           id="g2202"
           clip-path="url(#clipPath2206)">
          <path
             d="m 570.5751,781.5922 h 12.15877 v 12.15516 H 570.5751 Z"
             style="fill:#ffffff;fill-opacity:1;fill-rule:nonzero;stroke:none"
             id="path2208"
             inkscape:connector-curvature="0" />
        </g>
      </g>
    </g>
    <g
       transform="matrix(0.35277777,0,0,-0.35277777,-316.76476,373.07226)"
       id="g2210">
      <g
         id="g2212"
         clip-path="url(#clipPath2216)">
        <g
           id="g2218"
           clip-path="url(#clipPath2222)">
          <path
             d="m 570.7248,773.0695 h 11.29072 v 16.76506 H 570.7248 Z"
             style="fill:#ffffff;fill-opacity:1;fill-rule:nonzero;stroke:none"
             id="path2224"
             inkscape:connector-curvature="0" />
        </g>
      </g>
    </g>
  </g>
</svg>
