<svg version="1.1" width="103.547" height="47.724" xmlns="http://www.w3.org/2000/svg" xmlns:xlink="http://www.w3.org/1999/xlink" id="svg3430" overflow="hidden"><defs id="defs3434"><clipPath id="clipPath1972"><path d=" M 631.66 1371.21 L 631.66 1407 L 554 1407 L 554 1371.21 Z" id="path1970" clip-rule="evenodd"/></clipPath><clipPath id="clipPath1978"><path d=" M 0 0 L 1280 0 L 1280 3552 L 0 3552 Z" id="path1976"/></clipPath><clipPath id="clipPath1984"><path d=" M 553 1371 L 632 1371 L 632 1408 L 553 1408 Z" id="path1982"/></clipPath><clipPath id="clipPath1988"><path d=" M 605.187 1384.48 C 566.653 1384.48 557.274 1371.21 557.274 1371.21 C 577.424 1381.16 596.714 1380.73 607.772 1380.15 C 606.678 1381.15 605.66 1383.35 605.187 1384.48 Z M 609.111 1384.33 L 609.323 1384.41 C 609.186 1384.41 609.051 1384.42 608.918 1384.43 Z M 626.795 1380.46 C 626.416 1382.58 623.642 1382.95 623.642 1382.95 C 619.03 1383.69 614.773 1384.14 610.844 1384.34 C 611.529 1383.61 612.865 1382.3 613.682 1382.21 C 614.818 1382.08 614.628 1381.46 614.628 1381.46 C 614.628 1381.42 614.62 1380.54 613.895 1379.66 C 620.555 1378.94 624.903 1377.87 624.903 1377.87 C 624.903 1377.87 627.173 1378.35 626.795 1380.46 Z M 613.16 1391.72 C 614.25 1392.1 615.144 1392.61 615.844 1393.27 C 616.542 1393.92 617.065 1394.57 617.41 1395.2 C 617.756 1395.84 617.932 1396.39 617.942 1396.86 C 617.951 1397.32 617.792 1397.57 617.465 1397.58 C 616.974 1397.6 616.357 1397.14 615.611 1396.19 C 614.867 1395.24 614.122 1393.93 613.378 1392.26 C 613.286 1392.06 613.214 1391.88 613.16 1391.72 Z M 623.24 1391.72 C 624.331 1392.1 625.225 1392.61 625.925 1393.27 C 626.624 1393.92 627.146 1394.57 627.492 1395.2 C 627.836 1395.84 628.013 1396.39 628.023 1396.86 C 628.032 1397.32 627.873 1397.57 627.545 1397.58 C 627.055 1397.6 626.438 1397.14 625.693 1396.19 C 624.948 1395.24 624.203 1393.93 623.459 1392.26 C 623.368 1392.06 623.295 1391.88 623.24 1391.72 Z M 631.605 1393.36 C 631.296 1392.72 630.929 1392.04 630.502 1391.33 C 630.075 1390.62 629.594 1389.93 629.058 1389.26 C 628.522 1388.59 627.955 1387.97 627.355 1387.41 C 626.756 1386.84 626.133 1386.38 625.488 1386.02 C 624.844 1385.66 624.185 1385.43 623.513 1385.32 C 622.841 1385.21 622.179 1385.3 621.524 1385.56 C 620.798 1385.85 620.275 1386.27 619.958 1386.81 C 619.64 1387.36 619.454 1387.97 619.399 1388.63 C 619.366 1389.03 619.378 1389.44 619.426 1389.86 C 619.277 1389.66 619.134 1389.46 618.977 1389.26 C 618.441 1388.59 617.874 1387.97 617.274 1387.41 C 616.674 1386.84 616.052 1386.38 615.408 1386.02 C 614.763 1385.66 614.104 1385.43 613.432 1385.32 C 612.761 1385.21 612.098 1385.3 611.443 1385.56 C 610.717 1385.85 610.195 1386.27 609.876 1386.81 C 609.559 1387.36 609.373 1387.97 609.318 1388.63 C 609.264 1389.29 609.318 1389.98 609.482 1390.69 C 609.645 1391.4 609.845 1392.05 610.081 1392.64 C 610.517 1393.73 611.003 1394.66 611.538 1395.42 C 612.075 1396.18 612.642 1396.81 613.242 1397.29 C 613.841 1397.77 614.458 1398.13 615.094 1398.36 C 615.73 1398.6 616.375 1398.71 617.029 1398.71 C 617.7 1398.71 618.195 1398.55 618.513 1398.23 C 618.831 1397.91 618.99 1397.49 618.99 1396.97 C 618.99 1396.45 618.845 1395.87 618.555 1395.25 C 618.264 1394.62 617.851 1394 617.315 1393.4 C 616.779 1392.8 616.13 1392.26 615.367 1391.76 C 614.604 1391.27 613.75 1390.9 612.805 1390.65 C 612.678 1390.18 612.588 1389.72 612.534 1389.26 C 612.479 1388.8 612.469 1388.39 612.506 1388.01 C 612.542 1387.64 612.629 1387.32 612.765 1387.07 C 612.901 1386.82 613.106 1386.67 613.378 1386.61 C 613.778 1386.54 614.208 1386.6 614.672 1386.79 C 615.135 1386.98 615.607 1387.26 616.088 1387.64 C 616.57 1388.01 617.042 1388.45 617.506 1388.95 C 617.969 1389.45 618.405 1389.98 618.814 1390.54 C 619.222 1391.09 619.585 1391.65 619.904 1392.19 C 620.018 1392.39 620.121 1392.58 620.219 1392.77 C 620.639 1393.8 621.107 1394.69 621.621 1395.42 C 622.155 1396.18 622.723 1396.81 623.323 1397.29 C 623.923 1397.77 624.54 1398.13 625.176 1398.36 C 625.811 1398.6 626.456 1398.71 627.11 1398.71 C 627.782 1398.71 628.277 1398.55 628.594 1398.23 C 628.912 1397.91 629.072 1397.49 629.072 1396.97 C 629.072 1396.45 628.926 1395.87 628.636 1395.25 C 628.346 1394.62 627.931 1394 627.397 1393.4 C 626.861 1392.8 626.21 1392.26 625.448 1391.76 C 624.685 1391.27 623.831 1390.9 622.887 1390.65 C 622.759 1390.18 622.669 1389.72 622.614 1389.26 C 622.56 1388.8 622.55 1388.39 622.587 1388.01 C 622.623 1387.64 622.709 1387.32 622.846 1387.07 C 622.982 1386.82 623.187 1386.67 623.459 1386.61 C 623.858 1386.54 624.289 1386.6 624.753 1386.79 C 625.216 1386.98 625.688 1387.26 626.17 1387.64 C 626.651 1388.01 627.123 1388.45 627.587 1388.95 C 628.05 1389.45 628.486 1389.98 628.894 1390.54 C 629.303 1391.09 629.667 1391.65 629.985 1392.19 C 630.302 1392.74 630.552 1393.25 630.734 1393.71 C 630.788 1393.86 630.883 1393.95 631.019 1394.01 C 631.156 1394.06 631.296 1394.04 631.442 1393.95 C 631.66 1393.81 631.715 1393.61 631.605 1393.36 Z M 613.569 1381.69 C 612.97 1381.71 612.356 1381.96 611.73 1382.46 C 611.103 1382.95 610.476 1383.58 609.849 1384.35 C 609.223 1385.12 608.619 1385.97 608.038 1386.91 C 607.456 1387.84 606.911 1388.76 606.403 1389.67 C 605.895 1390.57 605.436 1391.4 605.027 1392.15 C 604.618 1392.91 604.278 1393.49 604.006 1393.9 C 604.587 1394.13 605.195 1394.39 605.831 1394.68 C 606.467 1394.97 607.075 1395.27 607.656 1395.59 C 608.237 1395.92 608.76 1396.26 609.223 1396.62 C 609.687 1396.97 610.027 1397.34 610.245 1397.72 C 610.536 1398.2 610.617 1398.65 610.49 1399.05 C 610.363 1399.45 610.163 1399.79 609.891 1400.05 C 609.618 1400.31 609.346 1400.47 609.074 1400.54 C 608.801 1400.61 608.665 1400.57 608.665 1400.41 C 608.665 1400.25 608.556 1400.03 608.338 1399.75 C 608.12 1399.47 607.833 1399.16 607.479 1398.82 C 607.126 1398.48 606.72 1398.11 606.267 1397.71 C 605.813 1397.3 605.345 1396.9 604.864 1396.51 C 604.382 1396.11 603.905 1395.73 603.434 1395.37 C 602.96 1395 602.534 1394.66 602.153 1394.36 C 602.716 1395.52 603.274 1396.7 603.828 1397.88 C 604.382 1399.06 604.869 1400.17 605.285 1401.2 C 605.704 1402.23 606.022 1403.14 606.24 1403.93 C 606.458 1404.72 606.512 1405.3 606.403 1405.68 C 606.24 1406.22 605.968 1406.58 605.586 1406.76 C 605.205 1406.94 604.827 1407.02 604.455 1407 C 604.083 1406.98 603.774 1406.9 603.529 1406.76 C 603.283 1406.61 603.224 1406.49 603.352 1406.38 C 603.461 1406.27 603.434 1405.94 603.27 1405.38 C 603.106 1404.83 602.852 1404.13 602.507 1403.29 C 602.162 1402.44 601.758 1401.49 601.294 1400.42 C 600.831 1399.35 600.35 1398.26 599.851 1397.13 C 599.351 1396 598.864 1394.88 598.393 1393.77 C 598.274 1393.49 598.159 1393.21 598.047 1392.94 C 597.927 1392.7 597.793 1392.45 597.643 1392.19 C 597.325 1391.65 596.963 1391.09 596.554 1390.54 C 596.145 1389.98 595.709 1389.45 595.246 1388.95 C 594.783 1388.45 594.311 1388.01 593.83 1387.64 C 593.348 1387.26 592.876 1386.98 592.412 1386.79 C 591.95 1386.6 591.518 1386.54 591.118 1386.61 C 590.773 1386.68 590.537 1386.92 590.41 1387.32 C 590.283 1387.73 590.233 1388.21 590.26 1388.76 C 590.287 1389.32 590.378 1389.91 590.532 1390.54 C 590.687 1391.17 590.882 1391.74 591.118 1392.26 C 591.5 1393.08 591.881 1393.83 592.263 1394.51 C 592.644 1395.18 593.012 1395.74 593.366 1396.2 C 593.72 1396.66 594.051 1397.01 594.361 1397.25 C 594.669 1397.49 594.951 1397.6 595.205 1397.58 C 595.405 1397.58 595.55 1397.48 595.641 1397.26 C 595.514 1397.17 595.41 1397.06 595.328 1396.94 C 595.246 1396.81 595.205 1396.68 595.205 1396.54 C 595.205 1396.3 595.292 1396.11 595.464 1395.97 C 595.637 1395.83 595.832 1395.76 596.05 1395.76 C 596.304 1395.76 596.503 1395.85 596.649 1396.03 C 596.812 1396.19 596.895 1396.45 596.895 1396.81 C 596.895 1397.16 596.822 1397.46 596.677 1397.71 C 596.531 1397.95 596.354 1398.14 596.145 1398.28 C 595.936 1398.43 595.709 1398.53 595.464 1398.59 C 595.219 1398.66 594.987 1398.7 594.769 1398.71 C 594.115 1398.73 593.471 1398.63 592.835 1398.42 C 592.199 1398.2 591.581 1397.85 590.982 1397.36 C 590.383 1396.86 589.815 1396.23 589.279 1395.45 C 588.968 1394.99 588.675 1394.48 588.397 1393.92 C 588.327 1393.87 588.267 1393.81 588.23 1393.71 C 588.121 1393.41 587.94 1393.02 587.685 1392.56 C 587.431 1392.09 587.141 1391.6 586.813 1391.08 C 586.487 1390.56 586.141 1390.04 585.778 1389.52 C 585.415 1389 585.06 1388.53 584.716 1388.1 C 584.37 1387.68 584.057 1387.34 583.776 1387.07 C 583.494 1386.8 583.262 1386.66 583.081 1386.64 C 582.662 1386.6 582.477 1386.77 582.522 1387.14 C 582.567 1387.51 582.74 1388 583.04 1388.62 C 583.34 1389.23 583.711 1389.94 584.157 1390.73 C 584.602 1391.52 585.019 1392.31 585.411 1393.12 C 585.8 1393.93 586.105 1394.7 586.323 1395.45 C 586.541 1396.19 586.568 1396.82 586.405 1397.34 C 586.241 1397.88 585.964 1398.24 585.574 1398.42 C 585.183 1398.6 584.806 1398.68 584.443 1398.66 C 584.08 1398.64 583.776 1398.56 583.53 1398.42 C 583.285 1398.28 583.226 1398.15 583.353 1398.04 C 583.48 1397.92 583.503 1397.68 583.422 1397.34 C 583.34 1397 583.194 1396.58 582.986 1396.08 C 582.776 1395.58 582.531 1395.02 582.25 1394.4 C 582.024 1393.9 581.803 1393.39 581.584 1392.87 C 581.533 1392.77 581.478 1392.67 581.419 1392.56 C 581.164 1392.09 580.874 1391.6 580.547 1391.08 C 580.22 1390.56 579.874 1390.04 579.511 1389.52 C 579.148 1389 578.794 1388.53 578.449 1388.1 C 578.104 1387.68 577.79 1387.34 577.509 1387.07 C 577.227 1386.8 576.996 1386.66 576.814 1386.64 C 576.505 1386.6 576.373 1386.81 576.419 1387.26 C 576.464 1387.71 576.637 1388.31 576.937 1389.07 C 577.236 1389.83 577.627 1390.72 578.109 1391.74 C 578.589 1392.75 579.098 1393.8 579.635 1394.9 C 580.17 1395.99 580.701 1397.1 581.228 1398.22 C 581.755 1399.34 582.213 1400.38 582.604 1401.35 C 582.994 1402.32 583.29 1403.18 583.489 1403.94 C 583.69 1404.71 583.725 1405.29 583.599 1405.68 C 583.436 1406.22 583.158 1406.58 582.768 1406.76 C 582.377 1406.94 582 1407.02 581.637 1407 C 581.273 1406.98 580.97 1406.9 580.724 1406.76 C 580.48 1406.61 580.42 1406.49 580.547 1406.38 C 580.674 1406.25 580.61 1405.81 580.356 1405.06 C 580.102 1404.31 579.743 1403.37 579.28 1402.25 C 578.817 1401.13 578.294 1399.9 577.713 1398.57 C 577.132 1397.23 576.578 1395.92 576.051 1394.64 C 575.822 1394.08 575.609 1393.55 575.407 1393.03 C 574.816 1391.91 574.202 1390.83 573.558 1389.8 C 572.859 1388.68 572.141 1387.63 571.406 1386.65 C 570.67 1385.68 569.925 1384.78 569.172 1383.98 C 568.418 1383.17 567.677 1382.47 566.951 1381.88 C 565.988 1381.11 565.085 1380.58 564.24 1380.29 C 563.396 1380.01 562.628 1379.92 561.938 1380.04 C 561.247 1380.15 560.647 1380.46 560.14 1380.95 C 559.63 1381.44 559.245 1382.08 558.981 1382.86 C 558.718 1383.64 558.586 1384.54 558.586 1385.56 C 558.586 1386.58 558.75 1387.69 559.077 1388.87 C 559.24 1389.48 559.463 1390.18 559.745 1390.97 C 560.026 1391.76 560.353 1392.58 560.725 1393.43 C 561.097 1394.28 561.52 1395.14 561.992 1396.01 C 562.464 1396.88 562.973 1397.69 563.518 1398.45 C 564.245 1399.45 564.971 1400.33 565.698 1401.08 C 566.424 1401.83 567.101 1402.43 567.727 1402.87 C 568.354 1403.31 568.894 1403.57 569.349 1403.65 C 569.803 1403.73 570.129 1403.6 570.33 1403.26 C 570.548 1402.85 570.647 1402.32 570.629 1401.69 C 570.611 1401.05 570.493 1400.39 570.275 1399.71 C 570.057 1399.03 569.752 1398.37 569.362 1397.75 C 568.971 1397.12 568.522 1396.61 568.014 1396.21 C 567.741 1396 567.687 1395.75 567.85 1395.47 C 568.014 1395.2 568.273 1394.95 568.627 1394.75 C 568.981 1394.54 569.367 1394.41 569.784 1394.34 C 570.202 1394.28 570.538 1394.36 570.793 1394.57 C 571.592 1395.27 572.169 1396.1 572.523 1397.06 C 572.877 1398.02 573.054 1398.97 573.054 1399.91 C 573.054 1400.85 572.9 1401.73 572.591 1402.55 C 572.282 1403.36 571.873 1403.99 571.365 1404.42 C 570.711 1404.97 570.002 1405.3 569.24 1405.41 C 568.477 1405.52 567.727 1405.49 566.992 1405.33 C 566.256 1405.17 565.575 1404.93 564.948 1404.6 C 564.322 1404.28 563.818 1403.96 563.436 1403.64 C 562.273 1402.67 561.238 1401.66 560.331 1400.61 C 559.422 1399.56 558.609 1398.45 557.891 1397.28 C 557.174 1396.1 556.543 1394.84 555.998 1393.48 C 555.453 1392.13 554.953 1390.66 554.5 1389.09 C 554.246 1388.17 554.087 1387.22 554.023 1386.24 C 553.959 1385.25 554.027 1384.3 554.227 1383.4 C 554.427 1382.49 554.772 1381.66 555.262 1380.88 C 555.753 1380.11 556.416 1379.48 557.251 1379 C 557.723 1378.7 558.241 1378.47 558.804 1378.33 C 559.368 1378.19 559.94 1378.11 560.521 1378.11 C 561.011 1378.11 561.515 1378.16 562.034 1378.25 C 562.551 1378.34 563.045 1378.48 563.518 1378.68 C 564.862 1379.16 566.224 1379.95 567.605 1381.05 C 569.076 1382.23 570.511 1383.73 571.91 1385.54 C 572.291 1386.02 572.681 1386.55 573.081 1387.14 C 573.388 1387.58 573.696 1388.05 574.004 1388.54 C 573.957 1388.08 573.956 1387.65 574.008 1387.24 C 574.062 1386.82 574.171 1386.46 574.335 1386.17 C 574.498 1385.87 574.712 1385.64 574.975 1385.48 C 575.239 1385.32 575.552 1385.25 575.916 1385.27 C 576.351 1385.27 576.805 1385.43 577.277 1385.75 C 577.75 1386.07 578.218 1386.49 578.68 1386.99 C 579.144 1387.49 579.593 1388.05 580.03 1388.66 C 580.143 1388.81 580.248 1388.97 580.357 1389.13 C 580.324 1388.95 580.296 1388.78 580.274 1388.6 C 580.22 1388.12 580.22 1387.67 580.274 1387.24 C 580.329 1386.82 580.438 1386.46 580.601 1386.17 C 580.765 1385.87 580.979 1385.64 581.242 1385.48 C 581.505 1385.32 581.818 1385.25 582.182 1385.27 C 582.617 1385.27 583.071 1385.43 583.544 1385.75 C 584.016 1386.07 584.484 1386.49 584.947 1386.99 C 585.411 1387.49 585.86 1388.05 586.296 1388.66 C 586.571 1389.04 586.828 1389.42 587.078 1389.8 C 587.036 1389.41 587.027 1389.02 587.059 1388.64 C 587.113 1387.99 587.299 1387.38 587.617 1386.83 C 587.935 1386.27 588.457 1385.85 589.184 1385.56 C 589.838 1385.3 590.505 1385.21 591.187 1385.32 C 591.867 1385.43 592.53 1385.67 593.175 1386.03 C 593.82 1386.4 594.447 1386.88 595.055 1387.46 C 595.627 1388.01 596.16 1388.59 596.661 1389.21 C 596.543 1388.83 596.442 1388.47 596.363 1388.15 C 596.191 1387.43 596.158 1386.91 596.267 1386.58 C 596.431 1386.05 596.671 1385.68 596.989 1385.48 C 597.307 1385.29 597.616 1385.19 597.916 1385.2 C 598.215 1385.21 598.46 1385.29 598.651 1385.44 C 598.842 1385.59 598.901 1385.74 598.829 1385.89 C 598.737 1386.05 598.742 1386.33 598.842 1386.75 C 598.942 1387.16 599.105 1387.66 599.333 1388.25 C 599.56 1388.84 599.841 1389.51 600.177 1390.26 C 600.514 1391 600.881 1391.79 601.281 1392.61 C 601.408 1392.7 601.567 1392.79 601.758 1392.89 C 601.948 1392.99 602.17 1393.1 602.425 1393.23 C 602.733 1393.12 603.038 1392.71 603.338 1392.01 C 603.638 1391.3 603.964 1390.43 604.319 1389.41 C 604.673 1388.39 605.064 1387.3 605.49 1386.14 C 605.917 1384.99 606.398 1383.91 606.934 1382.91 C 607.47 1381.92 608.074 1381.09 608.746 1380.43 C 609.418 1379.76 610.181 1379.42 611.035 1379.41 C 611.598 1379.39 612.08 1379.5 612.479 1379.74 C 612.878 1379.98 613.187 1380.25 613.406 1380.54 C 613.623 1380.82 613.746 1381.09 613.773 1381.33 C 613.8 1381.57 613.732 1381.69 613.569 1381.69 Z M 584.824 1400.66 C 584.534 1400.96 584.389 1401.33 584.389 1401.78 C 584.389 1401.91 584.443 1402.07 584.552 1402.28 C 584.661 1402.48 584.784 1402.7 584.92 1402.94 C 585.056 1403.17 585.179 1403.39 585.288 1403.58 C 585.396 1403.78 585.451 1403.93 585.451 1404.04 C 585.451 1404.17 585.588 1404.23 585.86 1404.23 C 586.132 1404.23 586.436 1404.16 586.773 1404.01 C 587.109 1403.87 587.413 1403.65 587.685 1403.37 C 587.958 1403.08 588.094 1402.71 588.094 1402.27 C 588.094 1402.16 588.044 1402 587.944 1401.81 C 587.844 1401.61 587.735 1401.4 587.618 1401.19 C 587.499 1400.97 587.39 1400.76 587.291 1400.54 C 587.19 1400.33 587.141 1400.16 587.141 1400.03 C 587.141 1399.89 586.995 1399.82 586.704 1399.82 C 586.414 1399.82 586.101 1399.89 585.764 1400.02 C 585.428 1400.15 585.115 1400.37 584.824 1400.66 Z" id="path1986" clip-rule="evenodd"/></clipPath><clipPath id="clipPath1992"><path d=" M 554 1371 L 632 1371 L 632 1407 L 554 1407 Z" id="path1990"/></clipPath></defs><g id="g1966" transform="matrix(1.33333,0,0,-1.33333,-738.667,1876)"><g id="g1968" clip-path="url(#clipPath1972)"><g id="g1974" clip-path="url(#clipPath1978)"><g id="g1980"></g><g id="g2006"><g id="g2004" clip-path="url(#clipPath1984)"><g id="g1994"></g><g id="g2002"><g id="g2000" clip-path="url(#clipPath1988)"><g id="g1998" clip-path="url(#clipPath1992)"><path d=" M 549 1366.21 L 636.66 1366.21 L 636.66 1412 L 549 1412 Z" id="path1996" stroke="none" fill="#054651" fill-rule="nonzero" fill-opacity="1"/></g></g></g></g></g></g></g></g></svg>