<svg version="1.1" width="33.0899" height="33.0017" xmlns="http://www.w3.org/2000/svg" xmlns:xlink="http://www.w3.org/1999/xlink" id="svg4557" overflow="hidden"><defs id="defs4561"></defs><path d=" M 26.1956 28.5532 L 21.8092 24.1749 L 21.2802 24.4937 C 20.1914 25.1498 18.6048 25.8175 17.314 26.1628 C 15.463 26.6579 12.3837 26.6874 10.5414 26.2277 C 7.83883 25.5533 5.811 24.3981 3.84582 22.4136 C 1.89599 20.4446 0.779444 18.3932 0.261593 15.8283 C -0.0600033 14.2355 0.0403772 11.2689 0.463601 9.85829 C 1.86311 5.19371 5.53329 1.70321 10.3695 0.437359 C 11.5718 0.122658 12.0633 0.0701468 13.8067 0.0701468 C 15.5369 0.0701468 16.0445 0.123572 17.2026 0.427574 C 22.6187 1.84928 26.5832 6.04262 27.4209 11.236 C 27.6361 12.57 27.5245 15.2991 27.205 16.5172 C 26.8767 17.7687 25.76 20.0606 24.9835 21.0767 L 24.3402 21.9185 L 28.5285 26.1273 C 30.8321 28.4422 32.7866 30.474 32.8718 30.6426 C 33.2303 31.3509 32.9019 32.3505 32.1897 32.7187 C 31.9634 32.8358 31.5091 32.9316 31.1801 32.9316 C 30.5827 32.9316 30.5773 32.9268 26.1956 28.5532 Z M 16.5424 22.9004 C 20.085 21.9439 22.8973 19.1482 23.7771 15.7082 C 24.1094 14.4089 24.1328 12.3359 23.8298 11.0457 C 23.1214 8.02979 20.7153 5.31992 17.6679 4.10596 C 12.5577 2.07027 6.69232 4.3492 4.40302 9.25987 C 3.51656 11.1614 3.26916 13.556 3.752 15.5611 C 4.65256 19.3008 7.74292 22.2119 11.7023 23.0501 C 12.8472 23.2925 15.3803 23.2142 16.5424 22.9004 Z" id="path4507" stroke="#A05A2C" stroke-width="0.140294" fill="#044651" fill-opacity="1"/></svg>