<svg version="1.1" width="49.1967" height="43.9533" xmlns="http://www.w3.org/2000/svg" xmlns:xlink="http://www.w3.org/1999/xlink" id="svg8993" overflow="hidden"><defs id="defs8997"><clipPath id="clipPath5637"><path d=" M 116 1000.03 L 152.898 1000.03 L 152.898 1033 L 116 1033 Z" id="path5635" clip-rule="evenodd"/></clipPath><clipPath id="clipPath5643"><path d=" M 0 0 L 1280 0 L 1280 1394 L 0 1394 Z" id="path5641"/></clipPath><clipPath id="clipPath5649"><path d=" M 116 999 L 154 999 L 154 1033 L 116 1033 Z" id="path5647"/></clipPath><clipPath id="clipPath5653"><path d=" M 145.901 1008.91 C 145.549 1008.91 145.265 1008.63 145.265 1008.28 C 145.265 1007.93 145.549 1007.65 145.901 1007.65 C 146.252 1007.65 146.537 1007.93 146.537 1008.28 C 146.537 1008.63 146.252 1008.91 145.901 1008.91 Z M 145.901 1010.18 C 147.093 1010.18 148.063 1009.2 148.063 1007.96 C 148.063 1007.54 147.455 1006.31 146.778 1005.36 C 146.34 1004.74 146.156 1004.54 145.901 1004.24 C 145.646 1004.54 145.46 1004.74 145.021 1005.36 C 144.345 1006.31 143.739 1007.54 143.739 1007.96 C 143.739 1009.2 144.708 1010.18 145.901 1010.18 Z M 137.75 1010.5 C 137.671 1010.5 137.593 1010.47 137.521 1010.44 L 133.811 1008.86 C 133.488 1008.72 133.337 1008.35 133.475 1008.03 C 133.613 1007.71 133.987 1007.56 134.31 1007.69 L 138.021 1009.28 C 138.346 1009.41 138.503 1009.78 138.371 1010.1 C 138.27 1010.35 138.02 1010.51 137.75 1010.5 Z M 145.901 1011.45 C 144.003 1011.45 142.467 1009.87 142.467 1007.96 C 142.467 1006.79 143.26 1005.65 143.982 1004.63 C 144.705 1003.6 145.424 1002.79 145.424 1002.79 C 145.656 1002.53 146.059 1002.5 146.322 1002.73 C 146.342 1002.75 146.361 1002.77 146.378 1002.79 C 146.378 1002.79 147.097 1003.6 147.819 1004.63 C 148.542 1005.65 149.335 1006.79 149.335 1007.96 C 149.335 1009.87 147.799 1011.45 145.901 1011.45 Z M 145.901 1012.72 C 147.366 1012.72 148.83 1012.16 149.952 1011.05 C 152.195 1008.81 152.195 1005.2 149.952 1002.97 C 147.709 1000.73 144.093 1000.74 141.85 1002.97 C 139.607 1005.2 139.607 1008.81 141.85 1011.04 C 142.972 1012.16 144.436 1012.72 145.901 1012.72 L 145.901 1012.72 Z M 145.742 1025.07 L 145.742 1013.98 C 144.002 1013.94 142.275 1013.27 140.951 1011.95 C 139.988 1010.99 139.37 1009.81 139.087 1008.58 L 139.082 1008.58 L 137.521 1007.91 L 133.811 1006.33 C 133.488 1006.2 133.337 1005.82 133.475 1005.5 C 133.613 1005.18 133.987 1005.03 134.31 1005.17 L 138.021 1006.75 L 138.908 1007.13 C 138.895 1006.3 139.032 1005.48 139.31 1004.69 L 132.143 1001.64 L 132.143 1019.28 L 145.742 1025.07 L 145.742 1025.07 Z M 117.272 1025.07 L 121.09 1023.44 L 121.09 1015.25 C 121.09 1014.9 121.375 1014.62 121.726 1014.62 C 121.824 1014.62 121.921 1014.64 122.009 1014.69 L 124.052 1015.7 L 126.251 1012.42 C 126.372 1012.18 126.624 1012.05 126.885 1012.08 C 126.907 1012.08 126.93 1012.09 126.952 1012.09 C 126.959 1012.09 126.965 1012.09 126.972 1012.09 C 126.986 1012.09 127 1012.1 127.014 1012.1 C 127.074 1012.12 127.131 1012.15 127.183 1012.19 C 127.378 1012.32 127.482 1012.55 127.451 1012.79 L 127.451 1020.73 L 130.871 1019.27 L 130.871 1001.63 L 117.272 1007.43 L 117.272 1025.06 L 117.272 1025.06 Z M 141.642 1027.36 L 144.763 1026.03 L 131.507 1020.38 L 128.388 1021.71 L 141.607 1027.34 C 141.618 1027.35 141.63 1027.35 141.641 1027.36 Z M 136.244 1029.66 L 140.029 1028.05 L 126.562 1022.31 C 126.25 1022.19 126.083 1021.85 126.179 1021.53 L 126.179 1014.81 L 124.8 1016.87 C 124.622 1017.14 124.272 1017.23 123.985 1017.09 L 122.362 1016.28 L 122.362 1023.74 Z M 131.507 1031.68 L 134.626 1030.35 L 121.408 1024.72 C 121.395 1024.71 121.383 1024.71 121.37 1024.7 L 118.252 1026.03 L 131.507 1031.68 L 131.507 1031.68 Z M 131.472 1033 L 131.462 1033 C 131.441 1033 131.419 1032.99 131.398 1032.99 C 131.345 1032.98 131.293 1032.96 131.244 1032.94 L 116.532 1026.67 C 116.223 1026.62 115.997 1026.35 116 1026.04 L 116 1007.02 C 116 1007 116.002 1006.97 116.005 1006.95 L 116.005 1006.93 C 116.007 1006.92 116.009 1006.91 116.012 1006.89 C 116.049 1006.68 116.195 1006.5 116.397 1006.41 L 131.243 1000.09 C 131.314 1000.06 131.39 1000.04 131.467 1000.04 C 131.476 1000.04 131.485 1000.04 131.494 1000.04 L 131.497 1000.04 C 131.504 1000.04 131.511 1000.04 131.517 1000.04 C 131.525 1000.04 131.534 1000.04 131.542 1000.04 C 131.555 1000.04 131.569 1000.04 131.582 1000.04 C 131.647 1000.05 131.71 1000.06 131.771 1000.09 L 139.842 1003.53 C 140.142 1003.01 140.507 1002.52 140.951 1002.08 C 143.68 999.356 148.122 999.354 150.852 1002.08 C 153.58 1004.79 153.579 1009.22 150.852 1011.94 C 149.771 1013.02 148.42 1013.66 147.014 1013.88 L 147.014 1026.04 C 147.018 1026.35 146.788 1026.62 146.475 1026.67 L 131.771 1032.94 C 131.718 1032.96 131.661 1032.98 131.604 1032.98 L 131.587 1032.98 C 131.571 1032.98 131.555 1032.98 131.54 1032.98 C 131.517 1032.98 131.495 1032.98 131.472 1032.98 Z" id="path5651" clip-rule="evenodd"/></clipPath><clipPath id="clipPath5657"><path d=" M 116 1000 L 153 1000 L 153 1033 L 116 1033 Z" id="path5655"/></clipPath></defs><g id="g5631" transform="matrix(1.33333,0,0,-1.33333,-154.667,1377.33)"><g id="g5633" clip-path="url(#clipPath5637)"><g id="g5639" clip-path="url(#clipPath5643)"><g id="g5645"></g><g id="g5671"><g id="g5669" clip-path="url(#clipPath5649)"><g id="g5659"></g><g id="g5667"><g id="g5665" clip-path="url(#clipPath5653)"><g id="g5663" clip-path="url(#clipPath5657)"><path d=" M 111 995.035 L 157.898 995.035 L 157.898 1038 L 111 1038 Z" id="path5661" stroke="none" fill="#65BB9F" fill-rule="nonzero" fill-opacity="1"/></g></g></g></g></g></g></g></g></svg>