<svg version="1.1" width="41.1484" height="33.1927" xmlns="http://www.w3.org/2000/svg" xmlns:xlink="http://www.w3.org/1999/xlink" id="svg9128" overflow="hidden"><defs id="defs9132"><clipPath id="clipPath5885"><path d=" M 127.718 824.291 L 122.226 824.291 L 122.226 824.406 C 122.226 825.903 123.456 827.116 124.972 827.116 C 126.489 827.116 127.718 825.903 127.718 824.406 Z M 124.972 828.682 C 122.601 828.682 120.679 826.785 120.679 824.444 L 120.679 824.406 L 120.679 822.764 L 129.265 822.764 L 129.265 824.406 C 129.286 826.746 127.382 828.661 125.011 828.682 C 124.998 828.682 124.985 828.682 124.972 828.682 Z" id="path5883" clip-rule="evenodd"/></clipPath><clipPath id="clipPath5891"><path d=" M 0 0 L 1280 0 L 1280 1394 L 0 1394 Z" id="path5889"/></clipPath><clipPath id="clipPath5869"><path d=" M 124.972 832.615 C 125.549 832.615 126.017 832.153 126.017 831.584 C 126.017 831.014 125.549 830.553 124.972 830.553 C 124.396 830.553 123.928 831.014 123.928 831.584 C 123.928 832.153 124.396 832.615 124.972 832.615 M 124.972 829.064 C 126.403 829.064 127.563 830.209 127.563 831.622 C 127.563 833.035 126.403 834.18 124.972 834.18 C 123.541 834.18 122.381 833.035 122.381 831.622 C 122.381 830.209 123.541 829.064 124.972 829.064" id="path5867" clip-rule="evenodd"/></clipPath><clipPath id="clipPath5875"><path d=" M 0 0 L 1280 0 L 1280 1394 L 0 1394 Z" id="path5873"/></clipPath><clipPath id="clipPath5853"><path d=" M 132.978 828.873 L 137.85 828.873 L 137.85 830.4 L 132.978 830.4 Z" id="path5851" clip-rule="evenodd"/></clipPath><clipPath id="clipPath5859"><path d=" M 0 0 L 1280 0 L 1280 1394 L 0 1394 Z" id="path5857"/></clipPath><clipPath id="clipPath5837"><path d=" M 132.978 824.367 L 141.718 824.367 L 141.718 825.894 L 132.978 825.894 Z" id="path5835" clip-rule="evenodd"/></clipPath><clipPath id="clipPath5843"><path d=" M 0 0 L 1280 0 L 1280 1394 L 0 1394 Z" id="path5841"/></clipPath><clipPath id="clipPath5821"><path d=" M 128.298 843 L 128.298 839.678 L 116 839.678 L 116 818.106 L 146.861 818.106 L 146.861 839.678 L 134.563 839.678 L 134.563 843 Z M 129.845 837.12 L 132.978 837.12 L 132.978 841.473 L 129.845 841.473 Z M 134.563 835.593 L 134.563 838.151 L 145.314 838.151 L 145.314 819.633 L 117.547 819.633 L 117.547 838.151 L 128.298 838.151 L 128.298 835.593 Z" id="path5819" clip-rule="evenodd"/></clipPath><clipPath id="clipPath5827"><path d=" M 0 0 L 1280 0 L 1280 1394 L 0 1394 Z" id="path5825"/></clipPath></defs><g id="g5815" transform="matrix(1.33333,0,0,-1.33333,-154.667,1124)"><g id="g5817" clip-path="url(#clipPath5821)"><g id="g5823" clip-path="url(#clipPath5827)"><path d=" M 111 813.106 L 151.861 813.106 L 151.861 848 L 111 848 Z" id="path5829" stroke="none" fill="#65BB9F" fill-rule="nonzero" fill-opacity="1"/></g></g></g><g id="g5831" transform="matrix(1.33333,0,0,-1.33333,-154.667,1124)"><g id="g5833" clip-path="url(#clipPath5837)"><g id="g5839" clip-path="url(#clipPath5843)"><path d=" M 127.978 819.367 L 146.718 819.367 L 146.718 830.895 L 127.978 830.895 Z" id="path5845" stroke="none" fill="#65BB9F" fill-rule="nonzero" fill-opacity="1"/></g></g></g><g id="g5847" transform="matrix(1.33333,0,0,-1.33333,-154.667,1124)"><g id="g5849" clip-path="url(#clipPath5853)"><g id="g5855" clip-path="url(#clipPath5859)"><path d=" M 127.978 823.873 L 142.85 823.873 L 142.85 835.4 L 127.978 835.4 Z" id="path5861" stroke="none" fill="#65BB9F" fill-rule="nonzero" fill-opacity="1"/></g></g></g><g id="g5863" transform="matrix(1.33333,0,0,-1.33333,-154.667,1124)"><g id="g5865" clip-path="url(#clipPath5869)"><g id="g5871" clip-path="url(#clipPath5875)"><path d=" M 117.381 824.064 L 132.563 824.064 L 132.563 839.18 L 117.381 839.18 Z" id="path5877" stroke="none" fill="#65BB9F" fill-rule="nonzero" fill-opacity="1"/></g></g></g><g id="g5879" transform="matrix(1.33333,0,0,-1.33333,-154.667,1124)"><g id="g5881" clip-path="url(#clipPath5885)"><g id="g5887" clip-path="url(#clipPath5891)"><path d=" M 115.679 817.764 L 134.265 817.764 L 134.265 833.682 L 115.679 833.682 Z" id="path5893" stroke="none" fill="#65BB9F" fill-rule="nonzero" fill-opacity="1"/></g></g></g></svg>