<svg version="1.1" width="114.225" height="109" xmlns="http://www.w3.org/2000/svg" xmlns:xlink="http://www.w3.org/1999/xlink" id="svg2345" overflow="hidden"><defs id="defs2349"><clipPath id="clipPath512"><path d=" M 603 605.207 L 703.998 605.207 L 703.998 701.586 L 603 701.586 Z" id="path510" clip-rule="evenodd"/></clipPath><clipPath id="clipPath518"><path d=" M 0 0 L 1280 0 L 1280 1571 L 0 1571 Z" id="path516"/></clipPath><clipPath id="clipPath524"><path d=" M 602 605 L 705 605 L 705 702 L 602 702 Z" id="path522"/></clipPath><clipPath id="clipPath528"><path d=" M 629.667 639.821 C 629.742 640.464 629.535 641.108 629.095 641.593 L 609.59 662.791 L 637.845 668.517 C 638.48 668.652 639.024 669.055 639.337 669.619 L 653.491 694.803 L 667.641 669.672 C 667.956 669.105 668.5 668.701 669.146 668.563 L 697.393 662.854 L 677.896 641.603 C 677.461 641.124 677.255 640.48 677.33 639.838 L 680.626 611.156 L 654.416 623.182 C 654.123 623.315 653.812 623.382 653.49 623.382 C 653.169 623.382 652.857 623.315 652.56 623.18 L 626.356 611.157 Z M 703.869 665.021 C 703.62 665.782 702.979 666.355 702.193 666.519 L 671.048 672.869 L 655.436 700.485 L 655.405 700.537 C 654.982 701.193 654.262 701.586 653.481 701.586 C 653.04 701.586 652.611 701.458 652.239 701.217 C 651.966 701.041 651.737 700.812 651.56 700.538 L 635.932 672.771 L 604.782 666.421 C 604.196 666.299 603.693 665.955 603.366 665.453 C 603.038 664.951 602.926 664.352 603.048 663.765 C 603.13 663.372 603.317 663.007 603.59 662.708 L 625.064 639.33 L 621.419 607.72 C 621.348 607.125 621.512 606.537 621.881 606.065 C 622.251 605.594 622.782 605.294 623.377 605.223 C 623.466 605.213 623.555 605.207 623.644 605.207 C 623.968 605.207 624.294 605.279 624.582 605.413 L 653.491 618.667 L 682.377 605.432 C 682.675 605.293 682.992 605.223 683.32 605.223 L 683.32 605.223 C 684.189 605.223 684.988 605.733 685.354 606.525 C 685.529 606.903 685.594 607.321 685.546 607.731 L 681.916 639.33 L 703.382 662.747 C 703.967 663.367 704.149 664.25 703.869 665.021 Z" id="path526" clip-rule="evenodd"/></clipPath><clipPath id="clipPath532"><path d=" M 603 605 L 704 605 L 704 702 L 603 702 Z" id="path530"/></clipPath><clipPath id="clipPath554"><path d=" M 653.489 645.471 L 653.101 645.464 C 648.903 645.668 645.55 649.152 645.55 653.406 C 645.55 657.791 649.112 661.358 653.49 661.358 C 657.861 661.358 661.423 657.797 661.431 653.424 C 661.423 649.046 657.86 645.478 653.489 645.471 M 665.913 653.424 C 665.903 660.273 660.332 665.853 653.49 665.863 C 646.64 665.863 641.067 660.282 641.067 653.422 C 641.067 646.562 646.64 640.982 653.49 640.982 C 660.34 640.982 665.913 646.562 665.913 653.424" id="path552" clip-rule="evenodd"/></clipPath><clipPath id="clipPath560"><path d=" M 0 0 L 1280 0 L 1280 1571 L 0 1571 Z" id="path558"/></clipPath></defs><g id="g2264" stroke-width="1.17894" transform="matrix(1.13096,0,0,-1.13096,-681.97,793.466)"><g id="g506" stroke-width="1.17894"><g id="g508" stroke-width="1.17894" clip-path="url(#clipPath512)"><g id="g514" stroke-width="1.17894" clip-path="url(#clipPath518)"><g id="g520" stroke-width="1.17894"></g><g id="g546" stroke-width="1.17894"><g id="g544" stroke-width="1.17894" clip-path="url(#clipPath524)"><g id="g534" stroke-width="1.17894"></g><g id="g542" stroke-width="1.17894"><g id="g540" stroke-width="1.17894" clip-path="url(#clipPath528)"><g id="g538" stroke-width="1.17894" clip-path="url(#clipPath532)"><path d=" M 598 600.207 L 708.998 600.207 L 708.998 706.586 L 598 706.586 Z" id="path536" stroke="none" stroke-width="1.17894" fill="#044651" fill-rule="nonzero" fill-opacity="1"/></g></g></g></g></g></g></g></g><g id="g548" stroke-width="1.17894"><g id="g550" stroke-width="1.17894" clip-path="url(#clipPath554)"><g id="g556" stroke-width="1.17894" clip-path="url(#clipPath560)"><path d=" M 636.067 635.982 L 670.913 635.982 L 670.913 670.864 L 636.067 670.864 Z" id="path562" stroke="none" stroke-width="1.17894" fill="#044651" fill-rule="nonzero" fill-opacity="1"/></g></g></g></g></svg>