<svg version="1.1" width="97.5674" height="109" xmlns="http://www.w3.org/2000/svg" xmlns:xlink="http://www.w3.org/1999/xlink" id="svg2266" overflow="hidden"><defs id="defs2270"><clipPath id="clipPath152"><path d=" M 690.899 1173 L 598 1173 L 598 1069.21 L 690.899 1069.21 Z" id="path150" clip-rule="evenodd"/></clipPath><clipPath id="clipPath158"><path d=" M 0 0 L 1280 0 L 1280 1571 L 0 1571 Z" id="path156"/></clipPath><clipPath id="clipPath164"><path d=" M 596 1069 L 693 1069 L 693 1175 L 596 1175 Z" id="path162"/></clipPath><clipPath id="clipPath168"><path d=" M 604.264 1104.34 L 607.943 1106.77 L 614.248 1097.33 L 610.549 1094.9 C 609.469 1094.19 608.016 1094.48 607.302 1095.56 L 603.602 1101.12 C 602.903 1102.19 603.198 1103.63 604.264 1104.34 Z M 609.782 1117.04 C 610.134 1118.8 611.179 1120.35 612.682 1121.34 L 625.462 1129.78 L 642.329 1104.34 L 629.56 1095.95 C 626.447 1093.86 622.229 1094.69 620.14 1097.8 C 620.127 1097.82 620.115 1097.84 620.102 1097.86 L 610.78 1111.95 C 609.778 1113.44 609.418 1115.28 609.782 1117.04 Z M 643.265 1152.44 L 670.19 1111.92 C 661.919 1112.74 654.626 1111.92 646.743 1107.23 L 629.802 1132.72 C 637.159 1138.17 640.805 1144.53 643.265 1152.44 Z M 642.456 1164.96 C 642.637 1165.85 643.166 1166.63 643.927 1167.13 L 644.021 1167.23 C 645.618 1168.26 647.744 1167.8 648.771 1166.2 C 648.774 1166.19 648.779 1166.19 648.782 1166.19 L 685.071 1111.57 C 686.118 1109.99 685.685 1107.87 684.104 1106.82 L 684.01 1106.76 C 682.428 1105.71 680.297 1106.15 679.249 1107.72 L 642.96 1162.38 C 642.451 1163.14 642.27 1164.07 642.456 1164.96 Z M 657.515 1075.16 C 655.939 1074.11 653.932 1074.26 653.122 1075.46 L 639.429 1096.18 L 645.241 1100.03 L 658.987 1079.31 C 659.796 1078.13 659.145 1076.2 657.515 1075.16 Z M 602.929 1092.6 C 604.039 1090.93 605.776 1089.76 607.753 1089.37 C 608.255 1089.26 608.766 1089.21 609.278 1089.21 C 610.773 1089.21 612.237 1089.65 613.481 1090.48 L 617.369 1093.05 C 619.033 1091.4 621.146 1090.28 623.444 1089.82 C 624.24 1089.66 625.049 1089.57 625.861 1089.58 C 628.221 1089.58 630.529 1090.27 632.493 1091.58 L 635.078 1093.29 L 648.793 1072.57 C 650.266 1070.42 652.729 1069.16 655.34 1069.22 C 657.168 1069.23 658.951 1069.78 660.469 1070.79 C 664.483 1073.44 665.787 1078.57 663.369 1082.21 L 649.707 1102.86 C 657.61 1107.48 664.872 1107.61 674.047 1106.12 L 674.877 1104.87 C 677.526 1100.88 682.919 1099.78 686.921 1102.43 C 686.928 1102.44 686.935 1102.44 686.942 1102.44 L 687.037 1102.5 C 691.016 1105.16 692.096 1110.52 689.454 1114.5 L 653.154 1169.13 C 650.498 1173.11 645.119 1174.2 641.121 1171.56 L 641.026 1171.5 C 637.032 1168.85 635.945 1163.47 638.599 1159.49 L 639.429 1158.24 C 637.001 1148.44 633.733 1141.54 624.936 1135.79 L 609.782 1125.7 C 605.028 1122.56 603.138 1116.52 605.252 1111.23 L 601.364 1108.67 C 597.896 1106.34 596.958 1101.66 599.262 1098.18 Z" id="path166" clip-rule="evenodd"/></clipPath><clipPath id="clipPath172"><path d=" M 598 1069 L 691 1069 L 691 1173 L 598 1173 Z" id="path170"/></clipPath></defs><g id="g146" stroke-width="1.26954" transform="matrix(1.05025,0,0,-1.05025,-628.049,1231.94)"><g id="g148" stroke-width="1.26954" clip-path="url(#clipPath152)"><g id="g154" stroke-width="1.26954" clip-path="url(#clipPath158)"><g id="g160" stroke-width="1.26954"></g><g id="g186" stroke-width="1.26954"><g id="g184" stroke-width="1.26954" clip-path="url(#clipPath164)"><g id="g174" stroke-width="1.26954"></g><g id="g182" stroke-width="1.26954"><g id="g180" stroke-width="1.26954" clip-path="url(#clipPath168)"><g id="g178" stroke-width="1.26954" clip-path="url(#clipPath172)"><path d=" M 593 1064.21 L 695.899 1064.21 L 695.899 1178 L 593 1178 Z" id="path176" stroke="none" stroke-width="1.26954" fill="#044651" fill-rule="nonzero" fill-opacity="1"/></g></g></g></g></g></g></g></g></svg>