<svg version="1.1" width="127.639" height="109" xmlns="http://www.w3.org/2000/svg" xmlns:xlink="http://www.w3.org/1999/xlink" id="svg2295" overflow="hidden"><defs id="defs2299"><clipPath id="clipPath372"><path d=" M 667.472 912.132 C 665.045 914.028 661.516 913.58 659.604 911.133 C 657.693 908.687 658.112 905.154 660.539 903.258 C 662.966 901.362 666.495 901.81 668.407 904.256 C 670.318 906.703 669.899 910.236 667.472 912.132 Z M 658.169 900.225 C 654.083 903.417 653.377 909.365 656.595 913.484 C 659.814 917.603 665.756 918.358 669.842 915.166 C 673.928 911.973 674.634 906.024 671.416 901.905 C 668.198 897.786 662.255 897.032 658.169 900.225 Z M 606.461 873.231 L 644.472 843.533 L 681.091 890.404 L 679.376 916.728 L 669.052 924.795 L 643.08 920.1 Z M 643.606 839.324 L 602.586 871.372 C 601.756 872.022 601.612 873.227 602.267 874.065 L 640.525 923.033 C 640.818 923.408 641.238 923.662 641.704 923.746 L 669.241 928.724 C 669.776 928.82 670.325 928.685 670.751 928.352 L 682.417 919.238 C 682.844 918.904 683.108 918.404 683.143 917.861 L 684.961 889.95 C 684.992 889.477 684.847 889.008 684.554 888.634 L 646.296 839.666 C 645.641 838.828 644.437 838.675 643.606 839.324 Z" id="path370" clip-rule="evenodd"/></clipPath><clipPath id="clipPath378"><path d=" M 0 0 L 1280 0 L 1280 1571 L 0 1571 Z" id="path376"/></clipPath><clipPath id="clipPath388"><path d=" M 662.767 904.566 C 660.788 906.112 660.687 907.252 660.99 908.257 C 661.298 909.274 662.367 909.854 663.379 909.554 C 664.142 909.328 664.654 908.666 664.729 907.919 C 665.894 906.7 672.139 903.397 683.539 900.001 C 685.542 899.405 687.596 898.842 689.645 898.33 C 694.898 897.049 698.676 896.478 701.034 896.312 C 697.144 898.621 689.192 902.239 681.383 904.663 C 680.374 904.976 679.818 906.05 680.138 907.063 C 680.458 908.075 681.535 908.642 682.543 908.33 C 687.726 906.721 693.746 904.326 698.647 901.924 C 705.419 898.606 707.588 896.686 706.94 894.586 C 706.256 892.321 703.248 892.261 700.101 892.535 C 697.129 892.794 693.188 893.51 688.701 894.603 C 686.587 895.132 684.478 895.709 682.422 896.321 C 676.682 898.031 671.379 899.988 667.488 901.832 C 665.289 902.874 663.782 903.773 662.767 904.566" id="path386" clip-rule="evenodd"/></clipPath><clipPath id="clipPath394"><path d=" M 0 0 L 1280 0 L 1280 1571 L 0 1571 Z" id="path392"/></clipPath><clipPath id="clipPath404"><path d=" M 628.914 878.029 C 628.083 878.678 627.94 879.883 628.594 880.721 L 639.473 894.645 C 640.128 895.483 641.332 895.635 642.163 894.986 C 642.994 894.337 643.137 893.132 642.482 892.294 L 631.604 878.37 C 630.949 877.532 629.745 877.38 628.914 878.029" id="path402" clip-rule="evenodd"/></clipPath><clipPath id="clipPath410"><path d=" M 0 0 L 1280 0 L 1280 1571 L 0 1571 Z" id="path408"/></clipPath><clipPath id="clipPath420"><path d=" M 631.519 866.129 C 630.688 866.778 630.545 867.983 631.2 868.821 L 651.65 894.996 C 652.304 895.834 653.509 895.987 654.339 895.338 C 655.17 894.688 655.313 893.483 654.659 892.645 L 634.209 866.47 C 633.554 865.632 632.35 865.48 631.519 866.129" id="path418" clip-rule="evenodd"/></clipPath><clipPath id="clipPath426"><path d=" M 0 0 L 1280 0 L 1280 1571 L 0 1571 Z" id="path424"/></clipPath><clipPath id="clipPath436"><path d=" M 643.696 866.48 C 642.865 867.13 642.721 868.335 643.376 869.172 L 654.255 883.097 C 654.909 883.934 656.113 884.087 656.944 883.438 C 657.775 882.789 657.918 881.583 657.264 880.746 L 646.385 866.822 C 645.731 865.984 644.527 865.831 643.696 866.48" id="path434" clip-rule="evenodd"/></clipPath><clipPath id="clipPath442"><path d=" M 0 0 L 1280 0 L 1280 1571 L 0 1571 Z" id="path440"/></clipPath></defs><g id="g2247" stroke-width="1.09887" transform="matrix(1.21337,0,0,-1.21337,-730.276,1126.93)"><g id="g366" stroke-width="1.09887"><g id="g368" stroke-width="1.09887" clip-path="url(#clipPath372)"><g id="g374" stroke-width="1.09887" clip-path="url(#clipPath378)"><path d=" M 653.701 948.018 L 705.61 907.463 L 645.973 831.13 L 594.064 871.686 Z" id="path380" stroke="none" stroke-width="1.09887" fill="#044651" fill-rule="nonzero" fill-opacity="1"/></g></g></g><g id="g382" stroke-width="1.09887"><g id="g384" stroke-width="1.09887" clip-path="url(#clipPath388)"><g id="g390" stroke-width="1.09887" clip-path="url(#clipPath394)"><path d=" M 671.862 930.507 L 715.153 896.685 L 696.042 872.224 L 652.751 906.046 Z" id="path396" stroke="none" stroke-width="1.09887" fill="#212B51" fill-rule="nonzero" fill-opacity="1"/></g></g></g><g id="g398" stroke-width="1.09887"><g id="g400" stroke-width="1.09887" clip-path="url(#clipPath404)"><g id="g406" stroke-width="1.09887" clip-path="url(#clipPath410)"><path d=" M 639.797 903.18 L 650.686 894.673 L 631.28 869.835 L 620.391 878.343 Z" id="path412" stroke="none" stroke-width="1.09887" fill="#044651" fill-rule="nonzero" fill-opacity="1"/></g></g></g><g id="g414" stroke-width="1.09887"><g id="g416" stroke-width="1.09887" clip-path="url(#clipPath420)"><g id="g422" stroke-width="1.09887" clip-path="url(#clipPath426)"><path d=" M 651.973 903.531 L 662.862 895.024 L 633.885 857.935 L 622.996 866.443 Z" id="path428" stroke="none" stroke-width="1.09887" fill="#044651" fill-rule="nonzero" fill-opacity="1"/></g></g></g><g id="g430" stroke-width="1.09887"><g id="g432" stroke-width="1.09887" clip-path="url(#clipPath436)"><g id="g438" stroke-width="1.09887" clip-path="url(#clipPath442)"><path d=" M 654.578 891.632 L 665.467 883.124 L 646.062 858.286 L 635.173 866.794 Z" id="path444" stroke="none" stroke-width="1.09887" fill="#044651" fill-rule="nonzero" fill-opacity="1"/></g></g></g><path d=" M 931.515 904.281 C 925.682 903.536 912.803 900.505 906.767 898.456 C 891.931 893.421 885.859 890.639 882.813 887.482 C 881.744 886.374 881.487 885.841 881.487 884.733 C 881.487 883.298 882.054 882.453 883.275 882.065 C 884.143 881.789 885.741 882.744 885.987 883.686 C 886.215 884.557 888.916 886.26 892.401 887.729 C 893.951 888.383 896.068 889.312 897.104 889.793 C 899.359 890.839 904.852 892.777 909.241 894.075 C 910.992 894.593 914.014 895.485 915.959 896.057 C 922.194 897.893 935.654 900.327 934.874 899.478 C 933.818 898.328 914.813 890.024 912.121 889.536 C 910.335 889.212 907.715 888.232 907.301 887.733 C 906.586 886.871 907.019 884.692 908.06 883.918 L 908.999 883.22 L 913.186 884.717 C 930.386 890.869 941.611 896.884 942.499 900.424 C 942.801 901.629 941.825 903.27 940.405 903.944 C 939.239 904.497 934.591 904.673 931.515 904.281 Z" id="path2224" stroke-width="1.09887" fill="#044651" fill-opacity="1" transform="matrix(0.75,0,0,-0.75,0,1571)"/></g></svg>