<svg version="1.1" width="27.963" height="29.5707" xmlns="http://www.w3.org/2000/svg" xmlns:xlink="http://www.w3.org/1999/xlink" id="svg3504" overflow="hidden"><defs id="defs3508"><clipPath id="clipPath1858"><path d=" M 1104 856.057 L 1124.97 856.057 L 1124.97 867 L 1104 867 Z" id="path1856" clip-rule="evenodd"/></clipPath><clipPath id="clipPath1864"><path d=" M 0 0 L 1280 0 L 1280 1489 L 0 1489 Z" id="path1862"/></clipPath><clipPath id="clipPath1870"><path d=" M 1104 856 L 1125 856 L 1125 867 L 1104 867 Z" id="path1868"/></clipPath><clipPath id="clipPath1874"><path d=" M 1117.18 862.961 C 1117.07 862.523 1116.67 862.195 1116.19 862.195 C 1115.62 862.195 1115.17 862.643 1115.17 863.195 C 1115.17 863.667 1115.5 864.06 1115.95 864.165 C 1115.51 864.397 1115.02 864.529 1114.49 864.529 C 1112.79 864.529 1111.42 863.186 1111.42 861.528 C 1111.42 859.871 1112.79 858.528 1114.49 858.528 C 1116.18 858.528 1117.55 859.871 1117.55 861.528 C 1117.55 862.047 1117.41 862.536 1117.18 862.961 Z M 1118.68 857.924 C 1119.55 858.887 1120.07 860.149 1120.07 861.529 C 1120.07 862.908 1119.55 864.17 1118.68 865.133 C 1121.22 864.026 1123.06 862.232 1123.71 861.528 C 1123.06 860.825 1121.22 859.031 1118.68 857.924 Z M 1105.26 861.528 C 1105.92 862.232 1107.76 864.026 1110.29 865.134 C 1109.43 864.17 1108.9 862.909 1108.9 861.529 C 1108.9 860.148 1109.43 858.887 1110.29 857.923 C 1107.76 859.031 1105.92 860.825 1105.26 861.528 Z M 1119.11 861.529 C 1119.11 859.031 1117.04 856.998 1114.49 856.998 L 1114.49 856.998 C 1111.94 856.998 1109.86 859.031 1109.86 861.529 C 1109.86 864.027 1111.94 866.059 1114.49 866.059 L 1114.49 866.059 C 1117.04 866.059 1119.11 864.026 1119.11 861.529 Z M 1124.73 861.824 C 1124.56 862.032 1120.52 866.831 1114.78 866.992 C 1114.68 866.997 1114.58 867 1114.49 867 L 1114.49 867 L 1114.49 867 C 1114.48 867 1114.47 867 1114.46 867 C 1114.37 867 1114.28 866.998 1114.19 866.993 C 1108.45 866.832 1104.42 862.032 1104.24 861.825 L 1104 861.529 L 1104.24 861.233 C 1104.42 861.025 1108.45 856.225 1114.19 856.065 C 1114.28 856.06 1114.37 856.059 1114.46 856.058 C 1114.47 856.058 1114.48 856.057 1114.49 856.057 L 1114.49 856.057 L 1114.49 856.057 C 1114.58 856.057 1114.68 856.06 1114.78 856.064 C 1120.52 856.226 1124.56 861.024 1124.73 861.232 L 1124.97 861.528 L 1124.73 861.824 Z" id="path1872" clip-rule="evenodd"/></clipPath><clipPath id="clipPath1878"><path d=" M 1104 856 L 1125 856 L 1125 867 L 1104 867 Z" id="path1876"/></clipPath><clipPath id="clipPath1900"><path d=" M 1104 764.057 L 1124.97 764.057 L 1124.97 775 L 1104 775 Z" id="path1898" clip-rule="evenodd"/></clipPath><clipPath id="clipPath1906"><path d=" M 0 0 L 1280 0 L 1280 1489 L 0 1489 Z" id="path1904"/></clipPath><clipPath id="clipPath1912"><path d=" M 1104 764 L 1125 764 L 1125 775 L 1104 775 Z" id="path1910"/></clipPath><clipPath id="clipPath1916"><path d=" M 1117.18 770.961 C 1117.07 770.523 1116.67 770.195 1116.19 770.195 C 1115.62 770.195 1115.17 770.643 1115.17 771.195 C 1115.17 771.667 1115.5 772.06 1115.95 772.165 C 1115.51 772.397 1115.02 772.529 1114.49 772.529 C 1112.79 772.529 1111.42 771.186 1111.42 769.528 C 1111.42 767.871 1112.79 766.528 1114.49 766.528 C 1116.18 766.528 1117.55 767.871 1117.55 769.528 C 1117.55 770.047 1117.41 770.536 1117.18 770.961 Z M 1118.68 765.924 C 1119.55 766.887 1120.07 768.149 1120.07 769.529 C 1120.07 770.908 1119.55 772.17 1118.68 773.133 C 1121.22 772.026 1123.06 770.232 1123.71 769.528 C 1123.06 768.825 1121.22 767.031 1118.68 765.924 Z M 1105.26 769.528 C 1105.92 770.232 1107.76 772.026 1110.29 773.134 C 1109.43 772.17 1108.9 770.909 1108.9 769.529 C 1108.9 768.148 1109.43 766.887 1110.29 765.923 C 1107.76 767.031 1105.92 768.825 1105.26 769.528 Z M 1119.11 769.529 C 1119.11 767.031 1117.04 764.998 1114.49 764.998 L 1114.49 764.998 C 1111.94 764.998 1109.86 767.031 1109.86 769.529 C 1109.86 772.027 1111.94 774.059 1114.49 774.059 L 1114.49 774.059 C 1117.04 774.059 1119.11 772.026 1119.11 769.529 Z M 1124.73 769.824 C 1124.56 770.032 1120.52 774.831 1114.78 774.992 C 1114.68 774.997 1114.58 775 1114.49 775 L 1114.49 775 L 1114.49 775 C 1114.48 775 1114.47 775 1114.46 775 C 1114.37 775 1114.28 774.998 1114.19 774.993 C 1108.45 774.832 1104.42 770.032 1104.24 769.825 L 1104 769.529 L 1104.24 769.233 C 1104.42 769.025 1108.45 764.225 1114.19 764.065 C 1114.28 764.06 1114.37 764.059 1114.46 764.058 C 1114.47 764.058 1114.48 764.057 1114.49 764.057 L 1114.49 764.057 L 1114.49 764.057 C 1114.58 764.057 1114.68 764.06 1114.78 764.064 C 1120.52 764.226 1124.56 769.024 1124.73 769.232 L 1124.97 769.528 L 1124.73 769.824 Z" id="path1914" clip-rule="evenodd"/></clipPath><clipPath id="clipPath1920"><path d=" M 1104 764 L 1125 764 L 1125 775 L 1104 775 Z" id="path1918"/></clipPath></defs><g id="g3400" transform="matrix(1.33333,0,0,-1.33333,-1471.69,1063.95)"><g id="g1852" transform="matrix(1,0,0,1,-0.228722,-80.2719)"><g id="g1854" clip-path="url(#clipPath1858)"><g id="g1860" clip-path="url(#clipPath1864)"><g id="g1866"></g><g id="g1892"><g id="g1890" clip-path="url(#clipPath1870)"><g id="g1880"></g><g id="g1888"><g id="g1886" clip-path="url(#clipPath1874)"><g id="g1884" clip-path="url(#clipPath1878)"><path d=" M 1099 851.057 L 1129.97 851.057 L 1129.97 872 L 1099 872 Z" id="path1882" stroke="none" fill="#65BB9F" fill-rule="nonzero" fill-opacity="1"/></g></g></g></g></g></g></g></g><g id="g1894" transform="matrix(1,0,0,1,-0.22849,22.9632)"><g id="g1896" clip-path="url(#clipPath1900)"><g id="g1902" clip-path="url(#clipPath1906)"><g id="g1908"></g><g id="g1934"><g id="g1932" clip-path="url(#clipPath1912)"><g id="g1922"></g><g id="g1930"><g id="g1928" clip-path="url(#clipPath1916)"><g id="g1926" clip-path="url(#clipPath1920)"><path d=" M 1099 759.057 L 1129.97 759.057 L 1129.97 780 L 1099 780 Z" id="path1924" stroke="none" fill="#044651" fill-rule="nonzero" fill-opacity="1"/></g></g></g></g></g></g></g></g></g></svg>