<svg version="1.1" width="29.3334" height="22.6431" xmlns="http://www.w3.org/2000/svg" xmlns:xlink="http://www.w3.org/1999/xlink" id="svg3475" overflow="hidden"><defs id="defs3479"><clipPath id="clipPath2512"><path d=" M 400.254 851.645 C 400.085 851.815 400 852.069 400 852.239 C 400 852.409 400.085 852.664 400.254 852.833 L 401.439 854.022 C 401.777 854.362 402.285 854.362 402.623 854.022 L 402.708 853.938 L 407.362 848.928 C 407.531 848.758 407.785 848.758 407.954 848.928 L 419.292 860.73 L 419.377 860.73 C 419.715 861.07 420.223 861.07 420.561 860.73 L 421.746 859.542 C 422.085 859.202 422.085 858.693 421.746 858.353 L 408.208 844.258 C 408.039 844.088 407.869 844.003 407.615 844.003 C 407.362 844.003 407.192 844.088 407.023 844.258 L 400.423 851.39 Z" id="path2510" clip-rule="evenodd"/></clipPath><clipPath id="clipPath2518"><path d=" M 0 0 L 1280 0 L 1280 3552 L 0 3552 Z" id="path2516"/></clipPath></defs><g id="g2506" transform="matrix(1.33333,0,0,-1.33333,-533.333,1147.98)"><g id="g2508" clip-path="url(#clipPath2512)"><g id="g2514" clip-path="url(#clipPath2518)"><path d=" M 395 839.003 L 427 839.003 L 427 865.985 L 395 865.985 Z" id="path2520" stroke="none" fill="#044651" fill-rule="nonzero" fill-opacity="1"/></g></g></g></svg>