<svg version="1.1" width="22.6667" height="22.6667" xmlns="http://www.w3.org/2000/svg" xmlns:xlink="http://www.w3.org/1999/xlink" id="svg3459" overflow="hidden"><defs id="defs3463"><clipPath id="clipPath2304"><path d=" M 412.945 962.228 C 412.79 962.383 412.79 962.616 412.945 962.772 L 418.767 968.594 C 418.922 968.749 419 968.982 419 969.137 C 419 969.292 418.922 969.525 418.767 969.68 L 417.681 970.767 C 417.525 970.922 417.292 971 417.137 971 C 416.904 971 416.749 970.922 416.594 970.767 L 410.772 964.945 C 410.616 964.79 410.384 964.79 410.228 964.945 L 404.406 970.767 C 404.251 970.922 404.018 971 403.863 971 C 403.708 971 403.475 970.922 403.32 970.767 L 402.233 969.68 C 402.078 969.525 402 969.292 402 969.137 C 402 968.982 402.078 968.749 402.233 968.594 L 408.055 962.772 C 408.21 962.616 408.21 962.383 408.055 962.228 L 402.233 956.406 C 402.078 956.251 402 956.018 402 955.863 C 402 955.708 402.078 955.475 402.233 955.32 L 403.32 954.233 C 403.475 954.078 403.708 954 403.863 954 C 404.018 954 404.251 954.078 404.406 954.233 L 410.228 960.055 C 410.384 960.21 410.616 960.21 410.772 960.055 L 416.594 954.233 C 416.749 954.078 416.982 954 417.137 954 C 417.292 954 417.525 954.078 417.681 954.233 L 418.767 955.32 C 418.922 955.475 419 955.708 419 955.863 C 419 956.018 418.922 956.251 418.767 956.406 Z" id="path2302" clip-rule="evenodd"/></clipPath><clipPath id="clipPath2310"><path d=" M 0 0 L 1280 0 L 1280 3552 L 0 3552 Z" id="path2308"/></clipPath></defs><g id="g2298" transform="matrix(1.33333,0,0,-1.33333,-536,1294.67)"><g id="g2300" clip-path="url(#clipPath2304)"><g id="g2306" clip-path="url(#clipPath2310)"><path d=" M 397 949 L 424 949 L 424 976 L 397 976 Z" id="path2312" stroke="none" fill="#044651" fill-rule="nonzero" fill-opacity="1"/></g></g></g></svg>