<svg version="1.1" width="94.6574" height="93.8316" xmlns="http://www.w3.org/2000/svg" xmlns:xlink="http://www.w3.org/1999/xlink" id="svg6117" overflow="hidden"><defs id="defs6121"><clipPath id="clipPath1942"><path d=" M 326.12 863.666 C 326.565 864.107 327.149 864.327 327.734 864.327 C 328.319 864.327 328.903 864.107 329.348 863.666 L 330.757 862.269 C 331.407 861.624 332.46 861.624 333.11 862.269 L 334.52 863.666 C 335.41 864.548 336.857 864.548 337.747 863.666 C 338.637 862.783 338.637 861.348 337.747 860.466 L 331.934 854.703 L 326.12 860.466 C 325.23 861.348 325.23 862.783 326.12 863.666 Z M 330.757 851.204 C 331.082 850.882 331.508 850.721 331.934 850.721 C 332.359 850.721 332.785 850.882 333.11 851.204 L 340.1 858.133 C 342.288 860.301 342.288 863.83 340.1 865.998 C 337.912 868.167 334.355 868.167 332.167 865.998 L 331.934 865.767 L 331.701 865.998 C 329.513 868.167 325.955 868.167 323.767 865.998 C 321.58 863.83 321.58 860.301 323.767 858.133 Z" id="path1940" clip-rule="evenodd"/></clipPath><clipPath id="clipPath1948"><path d=" M 0 0 L 1280 0 L 1280 2091 L 0 2091 Z" id="path1946"/></clipPath><clipPath id="clipPath1900"><path d=" M 362.993 884.739 L 292 884.739 L 292 814.366 L 362.993 814.366 Z" id="path1898" clip-rule="evenodd"/></clipPath><clipPath id="clipPath1906"><path d=" M 0 0 L 1280 0 L 1280 2091 L 0 2091 Z" id="path1904"/></clipPath><clipPath id="clipPath1912"><path d=" M 292 814 L 364 814 L 364 885 L 292 885 Z" id="path1910"/></clipPath><clipPath id="clipPath1916"><path d=" M 346.317 822.705 C 346.317 819.926 344.037 817.664 341.233 817.664 C 338.43 817.664 336.149 819.926 336.149 822.705 C 336.149 822.859 336.155 823.01 336.169 823.162 L 346.297 823.162 C 346.311 823.01 346.317 822.859 346.317 822.705 Z M 321.374 822.705 C 321.374 819.926 319.093 817.664 316.289 817.664 C 313.485 817.664 311.205 819.926 311.205 822.705 C 311.205 822.859 311.211 823.01 311.226 823.162 L 321.353 823.162 C 321.367 823.01 321.374 822.859 321.374 822.705 Z M 359.245 872.644 L 353.359 846.941 L 310.508 846.941 L 304.622 872.644 Z M 351.132 837.212 L 312.736 837.212 L 311.264 843.642 L 352.603 843.642 Z M 305.179 829.857 L 311.875 833.913 L 352.459 833.913 C 353.236 833.913 353.91 834.446 354.082 835.198 L 356.31 844.927 L 362.952 873.928 C 363.064 874.418 362.945 874.93 362.629 875.322 C 362.314 875.714 361.835 875.943 361.329 875.943 L 303.831 875.943 L 301.885 883.498 C 301.697 884.228 301.033 884.739 300.273 884.739 L 293.664 884.739 C 292.745 884.739 292 884 292 883.09 C 292 882.179 292.745 881.441 293.664 881.441 L 298.981 881.441 L 300.917 873.919 L 307.557 844.927 L 309.521 836.352 L 303.444 832.67 C 301.443 831.458 300.525 829.141 301.16 826.903 C 301.796 824.665 303.798 823.162 306.143 823.162 L 307.896 823.162 C 307.888 823.01 307.878 822.858 307.878 822.705 C 307.878 818.107 311.651 814.366 316.289 814.366 C 320.927 814.366 324.702 818.107 324.702 822.705 C 324.702 822.858 324.692 823.01 324.683 823.162 L 332.839 823.162 C 332.831 823.01 332.821 822.858 332.821 822.705 C 332.821 818.107 336.595 814.366 341.233 814.366 C 345.872 814.366 349.645 818.107 349.645 822.705 C 349.645 822.858 349.635 823.01 349.626 823.162 L 356.892 823.162 C 357.811 823.162 358.556 823.901 358.556 824.812 C 358.556 825.722 357.811 826.461 356.892 826.461 L 347.668 826.461 C 347.658 826.461 347.648 826.463 347.639 826.463 L 334.827 826.463 C 334.817 826.463 334.808 826.461 334.798 826.461 L 322.725 826.461 C 322.715 826.461 322.705 826.463 322.695 826.463 L 309.884 826.463 C 309.874 826.463 309.864 826.461 309.855 826.461 L 306.143 826.461 C 304.845 826.461 304.453 827.483 304.363 827.797 C 304.275 828.11 304.071 829.184 305.179 829.857 Z" id="path1914" clip-rule="evenodd"/></clipPath><clipPath id="clipPath1920"><path d=" M 292 814 L 363 814 L 363 885 L 292 885 Z" id="path1918"/></clipPath></defs><g id="g1894" transform="matrix(1.33333,0,0,-1.33333,-389.333,1179.65)"><g id="g1896" clip-path="url(#clipPath1900)"><g id="g1902" clip-path="url(#clipPath1906)"><g id="g1908"></g><g id="g1934"><g id="g1932" clip-path="url(#clipPath1912)"><g id="g1922"></g><g id="g1930"><g id="g1928" clip-path="url(#clipPath1916)"><g id="g1926" clip-path="url(#clipPath1920)"><path d=" M 287 809.366 L 367.993 809.366 L 367.993 889.739 L 287 889.739 Z" id="path1924" stroke="none" fill="#65BB9F" fill-rule="nonzero" fill-opacity="1"/></g></g></g></g></g></g></g></g><g id="g1936" transform="matrix(1.33333,0,0,-1.33333,-389.333,1179.65)"><g id="g1938" clip-path="url(#clipPath1942)"><g id="g1944" clip-path="url(#clipPath1948)"><path d=" M 317.126 845.721 L 346.741 845.721 L 346.741 872.625 L 317.126 872.625 Z" id="path1950" stroke="none" fill="#65BB9F" fill-rule="nonzero" fill-opacity="1"/></g></g></g></svg>