<svg version="1.1" width="91.9039" height="98.4009" xmlns="http://www.w3.org/2000/svg" xmlns:xlink="http://www.w3.org/1999/xlink" id="svg5838" overflow="hidden"><defs id="defs5842"><clipPath id="clipPath1488"><path d=" M 317.125 952.73 L 308.573 952.73 C 307.897 952.73 307.351 952.18 307.351 951.5 C 307.351 950.82 307.897 950.27 308.573 950.27 L 317.125 950.27 C 317.801 950.27 318.347 950.82 318.347 951.5 C 318.347 952.18 317.801 952.73 317.125 952.73" id="path1486" clip-rule="evenodd"/></clipPath><clipPath id="clipPath1494"><path d=" M 0 0 L 1280 0 L 1280 2091 L 0 2091 Z" id="path1492"/></clipPath><clipPath id="clipPath1472"><path d=" M 317.125 961.34 L 301.242 961.34 C 300.566 961.34 300.02 960.79 300.02 960.11 C 300.02 959.43 300.566 958.88 301.242 958.88 L 317.125 958.88 C 317.801 958.88 318.347 959.43 318.347 960.11 C 318.347 960.79 317.801 961.34 317.125 961.34" id="path1470" clip-rule="evenodd"/></clipPath><clipPath id="clipPath1478"><path d=" M 0 0 L 1280 0 L 1280 2091 L 0 2091 Z" id="path1476"/></clipPath><clipPath id="clipPath1456"><path d=" M 317.125 969.95 L 293.911 969.95 C 293.236 969.95 292.689 969.4 292.689 968.72 C 292.689 968.039 293.236 967.49 293.911 967.49 L 317.125 967.49 C 317.801 967.49 318.347 968.039 318.347 968.72 C 318.347 969.4 317.801 969.95 317.125 969.95" id="path1454" clip-rule="evenodd"/></clipPath><clipPath id="clipPath1462"><path d=" M 0 0 L 1280 0 L 1280 2091 L 0 2091 Z" id="path1460"/></clipPath><clipPath id="clipPath1440"><path d=" M 317.125 978.56 L 298.798 978.56 C 298.123 978.56 297.577 978.01 297.577 977.33 C 297.577 976.649 298.123 976.1 298.798 976.1 L 317.125 976.1 C 317.801 976.1 318.347 976.649 318.347 977.33 C 318.347 978.01 317.801 978.56 317.125 978.56" id="path1438" clip-rule="evenodd"/></clipPath><clipPath id="clipPath1446"><path d=" M 0 0 L 1280 0 L 1280 2091 L 0 2091 Z" id="path1444"/></clipPath><clipPath id="clipPath1424"><path d=" M 317.125 987.17 L 304.907 987.17 C 304.232 987.17 303.685 986.62 303.685 985.94 C 303.685 985.26 304.232 984.71 304.907 984.71 L 317.125 984.71 C 317.801 984.71 318.347 985.26 318.347 985.94 C 318.347 986.62 317.801 987.17 317.125 987.17" id="path1422" clip-rule="evenodd"/></clipPath><clipPath id="clipPath1430"><path d=" M 0 0 L 1280 0 L 1280 2091 L 0 2091 Z" id="path1428"/></clipPath><clipPath id="clipPath1408"><path d=" M 317.125 995.78 L 311.016 995.78 C 310.341 995.78 309.795 995.23 309.795 994.55 C 309.795 993.87 310.341 993.32 311.016 993.32 L 317.125 993.32 C 317.801 993.32 318.347 993.87 318.347 994.55 C 318.347 995.23 317.801 995.78 317.125 995.78" id="path1406" clip-rule="evenodd"/></clipPath><clipPath id="clipPath1414"><path d=" M 0 0 L 1280 0 L 1280 2091 L 0 2091 Z" id="path1412"/></clipPath><clipPath id="clipPath1392"><path d=" M 326.9 1005.59 L 326.9 1009.31 L 322.624 1009.31 C 322.288 1009.31 322.013 1009.59 322.013 1009.92 C 322.013 1010.26 322.288 1010.54 322.624 1010.54 L 333.62 1010.54 C 333.956 1010.54 334.23 1010.26 334.23 1009.92 C 334.23 1009.59 333.956 1009.31 333.62 1009.31 L 329.344 1009.31 L 329.344 1005.59 C 328.918 1005.61 328.513 1005.62 328.121 1005.62 C 328.088 1005.62 328.048 1005.62 328.014 1005.62 C 327.984 1005.62 327.953 1005.62 327.922 1005.62 C 327.722 1005.62 327.522 1005.61 327.321 1005.6 C 327.18 1005.6 327.046 1005.6 326.9 1005.59 L 326.9 1005.59 Z M 356.433 1002.85 L 358.161 1001.11 L 356.433 999.371 L 354.704 1001.11 Z M 356.517 988.936 C 356.505 988.962 356.505 988.989 356.492 989.015 C 356.477 989.039 356.454 989.053 356.438 989.076 C 355.203 991.209 353.742 993.193 352.082 994.991 L 354.707 997.632 L 356.435 995.893 L 361.617 1001.11 L 356.435 1006.33 L 351.25 1001.11 L 352.979 999.371 L 350.355 996.731 C 348.569 998.401 346.599 999.873 344.479 1001.12 C 344.456 1001.13 344.443 1001.16 344.418 1001.17 C 344.392 1001.19 344.365 1001.18 344.34 1001.2 C 340.561 1003.39 336.315 1004.85 331.788 1005.39 L 331.788 1006.85 L 333.621 1006.85 C 335.306 1006.85 336.676 1008.23 336.676 1009.92 C 336.676 1011.62 335.305 1013 333.62 1013 L 322.624 1013 C 320.939 1013 319.569 1011.62 319.569 1009.92 C 319.569 1008.23 320.939 1006.85 322.624 1006.85 L 324.456 1006.85 L 324.456 1005.43 C 323.137 1005.29 321.82 1005.07 320.517 1004.77 C 319.859 1004.62 319.448 1003.96 319.6 1003.3 C 319.75 1002.64 320.406 1002.22 321.063 1002.37 C 322.187 1002.63 323.322 1002.83 324.46 1002.96 L 325.771 1003.06 C 326.172 1003.09 326.541 1003.11 326.9 1003.13 L 326.9 1000.7 C 326.9 1000.02 327.446 999.47 328.121 999.47 C 328.798 999.47 329.344 1000.02 329.344 1000.7 L 329.344 1003.12 C 333.939 1002.91 338.269 1001.67 342.119 999.623 L 340.914 997.524 C 340.577 996.935 340.777 996.183 341.361 995.844 C 341.553 995.732 341.763 995.679 341.971 995.679 C 342.393 995.679 342.804 995.899 343.03 996.294 L 344.231 998.389 C 348.054 995.947 351.302 992.678 353.727 988.829 L 351.646 987.62 C 351.063 987.281 350.863 986.529 351.201 985.94 C 351.429 985.545 351.838 985.325 352.261 985.325 C 352.468 985.325 352.679 985.378 352.87 985.49 L 354.956 986.703 C 357.015 982.771 358.253 978.341 358.437 973.641 L 356.024 973.641 C 355.348 973.641 354.802 973.091 354.802 972.411 C 354.802 971.731 355.348 971.181 356.024 971.181 L 358.437 971.181 C 358.253 966.481 357.015 962.051 354.956 958.119 L 352.87 959.332 C 352.286 959.672 351.539 959.472 351.201 958.882 C 350.864 958.293 351.065 957.541 351.649 957.202 L 353.729 955.993 C 351.304 952.144 348.057 948.875 344.233 946.433 L 343.032 948.528 C 342.694 949.118 341.945 949.319 341.364 948.978 C 340.778 948.639 340.578 947.886 340.916 947.298 L 342.121 945.198 C 338.271 943.154 333.941 941.912 329.346 941.699 L 329.346 944.12 C 329.346 944.8 328.8 945.35 328.124 945.35 C 327.448 945.35 326.902 944.8 326.902 944.12 L 326.902 941.689 C 324.951 941.757 322.994 942.003 321.067 942.448 C 320.409 942.607 319.754 942.186 319.603 941.524 C 319.452 940.862 319.864 940.202 320.521 940.051 C 322.96 939.485 325.451 939.199 327.922 939.199 C 327.982 939.199 328.04 939.203 328.1 939.204 C 328.109 939.204 328.114 939.199 328.121 939.199 C 328.132 939.199 328.14 939.205 328.15 939.205 C 334.023 939.246 339.533 940.842 344.301 943.6 C 344.339 943.617 344.379 943.626 344.415 943.648 C 344.44 943.663 344.454 943.686 344.477 943.702 C 349.411 946.598 353.535 950.744 356.417 955.708 C 356.441 955.741 356.47 955.767 356.491 955.804 C 356.505 955.83 356.504 955.857 356.516 955.883 C 359.307 960.754 360.911 966.395 360.911 972.409 C 360.911 978.424 359.307 984.065 356.517 988.936 L 356.517 988.936 Z" id="path1390" clip-rule="evenodd"/></clipPath><clipPath id="clipPath1398"><path d=" M 0 0 L 1280 0 L 1280 2091 L 0 2091 Z" id="path1396"/></clipPath><clipPath id="clipPath1376"><path d=" M 326.906 970.792 C 326.949 971.354 327.235 971.867 327.684 972.197 L 337.333 979.224 L 330.355 969.513 C 330.026 969.057 329.516 968.77 328.957 968.726 C 328.401 968.689 327.855 968.883 327.458 969.283 C 327.065 969.68 326.862 970.231 326.906 970.792 M 329.149 966.273 C 330.421 966.373 331.581 967.026 332.333 968.068 L 343.773 983.989 C 344.124 984.477 344.071 985.151 343.646 985.579 C 343.221 986.006 342.551 986.059 342.066 985.707 L 326.249 974.187 C 325.217 973.432 324.569 972.265 324.469 970.984 C 324.371 969.703 324.831 968.45 325.732 967.544 C 326.552 966.717 327.657 966.26 328.807 966.26 C 328.921 966.26 329.034 966.265 329.149 966.273" id="path1374" clip-rule="evenodd"/></clipPath><clipPath id="clipPath1382"><path d=" M 0 0 L 1280 0 L 1280 2091 L 0 2091 Z" id="path1380"/></clipPath></defs><g id="g1370" transform="matrix(1.33333,0,0,-1.33333,-390.253,1350.67)"><g id="g1372" clip-path="url(#clipPath1376)"><g id="g1378" clip-path="url(#clipPath1382)"><path d=" M 319.456 961.26 L 349.004 961.26 L 349.004 990.939 L 319.456 990.939 Z" id="path1384" stroke="none" fill="#65BB9F" fill-rule="nonzero" fill-opacity="1"/></g></g></g><g id="g1386" transform="matrix(1.33333,0,0,-1.33333,-390.253,1350.67)"><g id="g1388" clip-path="url(#clipPath1392)"><g id="g1394" clip-path="url(#clipPath1398)"><path d=" M 314.568 934.199 L 366.617 934.199 L 366.617 1018 L 314.568 1018 Z" id="path1400" stroke="none" fill="#65BB9F" fill-rule="nonzero" fill-opacity="1"/></g></g></g><g id="g1402" transform="matrix(1.33333,0,0,-1.33333,-390.253,1350.67)"><g id="g1404" clip-path="url(#clipPath1408)"><g id="g1410" clip-path="url(#clipPath1414)"><path d=" M 304.795 988.32 L 323.347 988.32 L 323.347 1000.78 L 304.795 1000.78 Z" id="path1416" stroke="none" fill="#65BB9F" fill-rule="nonzero" fill-opacity="1"/></g></g></g><g id="g1418" transform="matrix(1.33333,0,0,-1.33333,-390.253,1350.67)"><g id="g1420" clip-path="url(#clipPath1424)"><g id="g1426" clip-path="url(#clipPath1430)"><path d=" M 298.685 979.71 L 323.347 979.71 L 323.347 992.17 L 298.685 992.17 Z" id="path1432" stroke="none" fill="#65BB9F" fill-rule="nonzero" fill-opacity="1"/></g></g></g><g id="g1434" transform="matrix(1.33333,0,0,-1.33333,-390.253,1350.67)"><g id="g1436" clip-path="url(#clipPath1440)"><g id="g1442" clip-path="url(#clipPath1446)"><path d=" M 292.577 971.1 L 323.347 971.1 L 323.347 983.56 L 292.577 983.56 Z" id="path1448" stroke="none" fill="#65BB9F" fill-rule="nonzero" fill-opacity="1"/></g></g></g><g id="g1450" transform="matrix(1.33333,0,0,-1.33333,-390.253,1350.67)"><g id="g1452" clip-path="url(#clipPath1456)"><g id="g1458" clip-path="url(#clipPath1462)"><path d=" M 287.689 962.49 L 323.347 962.49 L 323.347 974.95 L 287.689 974.95 Z" id="path1464" stroke="none" fill="#65BB9F" fill-rule="nonzero" fill-opacity="1"/></g></g></g><g id="g1466" transform="matrix(1.33333,0,0,-1.33333,-390.253,1350.67)"><g id="g1468" clip-path="url(#clipPath1472)"><g id="g1474" clip-path="url(#clipPath1478)"><path d=" M 295.02 953.88 L 323.347 953.88 L 323.347 966.34 L 295.02 966.34 Z" id="path1480" stroke="none" fill="#65BB9F" fill-rule="nonzero" fill-opacity="1"/></g></g></g><g id="g1482" transform="matrix(1.33333,0,0,-1.33333,-390.253,1350.67)"><g id="g1484" clip-path="url(#clipPath1488)"><g id="g1490" clip-path="url(#clipPath1494)"><path d=" M 302.351 945.27 L 323.347 945.27 L 323.347 957.73 L 302.351 957.73 Z" id="path1496" stroke="none" fill="#65BB9F" fill-rule="nonzero" fill-opacity="1"/></g></g></g></svg>