<svg version="1.1" width="79.9273" height="98.6667" xmlns="http://www.w3.org/2000/svg" xmlns:xlink="http://www.w3.org/1999/xlink" id="svg5601" overflow="hidden"><defs id="defs5605"><clipPath id="clipPath1642"><path d=" M 329.698 1217.93 C 329.698 1216.41 328.475 1215.19 326.973 1215.19 C 325.47 1215.19 324.248 1216.41 324.248 1217.93 L 324.248 1226.15 C 324.248 1227.66 325.47 1228.89 326.973 1228.89 C 328.475 1228.89 329.698 1227.66 329.698 1226.15 Z M 326.973 1231.63 C 323.967 1231.63 321.523 1229.17 321.523 1226.15 L 321.523 1217.93 C 321.523 1214.9 323.967 1212.44 326.973 1212.44 C 329.978 1212.44 332.422 1214.9 332.422 1217.93 L 332.422 1226.15 C 332.422 1229.17 329.978 1231.63 326.973 1231.63 Z" id="path1640" clip-rule="evenodd"/></clipPath><clipPath id="clipPath1648"><path d=" M 0 0 L 1280 0 L 1280 2091 L 0 2091 Z" id="path1646"/></clipPath><clipPath id="clipPath1626"><path d=" M 354.221 1205.91 C 354.221 1201.96 351.025 1198.74 347.097 1198.74 L 306.849 1198.74 C 302.921 1198.74 299.725 1201.96 299.725 1205.91 L 299.725 1232.69 C 299.725 1236.64 302.921 1239.85 306.849 1239.85 L 347.097 1239.85 C 351.025 1239.85 354.221 1236.64 354.221 1232.69 Z M 348.771 1242.44 L 348.771 1250.13 C 348.771 1261.09 338.992 1270 326.973 1270 C 314.954 1270 305.174 1261.09 305.174 1250.13 C 305.174 1249.37 305.783 1248.76 306.537 1248.76 C 307.29 1248.76 307.899 1249.37 307.899 1250.13 C 307.899 1259.58 316.455 1267.26 326.973 1267.26 C 337.491 1267.26 346.046 1259.58 346.046 1250.13 L 346.046 1242.59 L 306.849 1242.59 C 301.418 1242.59 297 1238.15 297 1232.69 L 297 1205.91 C 297 1200.44 301.418 1196 306.849 1196 L 347.097 1196 C 352.527 1196 356.945 1200.44 356.945 1205.91 L 356.945 1232.69 C 356.945 1237.57 353.405 1241.64 348.771 1242.44 Z" id="path1624" clip-rule="evenodd"/></clipPath><clipPath id="clipPath1632"><path d=" M 0 0 L 1280 0 L 1280 2091 L 0 2091 Z" id="path1630"/></clipPath></defs><g id="g1620" transform="matrix(1.33333,0,0,-1.33333,-396,1693.33)"><g id="g1622" clip-path="url(#clipPath1626)"><g id="g1628" clip-path="url(#clipPath1632)"><path d=" M 292 1191 L 361.946 1191 L 361.946 1275 L 292 1275 Z" id="path1634" stroke="none" fill="#65BB9F" fill-rule="nonzero" fill-opacity="1"/></g></g></g><g id="g1636" transform="matrix(1.33333,0,0,-1.33333,-396,1693.33)"><g id="g1638" clip-path="url(#clipPath1642)"><g id="g1644" clip-path="url(#clipPath1648)"><path d=" M 316.523 1207.44 L 337.422 1207.44 L 337.422 1236.63 L 316.523 1236.63 Z" id="path1650" stroke="none" fill="#65BB9F" fill-rule="nonzero" fill-opacity="1"/></g></g></g></svg>