<svg version="1.1" width="90.0212" height="98.0947" xmlns="http://www.w3.org/2000/svg" xmlns:xlink="http://www.w3.org/1999/xlink" id="svg5625" overflow="hidden"><defs id="defs5629"><clipPath id="clipPath1610"><path d=" M 307.315 1083.26 C 308.41 1083.26 309.297 1082.37 309.297 1081.27 C 309.297 1080.16 308.41 1079.27 307.315 1079.27 C 306.22 1079.27 305.332 1080.16 305.332 1081.27 C 305.332 1082.37 306.22 1083.26 307.315 1083.26" id="path1608" clip-rule="evenodd"/></clipPath><clipPath id="clipPath1616"><path d=" M 0 0 L 1280 0 L 1280 2091 L 0 2091 Z" id="path1614"/></clipPath><clipPath id="clipPath1568"><path d=" M 293 1124.85 L 293 1069.26 L 325.477 1069.26 L 325.477 1124.85 Z" id="path1566" clip-rule="evenodd"/></clipPath><clipPath id="clipPath1574"><path d=" M 0 0 L 1280 0 L 1280 2091 L 0 2091 Z" id="path1572"/></clipPath><clipPath id="clipPath1580"><path d=" M 293 1069 L 326 1069 L 326 1125 L 293 1125 Z" id="path1578"/></clipPath><clipPath id="clipPath1584"><path d=" M 295.887 1122.29 C 296.041 1122.44 296.236 1122.51 296.461 1122.52 C 298.218 1122.46 299.604 1120.97 299.552 1119.2 L 299.382 1113.94 C 299.38 1113.92 299.384 1113.91 299.384 1113.9 C 299.384 1113.86 299.388 1113.82 299.392 1113.78 C 299.396 1113.74 299.4 1113.7 299.409 1113.66 C 299.412 1113.65 299.411 1113.63 299.414 1113.62 L 300.34 1109.85 C 300.128 1109.7 299.926 1109.54 299.739 1109.35 C 298.172 1107.78 298.172 1105.21 299.739 1103.63 L 306.513 1096.81 C 306.741 1096.58 307.038 1096.47 307.335 1096.47 C 307.631 1096.47 307.927 1096.58 308.154 1096.81 C 308.607 1097.27 308.607 1098.01 308.154 1098.46 L 301.379 1105.28 C 300.716 1105.95 300.717 1107.04 301.379 1107.7 C 302.043 1108.37 303.122 1108.37 303.785 1107.7 L 309.682 1101.76 C 309.684 1101.76 309.686 1101.76 309.688 1101.76 C 309.792 1101.66 309.916 1101.57 310.055 1101.52 C 310.06 1101.52 310.065 1101.51 310.07 1101.51 C 310.144 1101.48 310.222 1101.45 310.304 1101.44 L 312.625 1101.04 C 313.417 1100.9 314.168 1100.51 314.736 1099.94 L 318.619 1096.03 C 319.339 1095.3 319.749 1094.34 319.772 1093.32 L 319.909 1087.12 L 307.532 1086.99 L 307.497 1087.23 C 307.21 1089.17 306.331 1090.93 304.956 1092.31 L 298.397 1098.92 C 297.097 1100.23 296.275 1101.95 296.085 1103.79 L 295.404 1110.29 C 295.403 1110.32 295.398 1110.34 295.396 1110.37 L 295.318 1111.12 L 295.654 1121.75 C 295.663 1122.01 295.785 1122.19 295.886 1122.29 M 323.067 1082.54 L 323.158 1074.05 C 323.164 1073.44 322.933 1072.87 322.507 1072.43 C 322.08 1071.99 321.512 1071.75 320.909 1071.74 L 306.93 1071.59 C 306.326 1071.6 305.754 1071.82 305.319 1072.24 C 304.883 1072.67 304.639 1073.24 304.633 1073.85 L 304.542 1082.33 C 304.535 1082.94 304.766 1083.52 305.192 1083.96 C 305.619 1084.4 306.187 1084.64 306.79 1084.65 L 320.77 1084.8 L 320.793 1084.8 C 322.037 1084.8 323.054 1083.79 323.067 1082.54 M 293.004 1110.97 L 293.004 1110.96 L 293.005 1110.95 C 293.008 1110.69 293.037 1110.43 293.085 1110.18 L 293.781 1103.54 C 294.026 1101.18 295.084 1098.95 296.76 1097.27 L 303.318 1090.66 C 304.339 1089.63 304.992 1088.33 305.205 1086.89 L 305.234 1086.69 C 304.603 1086.46 304.023 1086.09 303.538 1085.59 C 302.678 1084.7 302.212 1083.54 302.225 1082.31 L 302.315 1073.82 C 302.328 1072.59 302.82 1071.44 303.698 1070.57 C 304.565 1069.72 305.701 1069.25 306.905 1069.25 L 306.955 1069.25 L 320.935 1069.4 C 322.157 1069.42 323.304 1069.91 324.163 1070.8 C 325.023 1071.68 325.49 1072.84 325.477 1074.07 L 325.386 1082.56 C 325.365 1084.58 324.044 1086.29 322.234 1086.89 L 322.09 1093.37 C 322.053 1094.99 321.403 1096.52 320.259 1097.67 L 316.376 1101.58 C 315.471 1102.49 314.277 1103.12 313.018 1103.33 L 311.063 1103.67 L 305.425 1109.35 C 304.636 1110.15 303.597 1110.54 302.561 1110.53 L 301.704 1114.02 L 301.869 1119.13 C 301.961 1122.18 299.57 1124.75 296.526 1124.85 C 295.683 1124.87 294.847 1124.53 294.249 1123.93 C 293.691 1123.37 293.368 1122.62 293.341 1121.83 L 293 1111.1 C 292.997 1111.05 293.004 1111.01 293.004 1110.96" id="path1582" clip-rule="evenodd"/></clipPath><clipPath id="clipPath1588"><path d=" M 293 1069 L 326 1069 L 326 1125 L 293 1125 Z" id="path1586"/></clipPath><clipPath id="clipPath1552"><path d=" M 331.006 1072.43 C 330.58 1072.87 330.348 1073.44 330.355 1074.05 L 330.446 1082.53 C 330.459 1083.79 331.476 1084.8 332.719 1084.8 L 332.743 1084.8 L 346.723 1084.65 C 347.326 1084.64 347.894 1084.4 348.32 1083.96 C 348.746 1083.52 348.978 1082.94 348.971 1082.33 L 348.881 1073.85 C 348.875 1073.24 348.631 1072.67 348.195 1072.24 C 347.76 1071.81 347.171 1071.6 346.583 1071.59 L 332.603 1071.74 C 332.001 1071.75 331.433 1071.99 331.006 1072.43 Z M 334.894 1096.03 L 338.777 1099.94 C 339.345 1100.51 340.095 1100.9 340.891 1101.04 L 343.207 1101.44 C 343.29 1101.45 343.367 1101.48 343.442 1101.51 C 343.447 1101.51 343.452 1101.51 343.457 1101.52 C 343.595 1101.57 343.72 1101.66 343.824 1101.76 C 343.825 1101.76 343.828 1101.76 343.83 1101.76 L 349.727 1107.7 C 350.39 1108.37 351.469 1108.37 352.133 1107.7 C 352.796 1107.03 352.796 1105.95 352.133 1105.28 L 345.358 1098.46 C 344.905 1098 344.905 1097.27 345.358 1096.81 C 345.585 1096.58 345.882 1096.47 346.178 1096.47 C 346.475 1096.47 346.772 1096.58 346.998 1096.81 L 353.773 1103.63 C 355.339 1105.21 355.339 1107.77 353.773 1109.35 C 353.586 1109.54 353.383 1109.7 353.172 1109.84 L 354.098 1113.62 C 354.101 1113.63 354.101 1113.64 354.104 1113.66 C 354.112 1113.69 354.117 1113.73 354.121 1113.78 C 354.125 1113.81 354.129 1113.85 354.129 1113.9 C 354.129 1113.91 354.132 1113.92 354.131 1113.94 L 353.961 1119.2 C 353.908 1120.97 355.294 1122.46 357.039 1122.52 C 357.275 1122.52 357.473 1122.44 357.626 1122.28 C 357.727 1122.18 357.848 1122.01 357.858 1121.75 L 358.195 1111.12 L 358.117 1110.37 C 358.114 1110.34 358.109 1110.32 358.109 1110.29 L 357.428 1103.78 C 357.238 1101.95 356.416 1100.22 355.116 1098.92 L 348.557 1092.31 C 347.182 1090.93 346.303 1089.17 346.015 1087.23 L 345.981 1086.99 L 333.604 1087.12 L 333.741 1093.32 C 333.764 1094.34 334.174 1095.3 334.894 1096.03 L 334.894 1096.03 Z M 346.609 1069.26 C 347.813 1069.26 348.95 1069.72 349.816 1070.58 C 350.694 1071.44 351.185 1072.6 351.199 1073.83 L 351.289 1082.31 C 351.302 1083.54 350.836 1084.7 349.977 1085.59 C 349.491 1086.09 348.911 1086.46 348.28 1086.69 L 348.309 1086.89 C 348.522 1088.33 349.175 1089.64 350.196 1090.66 L 356.755 1097.27 C 358.43 1098.95 359.488 1101.18 359.733 1103.54 L 360.429 1110.19 C 360.476 1110.43 360.503 1110.68 360.508 1110.94 L 360.51 1110.95 C 360.51 1110.96 360.509 1110.97 360.51 1110.98 C 360.51 1111.03 360.517 1111.07 360.516 1111.11 L 360.176 1121.83 C 360.148 1122.62 359.825 1123.37 359.267 1123.93 C 358.67 1124.53 357.842 1124.87 356.978 1124.85 C 353.946 1124.75 351.554 1122.18 351.647 1119.13 L 351.811 1114.02 L 350.955 1110.54 C 349.919 1110.55 348.88 1110.15 348.09 1109.35 L 342.453 1103.68 L 340.501 1103.33 C 339.239 1103.12 338.044 1102.5 337.139 1101.59 L 333.256 1097.68 C 332.112 1096.53 331.462 1095 331.425 1093.37 L 331.282 1086.9 C 329.471 1086.29 328.151 1084.58 328.13 1082.56 L 328.039 1074.08 C 328.026 1072.84 328.491 1071.68 329.352 1070.8 C 330.212 1069.91 331.358 1069.42 332.581 1069.41 L 346.559 1069.26 L 346.61 1069.26 Z" id="path1550" clip-rule="evenodd"/></clipPath><clipPath id="clipPath1558"><path d=" M 0 0 L 1280 0 L 1280 2091 L 0 2091 Z" id="path1556"/></clipPath><clipPath id="clipPath1536"><path d=" M 327.956 1125.79 C 325.009 1125.79 323.117 1123.84 322.605 1120.31 L 321.822 1120.31 C 321.68 1120.31 321.554 1120.22 321.508 1120.08 L 321.253 1119.35 C 321.217 1119.25 321.233 1119.14 321.296 1119.05 C 321.358 1118.96 321.459 1118.91 321.567 1118.91 L 322.487 1118.91 C 322.479 1118.74 322.472 1118.56 322.472 1118.38 C 322.472 1118.24 322.478 1118.05 322.487 1117.87 L 321.822 1117.87 C 321.68 1117.87 321.555 1117.78 321.508 1117.65 L 321.253 1116.91 C 321.217 1116.81 321.233 1116.7 321.296 1116.61 C 321.358 1116.52 321.459 1116.47 321.567 1116.47 L 322.621 1116.47 C 323.26 1111.93 325.862 1110.97 327.956 1110.97 C 329.662 1110.97 330.921 1111.56 331.53 1112.12 C 331.599 1112.18 331.639 1112.27 331.639 1112.37 L 331.639 1113.32 C 331.639 1113.45 331.561 1113.57 331.441 1113.63 C 331.321 1113.68 331.181 1113.66 331.083 1113.57 C 330.217 1112.78 329.246 1112.41 328.029 1112.41 C 325.937 1112.41 324.576 1113.85 324.169 1116.47 L 329.122 1116.47 C 329.263 1116.47 329.389 1116.56 329.436 1116.69 L 329.69 1117.43 C 329.726 1117.53 329.71 1117.64 329.648 1117.73 C 329.585 1117.82 329.484 1117.87 329.377 1117.87 L 324.006 1117.87 C 323.998 1118.01 323.993 1118.19 323.993 1118.38 C 323.993 1118.53 323.999 1118.73 324.008 1118.91 L 329.995 1118.91 C 330.134 1118.91 330.258 1118.99 330.306 1119.12 L 330.58 1119.85 C 330.618 1119.96 330.604 1120.07 330.542 1120.16 C 330.48 1120.25 330.378 1120.31 330.269 1120.31 L 324.149 1120.31 C 324.351 1121.6 325.123 1124.31 328.011 1124.31 C 329.574 1124.31 330.539 1123.69 331.074 1123.16 C 331.17 1123.07 331.313 1123.04 331.436 1123.09 C 331.559 1123.14 331.639 1123.27 331.639 1123.4 L 331.639 1124.35 C 331.639 1124.45 331.598 1124.54 331.526 1124.6 C 330.691 1125.34 329.357 1125.79 327.956 1125.79" id="path1534" clip-rule="evenodd"/></clipPath><clipPath id="clipPath1542"><path d=" M 0 0 L 1280 0 L 1280 2091 L 0 2091 Z" id="path1540"/></clipPath><clipPath id="clipPath1520"><path d=" M 329.667 1134.26 L 323.315 1134.26 C 322.942 1134.26 322.639 1134.57 322.639 1134.94 C 322.639 1135.32 322.942 1135.62 323.315 1135.62 L 329.667 1135.62 C 330.04 1135.62 330.344 1135.32 330.344 1134.94 C 330.344 1134.57 330.04 1134.26 329.667 1134.26 M 329.945 1141.13 C 330.322 1141.13 330.679 1140.98 330.926 1140.73 C 331.188 1140.47 331.332 1140.12 331.332 1139.75 C 331.332 1139.38 331.188 1139.03 330.926 1138.76 L 329.502 1137.33 L 323.478 1137.33 L 322.055 1138.76 C 321.793 1139.03 321.65 1139.38 321.65 1139.75 C 321.65 1140.12 321.795 1140.47 322.058 1140.74 C 322.303 1140.98 322.66 1141.13 323.036 1141.13 C 323.412 1141.13 323.77 1140.98 324.016 1140.73 L 325.89 1138.85 C 326.211 1138.53 326.77 1138.53 327.089 1138.85 L 328.967 1140.74 C 329.213 1140.98 329.569 1141.13 329.945 1141.13 M 335.196 1105.64 L 317.786 1105.64 C 316.404 1105.64 315.281 1106.78 315.281 1108.18 L 315.281 1121.63 C 315.281 1126.8 318.755 1131.29 323.737 1132.56 L 329.244 1132.56 C 334.226 1131.29 337.701 1126.8 337.701 1121.63 L 337.702 1108.18 C 337.702 1106.78 336.578 1105.64 335.196 1105.64 M 331.588 1133.55 C 331.878 1133.95 332.039 1134.43 332.039 1134.94 C 332.039 1135.62 331.754 1136.25 331.269 1136.69 L 332.124 1137.56 C 332.707 1138.14 333.027 1138.92 333.027 1139.75 C 333.027 1140.58 332.707 1141.36 332.125 1141.94 C 331.567 1142.5 330.772 1142.83 329.945 1142.83 C 329.118 1142.83 328.325 1142.5 327.768 1141.94 L 326.49 1140.66 L 325.214 1141.94 C 324.657 1142.5 323.863 1142.82 323.036 1142.82 C 322.209 1142.82 321.415 1142.5 320.858 1141.94 C 320.276 1141.35 319.955 1140.58 319.955 1139.75 C 319.954 1138.92 320.274 1138.14 320.856 1137.56 L 321.712 1136.69 C 321.228 1136.25 320.943 1135.62 320.943 1134.94 C 320.943 1134.43 321.105 1133.94 321.394 1133.54 C 316.692 1131.52 313.585 1126.82 313.585 1121.63 L 313.585 1108.18 C 313.585 1105.84 315.47 1103.94 317.786 1103.94 L 335.196 1103.94 C 337.512 1103.94 339.397 1105.84 339.397 1108.18 L 339.397 1121.63 C 339.397 1126.82 336.29 1131.52 331.588 1133.55" id="path1518" clip-rule="evenodd"/></clipPath><clipPath id="clipPath1526"><path d=" M 0 0 L 1280 0 L 1280 2091 L 0 2091 Z" id="path1524"/></clipPath><clipPath id="clipPath1504"><path d=" M 346.198 1083.26 C 347.294 1083.26 348.181 1082.37 348.181 1081.27 C 348.181 1080.16 347.294 1079.27 346.198 1079.27 C 345.103 1079.27 344.216 1080.16 344.216 1081.27 C 344.216 1082.37 345.103 1083.26 346.198 1083.26" id="path1502" clip-rule="evenodd"/></clipPath><clipPath id="clipPath1510"><path d=" M 0 0 L 1280 0 L 1280 2091 L 0 2091 Z" id="path1508"/></clipPath></defs><g id="g1498" transform="matrix(1.33333,0,0,-1.33333,-390.667,1523.77)"><g id="g1500" clip-path="url(#clipPath1504)"><g id="g1506" clip-path="url(#clipPath1510)"><path d=" M 339.216 1074.27 L 353.181 1074.27 L 353.181 1088.26 L 339.216 1088.26 Z" id="path1512" stroke="none" fill="#65BB9F" fill-rule="nonzero" fill-opacity="1"/></g></g></g><g id="g1514" transform="matrix(1.33333,0,0,-1.33333,-390.667,1523.77)"><g id="g1516" clip-path="url(#clipPath1520)"><g id="g1522" clip-path="url(#clipPath1526)"><path d=" M 308.585 1098.94 L 344.397 1098.94 L 344.397 1147.83 L 308.585 1147.83 Z" id="path1528" stroke="none" fill="#65BB9F" fill-rule="nonzero" fill-opacity="1"/></g></g></g><g id="g1530" transform="matrix(1.33333,0,0,-1.33333,-390.667,1523.77)"><g id="g1532" clip-path="url(#clipPath1536)"><g id="g1538" clip-path="url(#clipPath1542)"><path d=" M 316.234 1105.97 L 336.639 1105.97 L 336.639 1130.79 L 316.234 1130.79 Z" id="path1544" stroke="none" fill="#65BB9F" fill-rule="nonzero" fill-opacity="1"/></g></g></g><g id="g1546" transform="matrix(1.33333,0,0,-1.33333,-390.667,1523.77)"><g id="g1548" clip-path="url(#clipPath1552)"><g id="g1554" clip-path="url(#clipPath1558)"><path d=" M 323.039 1064.26 L 365.516 1064.26 L 365.516 1129.85 L 323.039 1129.85 Z" id="path1560" stroke="none" fill="#65BB9F" fill-rule="nonzero" fill-opacity="1"/></g></g></g><g id="g1562" transform="matrix(1.33333,0,0,-1.33333,-390.667,1523.77)"><g id="g1564" clip-path="url(#clipPath1568)"><g id="g1570" clip-path="url(#clipPath1574)"><g id="g1576"></g><g id="g1602"><g id="g1600" clip-path="url(#clipPath1580)"><g id="g1590"></g><g id="g1598"><g id="g1596" clip-path="url(#clipPath1584)"><g id="g1594" clip-path="url(#clipPath1588)"><path d=" M 288 1064.26 L 330.477 1064.26 L 330.477 1129.85 L 288 1129.85 Z" id="path1592" stroke="none" fill="#65BB9F" fill-rule="nonzero" fill-opacity="1"/></g></g></g></g></g></g></g></g><g id="g1604" transform="matrix(1.33333,0,0,-1.33333,-390.667,1523.77)"><g id="g1606" clip-path="url(#clipPath1610)"><g id="g1612" clip-path="url(#clipPath1616)"><path d=" M 300.332 1074.27 L 314.297 1074.27 L 314.297 1088.26 L 300.332 1088.26 Z" id="path1618" stroke="none" fill="#65BB9F" fill-rule="nonzero" fill-opacity="1"/></g></g></g></svg>