<svg version="1.1" width="82.6665" height="82.6665" xmlns="http://www.w3.org/2000/svg" xmlns:xlink="http://www.w3.org/1999/xlink" id="svg5984" overflow="hidden"><defs id="defs5988"><clipPath id="clipPath1990"><path d=" M 295 690 L 357 690 L 357 752 L 295 752 Z" id="path1988" clip-rule="evenodd"/></clipPath><clipPath id="clipPath1996"><path d=" M 0 0 L 1280 0 L 1280 2091 L 0 2091 Z" id="path1994"/></clipPath><clipPath id="clipPath2002"><path d=" M 295 690 L 357 690 L 357 752 L 295 752 Z" id="path2000"/></clipPath><clipPath id="clipPath2006"><path d=" M 302.233 719.967 L 322.9 719.967 L 322.9 733.4 L 302.233 733.4 Z M 301.2 717.9 L 323.933 717.9 C 324.504 717.9 324.967 718.362 324.967 718.933 L 324.967 734.433 C 324.967 735.005 324.504 735.467 323.933 735.467 L 301.2 735.467 C 300.629 735.467 300.167 735.005 300.167 734.433 L 300.167 718.933 C 300.167 718.362 300.629 717.9 301.2 717.9 Z" id="path2004" clip-rule="evenodd"/></clipPath><clipPath id="clipPath2010"><path d=" M 295 690 L 357 690 L 357 752 L 295 752 Z" id="path2008"/></clipPath><clipPath id="clipPath2014"><path d=" M 315.667 724.1 L 309.467 724.1 L 309.467 726.167 L 310.5 726.167 L 314.633 726.167 L 315.667 726.167 Z M 311.533 728.233 L 313.6 728.233 L 313.6 729.267 L 311.533 729.267 Z M 316.7 728.233 L 315.667 728.233 L 315.667 730.3 C 315.667 730.872 315.204 731.333 314.633 731.333 L 310.5 731.333 C 309.93 731.333 309.467 730.872 309.467 730.3 L 309.467 728.233 L 308.433 728.233 C 307.863 728.233 307.4 727.771 307.4 727.2 L 307.4 723.067 C 307.4 722.495 307.863 722.033 308.433 722.033 L 316.7 722.033 C 317.271 722.033 317.733 722.495 317.733 723.067 L 317.733 727.2 C 317.733 727.771 317.271 728.233 316.7 728.233 Z" id="path2012" clip-rule="evenodd"/></clipPath><clipPath id="clipPath2018"><path d=" M 295 690 L 357 690 L 357 752 L 295 752 Z" id="path2016"/></clipPath><clipPath id="clipPath2022"><path d=" M 329.1 732.367 L 347.7 732.367 C 348.27 732.367 348.733 732.829 348.733 733.4 C 348.733 733.971 348.27 734.433 347.7 734.433 L 329.1 734.433 C 328.53 734.433 328.066 733.971 328.066 733.4 C 328.066 732.829 328.53 732.367 329.1 732.367" id="path2020" clip-rule="evenodd"/></clipPath><clipPath id="clipPath2026"><path d=" M 295 690 L 357 690 L 357 752 L 295 752 Z" id="path2024"/></clipPath><clipPath id="clipPath2030"><path d=" M 302.233 696.2 L 322.9 696.2 L 322.9 709.633 L 302.233 709.633 Z M 323.933 711.7 L 301.2 711.7 C 300.629 711.7 300.167 711.238 300.167 710.667 L 300.167 695.167 C 300.167 694.595 300.629 694.133 301.2 694.133 L 323.933 694.133 C 324.504 694.133 324.967 694.595 324.967 695.167 L 324.967 710.667 C 324.967 711.238 324.504 711.7 323.933 711.7 Z" id="path2028" clip-rule="evenodd"/></clipPath><clipPath id="clipPath2034"><path d=" M 295 690 L 357 690 L 357 752 L 295 752 Z" id="path2032"/></clipPath><clipPath id="clipPath2038"><path d=" M 301.2 743.733 L 303.267 743.733 L 303.267 745.8 L 301.2 745.8 Z M 304.3 747.867 L 300.167 747.867 C 299.596 747.867 299.133 747.405 299.133 746.833 L 299.133 742.7 C 299.133 742.129 299.596 741.667 300.167 741.667 L 304.3 741.667 C 304.871 741.667 305.333 742.129 305.333 742.7 L 305.333 746.833 C 305.333 747.405 304.871 747.867 304.3 747.867 Z" id="path2036" clip-rule="evenodd"/></clipPath><clipPath id="clipPath2042"><path d=" M 295 690 L 357 690 L 357 752 L 295 752 Z" id="path2040"/></clipPath><clipPath id="clipPath2046"><path d=" M 350.8 705.5 L 329.1 705.5 C 328.53 705.5 328.066 705.038 328.066 704.467 C 328.066 703.895 328.53 703.433 329.1 703.433 L 350.8 703.433 C 351.37 703.433 351.833 703.895 351.833 704.467 C 351.833 705.038 351.37 705.5 350.8 705.5" id="path2044" clip-rule="evenodd"/></clipPath><clipPath id="clipPath2050"><path d=" M 295 690 L 357 690 L 357 752 L 295 752 Z" id="path2048"/></clipPath><clipPath id="clipPath2054"><path d=" M 309.467 702.4 L 310.5 702.4 L 314.633 702.4 L 315.667 702.4 L 315.667 700.333 L 309.467 700.333 Z M 311.533 704.467 L 313.6 704.467 L 313.6 705.5 L 311.533 705.5 Z M 308.433 698.267 L 316.7 698.267 C 317.271 698.267 317.733 698.728 317.733 699.3 L 317.733 703.433 C 317.733 704.005 317.271 704.467 316.7 704.467 L 315.667 704.467 L 315.667 706.533 C 315.667 707.105 315.204 707.567 314.633 707.567 L 310.5 707.567 C 309.93 707.567 309.467 707.105 309.467 706.533 L 309.467 704.467 L 308.433 704.467 C 307.863 704.467 307.4 704.005 307.4 703.433 L 307.4 699.3 C 307.4 698.728 307.863 698.267 308.433 698.267 Z" id="path2052" clip-rule="evenodd"/></clipPath><clipPath id="clipPath2058"><path d=" M 295 690 L 357 690 L 357 752 L 295 752 Z" id="path2056"/></clipPath><clipPath id="clipPath2062"><path d=" M 299.838 692.067 C 298.31 692.067 297.067 693.31 297.067 694.839 L 297.067 713.767 L 354.934 713.767 L 354.934 694.839 C 354.934 693.31 353.69 692.067 352.161 692.067 Z M 297.067 747.35 C 297.067 748.775 298.226 749.933 299.65 749.933 L 352.35 749.933 C 353.774 749.933 354.934 748.775 354.934 747.35 L 354.934 739.6 L 297.067 739.6 Z M 297.067 715.833 L 354.934 715.833 L 354.934 737.533 L 297.067 737.533 Z M 352.35 752 L 299.65 752 C 297.086 752 295 749.914 295 747.35 L 295 738.567 L 295 714.8 L 295 694.839 L 295 694.65 C 295 692.086 297.086 690 299.65 690 L 299.838 690 L 352.162 690 L 352.35 690 C 354.914 690 357 692.086 357 694.65 L 357 694.839 L 357 714.8 L 357 738.567 L 357 747.35 C 357 749.914 354.914 752 352.35 752 Z" id="path2060" clip-rule="evenodd"/></clipPath><clipPath id="clipPath2066"><path d=" M 295 690 L 357 690 L 357 752 L 295 752 Z" id="path2064"/></clipPath><clipPath id="clipPath2070"><path d=" M 345.633 697.233 L 331.167 697.233 C 330.596 697.233 330.133 697.696 330.133 698.267 C 330.133 698.837 330.596 699.3 331.167 699.3 L 345.633 699.3 C 346.204 699.3 346.667 698.837 346.667 698.267 C 346.667 697.696 346.204 697.233 345.633 697.233 M 345.633 701.367 L 331.167 701.367 C 329.457 701.367 328.066 699.976 328.066 698.267 C 328.066 696.557 329.457 695.167 331.167 695.167 L 345.633 695.167 C 347.342 695.167 348.733 696.557 348.733 698.267 C 348.733 699.976 347.342 701.367 345.633 701.367" id="path2068" clip-rule="evenodd"/></clipPath><clipPath id="clipPath2074"><path d=" M 295 690 L 357 690 L 357 752 L 295 752 Z" id="path2072"/></clipPath><clipPath id="clipPath2078"><path d=" M 309.467 743.733 L 311.533 743.733 L 311.533 745.8 L 309.467 745.8 Z M 312.567 747.867 L 308.433 747.867 C 307.863 747.867 307.4 747.405 307.4 746.833 L 307.4 742.7 C 307.4 742.129 307.863 741.667 308.433 741.667 L 312.567 741.667 C 313.137 741.667 313.6 742.129 313.6 742.7 L 313.6 746.833 C 313.6 747.405 313.137 747.867 312.567 747.867 Z" id="path2076" clip-rule="evenodd"/></clipPath><clipPath id="clipPath2082"><path d=" M 295 690 L 357 690 L 357 752 L 295 752 Z" id="path2080"/></clipPath><clipPath id="clipPath2086"><path d=" M 317.733 743.733 L 319.8 743.733 L 319.8 745.8 L 317.733 745.8 Z M 320.833 747.867 L 316.7 747.867 C 316.129 747.867 315.667 747.405 315.667 746.833 L 315.667 742.7 C 315.667 742.129 316.129 741.667 316.7 741.667 L 320.833 741.667 C 321.404 741.667 321.867 742.129 321.867 742.7 L 321.867 746.833 C 321.867 747.405 321.404 747.867 320.833 747.867 Z" id="path2084" clip-rule="evenodd"/></clipPath><clipPath id="clipPath2090"><path d=" M 295 690 L 357 690 L 357 752 L 295 752 Z" id="path2088"/></clipPath><clipPath id="clipPath2094"><path d=" M 329.1 707.567 L 347.7 707.567 C 348.27 707.567 348.733 708.029 348.733 708.6 C 348.733 709.172 348.27 709.633 347.7 709.633 L 329.1 709.633 C 328.53 709.633 328.066 709.172 328.066 708.6 C 328.066 708.029 328.53 707.567 329.1 707.567" id="path2092" clip-rule="evenodd"/></clipPath><clipPath id="clipPath2098"><path d=" M 295 690 L 357 690 L 357 752 L 295 752 Z" id="path2096"/></clipPath><clipPath id="clipPath1974"><path d=" M 329.1 728.233 L 350.8 728.233 C 351.37 728.233 351.833 728.695 351.833 729.267 C 351.833 729.838 351.37 730.3 350.8 730.3 L 329.1 730.3 C 328.53 730.3 328.066 729.838 328.066 729.267 C 328.066 728.695 328.53 728.233 329.1 728.233" id="path1972" clip-rule="evenodd"/></clipPath><clipPath id="clipPath1980"><path d=" M 0 0 L 1280 0 L 1280 2091 L 0 2091 Z" id="path1978"/></clipPath><clipPath id="clipPath1958"><path d=" M 331.167 724.1 L 345.633 724.1 C 346.204 724.1 346.667 723.637 346.667 723.067 C 346.667 722.496 346.204 722.033 345.633 722.033 L 331.167 722.033 C 330.596 722.033 330.133 722.496 330.133 723.067 C 330.133 723.637 330.596 724.1 331.167 724.1 Z M 331.167 719.967 L 345.633 719.967 C 347.343 719.967 348.733 721.358 348.733 723.067 C 348.733 724.776 347.343 726.167 345.633 726.167 L 331.167 726.167 C 329.458 726.167 328.067 724.776 328.067 723.067 C 328.067 721.358 329.458 719.967 331.167 719.967 Z" id="path1956" clip-rule="evenodd"/></clipPath><clipPath id="clipPath1964"><path d=" M 0 0 L 1280 0 L 1280 2091 L 0 2091 Z" id="path1962"/></clipPath></defs><g id="g1952" transform="matrix(1.33333,0,0,-1.33333,-393.333,1002.67)"><g id="g1954" clip-path="url(#clipPath1958)"><g id="g1960" clip-path="url(#clipPath1964)"><path d=" M 323.067 714.967 L 353.733 714.967 L 353.733 731.167 L 323.067 731.167 Z" id="path1966" stroke="none" fill="#65BB9F" fill-rule="nonzero" fill-opacity="1"/></g></g></g><g id="g1968" transform="matrix(1.33333,0,0,-1.33333,-393.333,1002.67)"><g id="g1970" clip-path="url(#clipPath1974)"><g id="g1976" clip-path="url(#clipPath1980)"><path d=" M 323.066 723.233 L 356.833 723.233 L 356.833 735.3 L 323.066 735.3 Z" id="path1982" stroke="none" fill="#65BB9F" fill-rule="nonzero" fill-opacity="1"/></g></g></g><g id="g1984" transform="matrix(1.33333,0,0,-1.33333,-393.333,1002.67)"><g id="g1986" clip-path="url(#clipPath1990)"><g id="g1992" clip-path="url(#clipPath1996)"><g id="g1998"></g><g id="g2200"><g id="g2198" clip-path="url(#clipPath2002)"><g id="g2100"></g><g id="g2108"><g id="g2106" clip-path="url(#clipPath2006)"><g id="g2104" clip-path="url(#clipPath2010)"><path d=" M 295.167 712.9 L 329.967 712.9 L 329.967 740.467 L 295.167 740.467 Z" id="path2102" stroke="none" fill="#65BB9F" fill-rule="nonzero" fill-opacity="1"/></g></g></g><g id="g2116"><g id="g2114" clip-path="url(#clipPath2014)"><g id="g2112" clip-path="url(#clipPath2018)"><path d=" M 302.4 717.033 L 322.733 717.033 L 322.733 736.333 L 302.4 736.333 Z" id="path2110" stroke="none" fill="#65BB9F" fill-rule="nonzero" fill-opacity="1"/></g></g></g><g id="g2124"><g id="g2122" clip-path="url(#clipPath2022)"><g id="g2120" clip-path="url(#clipPath2026)"><path d=" M 323.066 727.367 L 353.733 727.367 L 353.733 739.433 L 323.066 739.433 Z" id="path2118" stroke="none" fill="#65BB9F" fill-rule="nonzero" fill-opacity="1"/></g></g></g><g id="g2132"><g id="g2130" clip-path="url(#clipPath2030)"><g id="g2128" clip-path="url(#clipPath2034)"><path d=" M 295.167 689.133 L 329.967 689.133 L 329.967 716.7 L 295.167 716.7 Z" id="path2126" stroke="none" fill="#65BB9F" fill-rule="nonzero" fill-opacity="1"/></g></g></g><g id="g2140"><g id="g2138" clip-path="url(#clipPath2038)"><g id="g2136" clip-path="url(#clipPath2042)"><path d=" M 294.133 736.667 L 310.333 736.667 L 310.333 752.867 L 294.133 752.867 Z" id="path2134" stroke="none" fill="#65BB9F" fill-rule="nonzero" fill-opacity="1"/></g></g></g><g id="g2148"><g id="g2146" clip-path="url(#clipPath2046)"><g id="g2144" clip-path="url(#clipPath2050)"><path d=" M 323.066 698.433 L 356.833 698.433 L 356.833 710.5 L 323.066 710.5 Z" id="path2142" stroke="none" fill="#65BB9F" fill-rule="nonzero" fill-opacity="1"/></g></g></g><g id="g2156"><g id="g2154" clip-path="url(#clipPath2054)"><g id="g2152" clip-path="url(#clipPath2058)"><path d=" M 302.4 693.267 L 322.733 693.267 L 322.733 712.567 L 302.4 712.567 Z" id="path2150" stroke="none" fill="#65BB9F" fill-rule="nonzero" fill-opacity="1"/></g></g></g><g id="g2164"><g id="g2162" clip-path="url(#clipPath2062)"><g id="g2160" clip-path="url(#clipPath2066)"><path d=" M 290 685 L 362 685 L 362 757 L 290 757 Z" id="path2158" stroke="none" fill="#65BB9F" fill-rule="nonzero" fill-opacity="1"/></g></g></g><g id="g2172"><g id="g2170" clip-path="url(#clipPath2070)"><g id="g2168" clip-path="url(#clipPath2074)"><path d=" M 323.066 690.167 L 353.733 690.167 L 353.733 706.367 L 323.066 706.367 Z" id="path2166" stroke="none" fill="#65BB9F" fill-rule="nonzero" fill-opacity="1"/></g></g></g><g id="g2180"><g id="g2178" clip-path="url(#clipPath2078)"><g id="g2176" clip-path="url(#clipPath2082)"><path d=" M 302.4 736.667 L 318.6 736.667 L 318.6 752.867 L 302.4 752.867 Z" id="path2174" stroke="none" fill="#65BB9F" fill-rule="nonzero" fill-opacity="1"/></g></g></g><g id="g2188"><g id="g2186" clip-path="url(#clipPath2086)"><g id="g2184" clip-path="url(#clipPath2090)"><path d=" M 310.667 736.667 L 326.867 736.667 L 326.867 752.867 L 310.667 752.867 Z" id="path2182" stroke="none" fill="#65BB9F" fill-rule="nonzero" fill-opacity="1"/></g></g></g><g id="g2196"><g id="g2194" clip-path="url(#clipPath2094)"><g id="g2192" clip-path="url(#clipPath2098)"><path d=" M 323.066 702.567 L 353.733 702.567 L 353.733 714.633 L 323.066 714.633 Z" id="path2190" stroke="none" fill="#65BB9F" fill-rule="nonzero" fill-opacity="1"/></g></g></g></g></g></g></g></g></svg>