<svg version="1.1" width="207.093" height="95.4475" xmlns="http://www.w3.org/2000/svg" xmlns:xlink="http://www.w3.org/1999/xlink" id="svg1118" overflow="hidden"><defs id="defs1122"><clipPath id="clipPath872"><path d=" M 1493.32 818.414 L 1493.32 890 L 1338 890 L 1338 818.414 Z" id="path870" clip-rule="evenodd"/></clipPath><clipPath id="clipPath878"><path d=" M 0 0 L 2560 0 L 2560 1632 L 0 1632 Z" id="path876"/></clipPath><clipPath id="clipPath884"><path d=" M 1337 818 L 1494 818 L 1494 891 L 1337 891 Z" id="path882"/></clipPath><clipPath id="clipPath888"><path d=" M 1440.37 844.959 C 1363.31 844.959 1344.55 818.414 1344.55 818.414 C 1384.85 838.326 1423.43 837.458 1445.54 836.307 C 1443.36 838.302 1441.32 842.709 1440.37 844.959 Z M 1448.22 844.659 L 1448.65 844.824 C 1448.37 844.831 1448.1 844.846 1447.84 844.853 Z M 1483.59 836.928 C 1482.83 841.164 1477.28 841.911 1477.28 841.911 C 1468.06 843.389 1459.55 844.271 1451.69 844.682 C 1453.06 843.224 1455.73 840.604 1457.36 840.424 C 1459.64 840.17 1459.26 838.93 1459.26 838.93 C 1459.26 838.847 1459.24 837.07 1457.79 835.328 C 1471.11 833.887 1479.81 831.742 1479.81 831.742 C 1479.81 831.742 1484.35 832.699 1483.59 836.928 Z M 1456.32 859.444 C 1458.5 860.197 1460.29 861.227 1461.69 862.538 C 1463.08 863.845 1464.13 865.137 1464.82 866.41 C 1465.51 867.682 1465.86 868.785 1465.88 869.718 C 1465.9 870.651 1465.58 871.134 1464.93 871.17 C 1463.95 871.205 1462.71 870.273 1461.22 868.373 C 1459.73 866.472 1458.24 863.855 1456.76 860.52 C 1456.57 860.125 1456.43 859.767 1456.32 859.444 Z M 1476.48 859.444 C 1478.66 860.197 1480.45 861.227 1481.85 862.538 C 1483.25 863.845 1484.29 865.137 1484.98 866.41 C 1485.67 867.682 1486.03 868.785 1486.05 869.718 C 1486.06 870.651 1485.75 871.134 1485.09 871.17 C 1484.11 871.205 1482.88 870.273 1481.39 868.373 C 1479.9 866.472 1478.41 863.855 1476.92 860.52 C 1476.74 860.125 1476.59 859.767 1476.48 859.444 Z M 1493.21 862.726 C 1492.59 861.435 1491.86 860.08 1491 858.665 C 1490.15 857.248 1489.19 855.868 1488.11 854.523 C 1487.04 853.178 1485.91 851.941 1484.71 850.812 C 1483.51 849.682 1482.27 848.758 1480.98 848.042 C 1479.69 847.323 1478.37 846.858 1477.03 846.644 C 1475.68 846.428 1474.36 846.589 1473.05 847.127 C 1471.59 847.701 1470.55 848.534 1469.92 849.629 C 1469.28 850.722 1468.91 851.932 1468.8 853.26 C 1468.73 854.063 1468.76 854.886 1468.85 855.724 C 1468.56 855.323 1468.27 854.918 1467.95 854.523 C 1466.88 853.178 1465.75 851.941 1464.55 850.812 C 1463.35 849.682 1462.1 848.758 1460.82 848.042 C 1459.53 847.323 1458.21 846.858 1456.86 846.644 C 1455.52 846.428 1454.19 846.589 1452.89 847.127 C 1451.43 847.701 1450.39 848.534 1449.75 849.629 C 1449.12 850.722 1448.75 851.932 1448.64 853.26 C 1448.53 854.586 1448.64 855.957 1448.96 857.373 C 1449.29 858.79 1449.69 860.091 1450.16 861.274 C 1451.03 863.461 1452.01 865.316 1453.08 866.841 C 1454.15 868.365 1455.28 869.611 1456.48 870.579 C 1457.68 871.547 1458.92 872.263 1460.19 872.73 C 1461.46 873.195 1462.75 873.43 1464.06 873.43 C 1465.4 873.43 1466.39 873.107 1467.03 872.461 C 1467.66 871.816 1467.98 870.973 1467.98 869.934 C 1467.98 868.893 1467.69 867.746 1467.11 866.491 C 1466.53 865.235 1465.7 864.008 1464.63 862.806 C 1463.56 861.605 1462.26 860.51 1460.73 859.526 C 1459.21 858.539 1457.5 857.795 1455.61 857.294 C 1455.36 856.36 1455.18 855.437 1455.07 854.523 C 1454.96 853.609 1454.94 852.775 1455.01 852.021 C 1455.08 851.269 1455.26 850.642 1455.53 850.141 C 1455.8 849.637 1456.21 849.333 1456.76 849.225 C 1457.56 849.081 1458.42 849.198 1459.34 849.575 C 1460.27 849.952 1461.21 850.516 1462.18 851.269 C 1463.14 852.021 1464.08 852.901 1465.01 853.904 C 1465.94 854.908 1466.81 855.966 1467.63 857.078 C 1468.44 858.19 1469.17 859.291 1469.81 860.386 C 1470.04 860.782 1470.24 861.164 1470.44 861.539 C 1471.28 863.606 1472.21 865.38 1473.24 866.841 C 1474.31 868.365 1475.45 869.611 1476.65 870.579 C 1477.84 871.547 1479.08 872.263 1480.35 872.73 C 1481.62 873.195 1482.91 873.43 1484.22 873.43 C 1485.56 873.43 1486.55 873.107 1487.19 872.461 C 1487.82 871.816 1488.14 870.973 1488.14 869.934 C 1488.14 868.893 1487.85 867.746 1487.27 866.491 C 1486.69 865.235 1485.86 864.008 1484.79 862.806 C 1483.72 861.605 1482.42 860.51 1480.9 859.526 C 1479.37 858.539 1477.66 857.795 1475.77 857.294 C 1475.52 856.36 1475.34 855.437 1475.23 854.523 C 1475.12 853.609 1475.1 852.775 1475.17 852.021 C 1475.25 851.269 1475.42 850.642 1475.69 850.141 C 1475.96 849.637 1476.37 849.333 1476.92 849.225 C 1477.71 849.081 1478.58 849.198 1479.51 849.575 C 1480.43 849.952 1481.38 850.516 1482.34 851.269 C 1483.3 852.021 1484.25 852.901 1485.17 853.904 C 1486.1 854.908 1486.97 855.966 1487.79 857.078 C 1488.61 858.19 1489.33 859.291 1489.97 860.386 C 1490.6 861.479 1491.1 862.492 1491.47 863.424 C 1491.58 863.712 1491.77 863.908 1492.04 864.016 C 1492.31 864.124 1492.59 864.088 1492.88 863.908 C 1493.32 863.622 1493.43 863.228 1493.21 862.726 Z M 1457.14 839.382 C 1455.94 839.419 1454.71 839.929 1453.46 840.916 C 1452.21 841.901 1450.95 843.165 1449.7 844.706 C 1448.44 846.248 1447.24 847.951 1446.08 849.816 C 1444.91 851.68 1443.82 853.518 1442.81 855.33 C 1441.79 857.14 1440.87 858.799 1440.05 860.305 C 1439.24 861.812 1438.56 862.976 1438.01 863.802 C 1439.17 864.267 1440.39 864.787 1441.66 865.361 C 1442.93 865.934 1444.15 866.545 1445.31 867.19 C 1446.47 867.835 1447.52 868.516 1448.44 869.234 C 1449.37 869.951 1450.05 870.686 1450.49 871.439 C 1451.07 872.407 1451.23 873.295 1450.98 874.102 C 1450.72 874.908 1450.33 875.572 1449.78 876.092 C 1449.24 876.611 1448.69 876.943 1448.15 877.087 C 1447.6 877.231 1447.33 877.141 1447.33 876.818 C 1447.33 876.495 1447.11 876.056 1446.68 875.5 C 1446.24 874.944 1445.67 874.326 1444.96 873.644 C 1444.25 872.963 1443.44 872.219 1442.53 871.412 C 1441.63 870.605 1440.69 869.807 1439.73 869.018 C 1438.76 868.23 1437.81 867.467 1436.87 866.733 C 1435.92 865.998 1435.07 865.325 1434.31 864.715 C 1435.43 867.046 1436.55 869.395 1437.66 871.762 C 1438.76 874.128 1439.74 876.342 1440.57 878.405 C 1441.41 880.466 1442.04 882.286 1442.48 883.864 C 1442.92 885.441 1443.02 886.608 1442.81 887.36 C 1442.48 888.435 1441.94 889.153 1441.17 889.511 C 1440.41 889.87 1439.65 890.032 1438.91 889.995 C 1438.17 889.959 1437.55 889.798 1437.06 889.511 C 1436.57 889.224 1436.45 888.974 1436.7 888.758 C 1436.92 888.543 1436.87 887.879 1436.54 886.769 C 1436.21 885.657 1435.7 884.258 1435.01 882.573 C 1434.32 880.887 1433.52 878.979 1432.59 876.845 C 1431.66 874.711 1430.7 872.515 1429.7 870.256 C 1428.7 867.997 1427.73 865.755 1426.79 863.533 C 1426.55 862.972 1426.32 862.421 1426.09 861.879 C 1425.85 861.399 1425.59 860.901 1425.29 860.386 C 1424.65 859.291 1423.93 858.19 1423.11 857.078 C 1422.29 855.966 1421.42 854.908 1420.49 853.904 C 1419.57 852.901 1418.62 852.021 1417.66 851.269 C 1416.69 850.516 1415.75 849.952 1414.82 849.575 C 1413.9 849.198 1413.04 849.081 1412.24 849.225 C 1411.55 849.369 1411.07 849.844 1410.82 850.65 C 1410.56 851.457 1410.47 852.416 1410.52 853.528 C 1410.57 854.64 1410.76 855.822 1411.06 857.078 C 1411.37 858.332 1411.77 859.48 1412.24 860.52 C 1413 862.17 1413.76 863.667 1414.53 865.012 C 1415.29 866.356 1416.03 867.486 1416.73 868.4 C 1417.44 869.315 1418.1 870.013 1418.72 870.498 C 1419.34 870.982 1419.9 871.205 1420.41 871.17 C 1420.81 871.17 1421.1 870.955 1421.28 870.525 C 1421.03 870.345 1420.82 870.13 1420.66 869.879 C 1420.49 869.628 1420.41 869.359 1420.41 869.073 C 1420.41 868.606 1420.58 868.23 1420.93 867.943 C 1421.27 867.655 1421.66 867.513 1422.1 867.513 C 1422.61 867.513 1423.01 867.692 1423.3 868.051 C 1423.62 868.373 1423.79 868.893 1423.79 869.611 C 1423.79 870.327 1423.64 870.928 1423.35 871.412 C 1423.06 871.896 1422.71 872.281 1422.29 872.568 C 1421.87 872.855 1421.42 873.061 1420.93 873.187 C 1420.44 873.313 1419.97 873.393 1419.54 873.43 C 1418.23 873.464 1416.94 873.268 1415.67 872.838 C 1414.4 872.407 1413.16 871.699 1411.96 870.713 C 1410.77 869.726 1409.63 868.454 1408.56 866.894 C 1407.94 865.987 1407.35 864.96 1406.79 863.84 C 1406.65 863.745 1406.54 863.618 1406.46 863.424 C 1406.24 862.815 1405.88 862.044 1405.37 861.111 C 1404.86 860.18 1404.28 859.193 1403.63 858.154 C 1402.97 857.113 1402.28 856.074 1401.56 855.034 C 1400.83 853.994 1400.12 853.052 1399.43 852.21 C 1398.74 851.367 1398.11 850.677 1397.55 850.141 C 1396.99 849.602 1396.52 849.314 1396.16 849.279 C 1395.32 849.206 1394.95 849.538 1395.04 850.274 C 1395.13 851.009 1395.48 851.996 1396.08 853.232 C 1396.68 854.469 1397.42 855.877 1398.31 857.453 C 1399.2 859.032 1400.04 860.627 1400.82 862.242 C 1401.6 863.855 1402.21 865.406 1402.65 866.894 C 1403.08 868.382 1403.14 869.645 1402.81 870.686 C 1402.48 871.762 1401.93 872.479 1401.15 872.838 C 1400.36 873.195 1399.61 873.357 1398.89 873.322 C 1398.16 873.286 1397.55 873.124 1397.06 872.838 C 1396.57 872.55 1396.45 872.3 1396.71 872.084 C 1396.96 871.833 1397.01 871.367 1396.84 870.686 C 1396.68 870.005 1396.39 869.162 1395.97 868.157 C 1395.55 867.154 1395.06 866.034 1394.5 864.796 C 1394.05 863.807 1393.61 862.782 1393.17 861.736 C 1393.06 861.537 1392.96 861.329 1392.84 861.111 C 1392.33 860.18 1391.75 859.193 1391.09 858.154 C 1390.44 857.113 1389.75 856.074 1389.02 855.034 C 1388.3 853.994 1387.59 853.052 1386.9 852.21 C 1386.21 851.367 1385.58 850.677 1385.02 850.141 C 1384.45 849.602 1383.99 849.314 1383.63 849.279 C 1383.01 849.206 1382.75 849.619 1382.84 850.516 C 1382.93 851.412 1383.27 852.622 1383.87 854.146 C 1384.47 855.67 1385.25 857.445 1386.22 859.471 C 1387.18 861.497 1388.2 863.603 1389.27 865.792 C 1390.34 867.978 1391.4 870.192 1392.46 872.434 C 1393.51 874.675 1394.43 876.764 1395.21 878.701 C 1395.99 880.637 1396.58 882.366 1396.98 883.891 C 1397.38 885.414 1397.45 886.571 1397.2 887.36 C 1396.87 888.435 1396.32 889.153 1395.54 889.511 C 1394.75 889.87 1394 890.032 1393.27 889.995 C 1392.55 889.959 1391.94 889.798 1391.45 889.511 C 1390.96 889.224 1390.84 888.974 1391.09 888.758 C 1391.35 888.508 1391.22 887.628 1390.71 886.124 C 1390.2 884.617 1389.49 882.742 1388.56 880.503 C 1387.63 878.261 1386.59 875.804 1385.43 873.134 C 1384.26 870.461 1383.16 867.844 1382.1 865.281 C 1381.64 864.162 1381.22 863.092 1380.81 862.053 C 1379.63 859.821 1378.41 857.663 1377.12 855.599 C 1375.72 853.357 1374.28 851.26 1372.81 849.306 C 1371.34 847.351 1369.85 845.568 1368.34 843.954 C 1366.83 842.339 1365.35 840.942 1363.9 839.759 C 1361.98 838.217 1360.17 837.159 1358.48 836.586 C 1356.79 836.011 1355.26 835.841 1353.88 836.074 C 1352.49 836.307 1351.3 836.918 1350.28 837.902 C 1349.26 838.89 1348.49 840.162 1347.96 841.722 C 1347.44 843.281 1347.17 845.084 1347.17 847.127 C 1347.17 849.17 1347.5 851.377 1348.15 853.744 C 1348.48 854.962 1348.93 856.36 1349.49 857.938 C 1350.05 859.516 1350.7 861.157 1351.45 862.86 C 1352.19 864.563 1353.04 866.284 1353.98 868.023 C 1354.93 869.763 1355.95 871.386 1357.04 872.891 C 1358.49 874.899 1359.94 876.657 1361.4 878.162 C 1362.85 879.669 1364.2 880.86 1365.45 881.74 C 1366.71 882.618 1367.79 883.138 1368.7 883.3 C 1369.61 883.46 1370.26 883.2 1370.66 882.519 C 1371.1 881.694 1371.29 880.645 1371.26 879.373 C 1371.22 878.099 1370.99 876.782 1370.55 875.419 C 1370.11 874.057 1369.51 872.747 1368.72 871.493 C 1367.94 870.237 1367.04 869.215 1366.03 868.427 C 1365.48 867.997 1365.37 867.503 1365.7 866.947 C 1366.03 866.391 1366.55 865.907 1367.25 865.496 C 1367.96 865.083 1368.73 864.815 1369.57 864.689 C 1370.41 864.563 1371.08 864.715 1371.58 865.146 C 1373.18 866.545 1374.34 868.202 1375.05 870.121 C 1375.75 872.039 1376.11 873.94 1376.11 875.823 C 1376.11 877.705 1375.8 879.461 1375.18 881.094 C 1374.56 882.725 1373.75 883.971 1372.73 884.832 C 1371.42 885.943 1370.01 886.608 1368.48 886.822 C 1366.95 887.037 1365.45 886.984 1363.98 886.661 C 1362.51 886.338 1361.15 885.854 1359.9 885.208 C 1358.64 884.563 1357.64 883.918 1356.87 883.272 C 1354.55 881.336 1352.48 879.319 1350.66 877.221 C 1348.84 875.123 1347.22 872.899 1345.78 870.552 C 1344.35 868.202 1343.09 865.675 1341.99 862.968 C 1340.91 860.26 1339.91 857.329 1339 854.174 C 1338.49 852.344 1338.17 850.444 1338.05 848.473 C 1337.92 846.499 1338.06 844.609 1338.45 842.798 C 1338.85 840.986 1339.54 839.31 1340.53 837.767 C 1341.51 836.228 1342.83 834.971 1344.5 834.003 C 1345.45 833.394 1346.48 832.946 1347.61 832.659 C 1348.73 832.372 1349.88 832.228 1351.04 832.228 C 1352.02 832.228 1353.03 832.319 1354.07 832.497 C 1355.1 832.678 1356.09 832.963 1357.04 833.358 C 1359.72 834.326 1362.45 835.904 1365.21 838.09 C 1368.15 840.458 1371.02 843.453 1373.82 847.073 C 1374.58 848.042 1375.36 849.108 1376.16 850.274 C 1376.78 851.17 1377.39 852.109 1378.01 853.071 C 1377.91 852.155 1377.91 851.291 1378.02 850.489 C 1378.13 849.646 1378.34 848.929 1378.67 848.336 C 1379 847.747 1379.43 847.289 1379.95 846.966 C 1380.48 846.644 1381.11 846.499 1381.83 846.536 C 1382.7 846.536 1383.61 846.858 1384.56 847.503 C 1385.5 848.149 1386.44 848.974 1387.36 849.978 C 1388.29 850.981 1389.19 852.094 1390.06 853.313 C 1390.29 853.63 1390.5 853.945 1390.72 854.26 C 1390.65 853.903 1390.59 853.55 1390.55 853.205 C 1390.44 852.237 1390.44 851.331 1390.55 850.489 C 1390.66 849.646 1390.88 848.929 1391.2 848.336 C 1391.53 847.747 1391.96 847.289 1392.48 846.966 C 1393.01 846.644 1393.64 846.499 1394.37 846.536 C 1395.24 846.536 1396.14 846.858 1397.09 847.503 C 1398.04 848.149 1398.97 848.974 1399.9 849.978 C 1400.82 850.981 1401.72 852.094 1402.59 853.313 C 1403.14 854.081 1403.66 854.844 1404.16 855.606 C 1404.07 854.815 1404.06 854.04 1404.12 853.286 C 1404.23 851.976 1404.6 850.766 1405.24 849.656 C 1405.87 848.543 1406.92 847.701 1408.37 847.127 C 1409.68 846.589 1411.01 846.428 1412.38 846.644 C 1413.74 846.858 1415.06 847.333 1416.35 848.068 C 1417.64 848.803 1418.9 849.754 1420.11 850.919 C 1421.26 852.014 1422.32 853.189 1423.32 854.427 C 1423.09 853.666 1422.89 852.949 1422.73 852.291 C 1422.38 850.856 1422.32 849.816 1422.54 849.17 C 1422.86 848.095 1423.34 847.36 1423.98 846.966 C 1424.62 846.571 1425.23 846.384 1425.83 846.4 C 1426.43 846.419 1426.92 846.58 1427.31 846.885 C 1427.69 847.19 1427.8 847.485 1427.66 847.773 C 1427.48 848.095 1427.49 848.669 1427.69 849.493 C 1427.89 850.318 1428.21 851.323 1428.67 852.506 C 1429.12 853.689 1429.68 855.025 1430.36 856.513 C 1431.03 858.002 1431.76 859.569 1432.56 861.22 C 1432.82 861.399 1433.14 861.587 1433.52 861.785 C 1433.9 861.982 1434.34 862.205 1434.85 862.456 C 1435.47 862.242 1436.08 861.425 1436.68 860.009 C 1437.28 858.592 1437.93 856.863 1438.64 854.819 C 1439.35 852.775 1440.13 850.596 1440.98 848.284 C 1441.83 845.972 1442.8 843.818 1443.87 841.829 C 1444.94 839.839 1446.15 838.181 1447.49 836.854 C 1448.84 835.527 1450.36 834.845 1452.07 834.81 C 1453.2 834.776 1454.16 834.998 1454.96 835.483 C 1455.76 835.967 1456.38 836.496 1456.81 837.07 C 1457.25 837.642 1457.49 838.172 1457.55 838.656 C 1457.6 839.14 1457.47 839.382 1457.14 839.382 L 1457.14 839.382 Z M 1399.65 877.329 C 1399.07 877.921 1398.78 878.665 1398.78 879.561 C 1398.78 879.811 1398.89 880.143 1399.1 880.556 C 1399.32 880.968 1399.57 881.408 1399.84 881.874 C 1400.11 882.34 1400.36 882.77 1400.57 883.165 C 1400.79 883.559 1400.9 883.864 1400.9 884.079 C 1400.9 884.33 1401.18 884.456 1401.72 884.456 C 1402.27 884.456 1402.87 884.312 1403.55 884.026 C 1404.22 883.738 1404.83 883.307 1405.37 882.734 C 1405.92 882.16 1406.19 881.425 1406.19 880.529 C 1406.19 880.314 1406.09 880.009 1405.89 879.615 C 1405.69 879.22 1405.47 878.808 1405.23 878.378 C 1405 877.947 1404.78 877.517 1404.58 877.087 C 1404.38 876.657 1404.28 876.315 1404.28 876.065 C 1404.28 875.777 1403.99 875.634 1403.41 875.634 C 1402.83 875.634 1402.2 875.769 1401.53 876.039 C 1400.86 876.307 1400.23 876.737 1399.65 877.329 Z" id="path886" clip-rule="evenodd"/></clipPath><clipPath id="clipPath892"><path d=" M 1338 818 L 1494 818 L 1494 890 L 1338 890 Z" id="path890"/></clipPath></defs><g id="g866" transform="matrix(1.33333,0,0,-1.33333,-1784,1186.67)"><g id="g868" clip-path="url(#clipPath872)"><g id="g874" clip-path="url(#clipPath878)"><g id="g880"></g><g id="g906"><g id="g904" clip-path="url(#clipPath884)"><g id="g894"></g><g id="g902"><g id="g900" clip-path="url(#clipPath888)"><g id="g898" clip-path="url(#clipPath892)"><path d=" M 1328 808.414 L 1503.32 808.414 L 1503.32 900 L 1328 900 Z" id="path896" stroke="none" fill="#65BB9F" fill-rule="nonzero" fill-opacity="1"/></g></g></g></g></g></g></g></g></svg>